SplineFontDB: 3.0
FontName: Monda-Bold
FullName: Monda Bold
FamilyName: Monda Bold
Weight: Bold
Copyright: Copyright (c) 2011-12 by vernon adams. All rights reserved.
Version: 1.000
ItalicAngle: 0
UnderlinePosition: 0
UnderlineWidth: 0
Ascent: 1638
Descent: 410
sfntRevision: 0x00010000
LayerCount: 2
Layer: 0 1 "Back"  1
Layer: 1 1 "Fore"  0
XUID: [1021 332 1330122705 233123]
FSType: 0
OS2Version: 4
OS2_WeightWidthSlopeOnly: 0
OS2_UseTypoMetrics: 1
CreationTime: 1354173500
ModificationTime: 1354220995
PfmFamily: 17
TTFWeight: 700
TTFWidth: 5
LineGap: 0
VLineGap: 0
Panose: 2 0 8 3 0 0 0 0 0 0
OS2TypoAscent: 2106
OS2TypoAOffset: 0
OS2TypoDescent: -756
OS2TypoDOffset: 0
OS2TypoLinegap: 0
OS2WinAscent: 2106
OS2WinAOffset: 0
OS2WinDescent: 756
OS2WinDOffset: 0
HheadAscent: 2106
HheadAOffset: 0
HheadDescent: -756
HheadDOffset: 0
OS2SubXSize: 1331
OS2SubYSize: 1433
OS2SubXOff: 0
OS2SubYOff: 286
OS2SupXSize: 1331
OS2SupYSize: 1433
OS2SupXOff: 0
OS2SupYOff: 983
OS2StrikeYSize: 102
OS2StrikeYPos: 530
OS2Vendor: 'newt'
OS2CodePages: 00000093.00000000
OS2UnicodeRanges: a00000ef.4000204a.00000000.00000000
Lookup: 4 0 1 "'liga' Standard Ligatures lookup 0"  {"'liga' Standard Ligatures lookup 0 subtable"  } ['liga' ('DFLT' <'dflt' > 'grek' <'dflt' > 'latn' <'dflt' > ) ]
Lookup: 258 0 0 "'kern' Horizontal Kerning in Latin lookup 0"  {"'kern' Horizontal Kerning in Latin lookup 0 per glyph data 0"  "'kern' Horizontal Kerning in Latin lookup 0 kerning class 1"  } ['kern' ('DFLT' <'dflt' > 'latn' <'dflt' > ) ]
MarkAttachClasses: 1
DEI: 91125
KernClass2: 21 19 "'kern' Horizontal Kerning in Latin lookup 0 kerning class 1" 
 89 A Agrave Aacute Acircumflex Atilde Adieresis Aring Amacron Abreve Aogonek uni0200 uni0202
 1 C
 111 D O Q Eth Ograve Oacute Ocircumflex Otilde Odieresis Oslash Dcaron Omacron Obreve Ohungarumlaut uni020C uni020E
 1 F
 1 G
 1 K
 1 L
 1 P
 44 R Racute Rcommaaccent Rcaron uni0210 uni0212
 16 T Tcaron uni021A
 1 V
 1 W
 18 Y Yacute Ydieresis
 1 a

StartChar: exclam
Encoding: 33 33 1
Width: 648
GlyphClass: 2
Flags: W
LayerCount: 2
Fore
SplineSet
280 410 m 1,0,1
 197 1359 197 1359 197 1477 c 1,2,-1
 456 1477 l 1,3,4
 456 1370 456 1370 356 410 c 1,5,-1
 280 410 l 1,0,1
192 0 m 1,6,-1
 192 245 l 1,7,-1
 442 245 l 1,8,-1
 442 0 l 1,9,-1
 192 0 l 1,6,-1
EndSplineSet
EndChar

StartChar: quotedbl
Encoding: 34 34 2
Width: 1024
GlyphClass: 2
Flags: W
LayerCount: 2
Fore
SplineSet
630 872 m 1,0,-1
 572 1516 l 1,1,-1
 826 1516 l 1,2,-1
 749 872 l 1,3,-1
 630 872 l 1,0,-1
277 872 m 1,4,-1
 198 1516 l 1,5,-1
 451 1516 l 1,6,-1
 396 872 l 1,7,-1
 277 872 l 1,4,-1
EndSplineSet
EndChar

StartChar: numbersign
Encoding: 35 35 3
Width: 1430
GlyphClass: 2
Flags: W
LayerCount: 2
Fore
SplineSet
536 618 m 1,0,-1
 793 618 l 1,1,-1
 843 896 l 1,2,-1
 584 896 l 1,3,-1
 536 618 l 1,0,-1
223 0 m 1,4,-1
 309 478 l 1,5,-1
 104 478 l 1,6,-1
 104 618 l 1,7,-1
 334 618 l 1,8,-1
 384 896 l 1,9,-1
 128 896 l 1,10,-1
 128 1036 l 1,11,-1
 408 1036 l 1,12,-1
 487 1477 l 1,13,-1
 685 1477 l 1,14,-1
 609 1036 l 1,15,-1
 868 1036 l 1,16,-1
 947 1477 l 1,17,-1
 1145 1477 l 1,18,-1
 1069 1036 l 1,19,-1
 1268 1036 l 1,20,-1
 1268 896 l 1,21,-1
 1044 896 l 1,22,-1
 996 618 l 1,23,-1
 1244 618 l 1,24,-1
 1244 478 l 1,25,-1
 971 478 l 1,26,-1
 889 0 l 1,27,-1
 683 0 l 1,28,-1
 769 478 l 1,29,-1
 512 478 l 1,30,-1
 429 0 l 1,31,-1
 223 0 l 1,4,-1
EndSplineSet
EndChar

StartChar: dollar
Encoding: 36 36 4
Width: 1281
GlyphClass: 2
Flags: W
LayerCount: 2
Fore
SplineSet
601 1264 m 1,0,1
 434 1245 434 1245 428 1121 c 0,2,3
 427.6 1112.7 427.6 1112.7 427.6 1104.795 c 0,4,5
 427.6 1033.65 427.6 1033.65 461.8 992.325 c 128,-1,6
 496 951 496 951 601 918 c 1,7,-1
 601 1264 l 1,0,1
711 1500 m 1,8,9
 964 1489 964 1489 1143 1386 c 1,10,-1
 1059 1177 l 1,11,12
 887 1259 887 1259 711 1267 c 1,13,-1
 711 885 l 1,14,-1
 870 837 l 2,15,16
 1022 791 1022 791 1095.5 692 c 128,-1,17
 1169 593 1169 593 1169 413.25 c 128,-1,18
 1169 233.5 1169 233.5 1057.72360845 106.768554063 c 128,-1,19
 946.447216891 -19.9628918746 946.447216891 -19.9628918746 711 -26 c 1,20,-1
 711 -242 l 1,21,-1
 601 -242 l 1,22,-1
 601 -23 l 1,23,24
 320.534929165 -3.87738153395 320.534929165 -3.87738153395 120 108 c 1,25,-1
 222 325 l 1,26,27
 402 230 402 230 601 211 c 1,28,-1
 601 634 l 1,29,-1
 442 681 l 2,30,31
 326 715 326 715 256 778.5 c 128,-1,32
 186 842 186 842 161 917.5 c 128,-1,33
 136 993 136 993 136 1091 c 0,34,35
 136 1285 136 1285 266.451520913 1387.49762357 c 128,-1,36
 396.903041825 1489.99524715 396.903041825 1489.99524715 601 1500 c 1,37,-1
 601 1638 l 1,38,-1
 711 1638 l 1,39,-1
 711 1500 l 1,8,9
711 208 m 1,40,41
 897.388166774 218.96400981 897.388166774 218.96400981 897.388166774 388.479691194 c 0,42,43
 897.388166774 466.967842682 897.388166774 466.967842682 877.83637593 498.809330629 c 0,44,45
 839.043419267 561.986431479 839.043419267 561.986431479 711 602 c 1,46,-1
 711 208 l 1,40,41
EndSplineSet
EndChar

StartChar: percent
Encoding: 37 37 5
Width: 2114
GlyphClass: 2
Flags: W
LayerCount: 2
Fore
SplineSet
694 0 m 1,0,-1
 1237 1446 l 1,1,-1
 1410 1446 l 1,2,-1
 872 0 l 1,3,-1
 694 0 l 1,0,-1
1614 -19 m 128,-1,5
 1450 -19 1450 -19 1381.5 79 c 128,-1,6
 1313 177 1313 177 1313 360 c 2,7,-1
 1313 413 l 2,8,9
 1313 598 1313 598 1380.5 691 c 128,-1,10
 1448 784 1448 784 1613.5 784 c 128,-1,11
 1779 784 1779 784 1847.5 691.5 c 128,-1,12
 1916 599 1916 599 1918 414 c 1,13,-1
 1918 360 l 2,14,15
 1918 177 1918 177 1848 79 c 128,-1,4
 1778 -19 1778 -19 1614 -19 c 128,-1,5
1614 111 m 0,16,17
 1716.78461538 111 1716.78461538 111 1741.5 205.5 c 0,18,19
 1755 257.117647059 1755 257.117647059 1755 346 c 2,20,-1
 1755 433 l 2,21,22
 1755 576.466666667 1755 576.466666667 1720.79411765 615.233333333 c 128,-1,23
 1686.58823529 654 1686.58823529 654 1630.79411765 654 c 0,24,25
 1505.7704918 654 1505.7704918 654 1485.45039614 571.36494431 c 0,26,27
 1473 520.733333333 1473 520.733333333 1473 435 c 2,28,-1
 1473 346 l 2,29,30
 1473 199.6 1473 199.6 1507.97368421 155.3 c 128,-1,31
 1542.94736842 111 1542.94736842 111 1614 111 c 0,16,17
196 1043 m 2,32,-1
 196 1096 l 2,33,34
 196 1281 196 1281 263.5 1374 c 128,-1,35
 331 1467 331 1467 496 1467 c 128,-1,36
 661 1467 661 1467 730 1374.5 c 128,-1,37
 799 1282 799 1282 801 1097 c 1,38,-1
 801 1043 l 2,39,40
 801 860 801 860 730.5 762 c 128,-1,41
 660 664 660 664 493.737864078 664 c 128,-1,42
 327.475728155 664 327.475728155 664 261.737864078 765.059701493 c 128,-1,43
 196 866.119402985 196 866.119402985 196 1043 c 2,32,-1
559.5 806 m 0,44,45
 608.756667764 828.304906157 608.756667764 828.304906157 623.378333882 884.211276608 c 128,-1,46
 638 940.117647059 638 940.117647059 638 1029 c 2,47,-1
 638 1116 l 2,48,49
 638 1257.55172414 638 1257.55172414 604.117647059 1297.27586207 c 128,-1,50
 570.235294118 1337 570.235294118 1337 514.117647059 1337 c 0,51,52
 388.770491803 1337 388.770491803 1337 368.450396142 1254.36494431 c 0,53,54
 356 1203.73333333 356 1203.73333333 356 1118 c 2,55,-1
 356 1029 l 2,56,57
 356 882.6 356 882.6 390.973684211 838.3 c 128,-1,58
 425.947368421 794 425.947368421 794 479.473684211 794 c 128,-1,59
 533 794 533 794 559.5 806 c 0,44,45
EndSplineSet
EndChar

StartChar: ampersand
Encoding: 38 38 6
Width: 1526
GlyphClass: 2
Flags: W
LayerCount: 2
Fore
SplineSet
897.363921569 208.068235294 m 128,-1,1
 967.061176471 221.136470588 967.061176471 221.136470588 993 279 c 1,2,-1
 559 704 l 1,3,4
 429.842607313 668.481717011 429.842607313 668.481717011 423.079439252 560.271028037 c 0,5,6
 420 511 420 511 420 448 c 0,7,8
 420 311.169014085 420 311.169014085 482.484848485 253.084507042 c 128,-1,9
 544.96969697 195 544.96969697 195 686.318181818 195 c 128,-1,0
 827.666666667 195 827.666666667 195 897.363921569 208.068235294 c 128,-1,1
1023 4.5 m 128,-1,11
 918 -27 918 -27 714.5 -27 c 128,-1,12
 511 -27 511 -27 384 22.5 c 128,-1,13
 257 72 257 72 202.5 176 c 128,-1,14
 148 280 148 280 148 444.5 c 128,-1,15
 148 609 148 609 216 695 c 128,-1,16
 284 781 284 781 432 825 c 1,17,18
 343 907 343 907 300 982.5 c 128,-1,19
 257 1058 257 1058 257 1165 c 0,20,21
 257 1341 257 1341 371 1423.5 c 128,-1,22
 485 1506 485 1506 751 1506 c 128,-1,23
 1017 1506 1017 1506 1127.5 1437 c 128,-1,24
 1238 1368 1238 1368 1238 1193 c 2,25,-1
 1238 1110 l 1,26,-1
 1000 1110 l 1,27,-1
 1000 1152 l 2,28,29
 1000 1241.71428571 1000 1241.71428571 967.527027027 1267.22876448 c 128,-1,30
 935.054054054 1292.74324324 935.054054054 1292.74324324 886.027027027 1298.87162162 c 128,-1,31
 837 1305 837 1305 761 1305 c 0,32,33
 611.386363636 1305 611.386363636 1305 566.193181818 1264.41836735 c 128,-1,34
 521 1223.83673469 521 1223.83673469 521 1158.91836735 c 128,-1,35
 521 1094 521 1094 541.5 1062 c 128,-1,36
 562 1030 562 1030 638 951 c 1,37,-1
 1095 500 l 1,38,39
 1096 514 1096 514 1096 531 c 2,40,-1
 1096 822 l 1,41,-1
 1331 822 l 1,42,-1
 1331 549 l 2,43,44
 1331 393 1331 393 1305 309 c 1,45,-1
 1474 150 l 1,46,-1
 1314 -23 l 1,47,-1
 1186 103 l 1,48,10
 1128 36 1128 36 1023 4.5 c 128,-1,11
EndSplineSet
EndChar

StartChar: quotesingle
Encoding: 39 39 7
Width: 769
GlyphClass: 2
Flags: W
LayerCount: 2
Fore
SplineSet
337 872 m 1,0,-1
 258 1516 l 1,1,-1
 511 1516 l 1,2,-1
 456 872 l 1,3,-1
 337 872 l 1,0,-1
EndSplineSet
EndChar

StartChar: parenleft
Encoding: 40 40 8
Width: 946
GlyphClass: 2
Flags: W
LayerCount: 2
Fore
SplineSet
782 -159 m 1,0,1
 302.540229885 -159 302.540229885 -159 225.5 224 c 0,2,3
 208 311 208 311 208 420 c 2,4,-1
 208 986 l 2,5,6
 208 1425.15044248 208 1425.15044248 508 1534 c 0,7,8
 621 1575 621 1575 782 1575 c 1,9,-1
 782 1359 l 1,10,11
 674 1359 674 1359 612.5 1331 c 0,12,13
 487 1273.86178862 487 1273.86178862 487 1020 c 2,14,-1
 487 390 l 2,15,16
 487 137.658536585 487 137.658536585 611.5 83 c 0,17,18
 673 56 673 56 782 56 c 1,19,-1
 782 -159 l 1,0,1
EndSplineSet
EndChar

StartChar: parenright
Encoding: 41 41 9
Width: 946
GlyphClass: 2
Flags: W
LayerCount: 2
Fore
SplineSet
181 -159 m 1,0,-1
 181 57 l 1,1,2
 289 57 289 57 350.5 85 c 0,3,4
 476 142.138211382 476 142.138211382 476 395 c 2,5,-1
 476 1025 l 2,6,7
 476 1277.34146341 476 1277.34146341 351.5 1332 c 0,8,9
 290 1359 290 1359 181 1359 c 1,10,-1
 181 1575 l 1,11,12
 501.585987261 1575 501.585987261 1575 627.792993631 1422.58076923 c 128,-1,13
 754 1270.16153846 754 1270.16153846 754 996 c 2,14,-1
 754 430 l 2,15,16
 754 -9.51327433628 754 -9.51327433628 455 -118 c 0,17,18
 342 -159 342 -159 181 -159 c 1,0,-1
EndSplineSet
EndChar

StartChar: asterisk
Encoding: 42 42 10
Width: 998
GlyphClass: 2
Flags: W
LayerCount: 2
Fore
SplineSet
410 599 m 1,0,-1
 439 924 l 1,1,-1
 166 750 l 1,2,-1
 86 911 l 1,3,-1
 376 1028 l 1,4,-1
 96 1170 l 1,5,-1
 191 1323 l 1,6,-1
 438 1133 l 1,7,-1
 410 1446 l 1,8,-1
 588 1446 l 1,9,-1
 558 1121 l 1,10,-1
 831 1295 l 1,11,-1
 912 1134 l 1,12,-1
 621 1017 l 1,13,-1
 901 875 l 1,14,-1
 806 722 l 1,15,-1
 559 912 l 1,16,-1
 588 599 l 1,17,-1
 410 599 l 1,0,-1
EndSplineSet
EndChar

StartChar: plus
Encoding: 43 43 11
Width: 966
GlyphClass: 2
Flags: W
LayerCount: 2
Fore
SplineSet
401 156 m 1,0,-1
 401 487 l 1,1,-1
 132 487 l 1,2,-1
 132 649 l 1,3,-1
 401 649 l 1,4,-1
 401 968 l 1,5,-1
 565 968 l 1,6,-1
 565 649 l 1,7,-1
 834 649 l 1,8,-1
 834 487 l 1,9,-1
 565 487 l 1,10,-1
 565 156 l 1,11,-1
 401 156 l 1,0,-1
EndSplineSet
EndChar

StartChar: comma
Encoding: 44 44 12
Width: 768
GlyphClass: 2
Flags: W
LayerCount: 2
Fore
SplineSet
349 -389 m 1,0,-1
 242 -343 l 1,1,2
 293 -285 293 -285 340.5 -188.5 c 128,-1,3
 388 -92 388 -92 388 0 c 1,4,-1
 223 0 l 1,5,-1
 223 276 l 1,6,-1
 545 276 l 1,7,-1
 545 53 l 2,8,9
 545 -80 545 -80 479 -205.5 c 128,-1,10
 413 -331 413 -331 349 -389 c 1,0,-1
EndSplineSet
EndChar

StartChar: hyphen
Encoding: 45 45 13
Width: 968
GlyphClass: 2
Flags: W
LayerCount: 2
Fore
SplineSet
132 494 m 1,0,-1
 132 642 l 1,1,-1
 836 642 l 1,2,-1
 836 494 l 1,3,-1
 132 494 l 1,0,-1
EndSplineSet
EndChar

StartChar: period
Encoding: 46 46 14
Width: 768
GlyphClass: 2
Flags: W
LayerCount: 2
Fore
SplineSet
235 0 m 1,0,-1
 235 284 l 1,1,-1
 533 284 l 1,2,-1
 533 0 l 1,3,-1
 235 0 l 1,0,-1
EndSplineSet
EndChar

StartChar: slash
Encoding: 47 47 15
Width: 1024
GlyphClass: 2
Flags: W
LayerCount: 2
Fore
SplineSet
106 0 m 1,0,-1
 675 1516 l 1,1,-1
 918 1516 l 1,2,-1
 349 0 l 1,3,-1
 106 0 l 1,0,-1
EndSplineSet
EndChar

StartChar: zero
Encoding: 48 48 16
Width: 1420
GlyphClass: 2
Flags: W
LayerCount: 2
Fore
SplineSet
703.5 -27 m 0,0,1
 574 -27 574 -27 462 17 c 128,-1,2
 350 61 350 61 283.5 136 c 0,3,4
 150 286.563909774 150 286.563909774 150 498 c 2,5,-1
 150 971 l 2,6,7
 150 1244.7751938 150 1244.7751938 342.5 1394 c 0,8,9
 483.11 1503 483.11 1503 719 1503 c 0,10,11
 1051 1503 1051 1503 1191 1273 c 0,12,13
 1270 1143.21428571 1270 1143.21428571 1270 967 c 2,14,-1
 1270 502 l 2,15,16
 1270 332.858823529 1270 332.858823529 1188.5 201.5 c 0,17,18
 1046.72992701 -27 1046.72992701 -27 703.5 -27 c 0,0,1
719 198 m 0,19,20
 887.6 198 887.6 198 950.5 334 c 0,21,22
 982 402.108108108 982 402.108108108 982 493 c 2,23,-1
 982 979 l 2,24,25
 982 1091.11111111 982 1091.11111111 933 1175.5 c 0,26,27
 874.064516129 1277 874.064516129 1277 709.186579052 1277 c 128,-1,28
 544.308641975 1277 544.308641975 1277 481.5 1139.5 c 0,29,30
 450 1070.54054054 450 1070.54054054 450 979 c 2,31,-1
 450 493 l 2,32,33
 450 347 450 347 524.5 272.5 c 128,-1,34
 599 198 599 198 719 198 c 0,19,20
EndSplineSet
EndChar

StartChar: one
Encoding: 49 49 17
Width: 1420
GlyphClass: 2
Flags: W
LayerCount: 2
Fore
SplineSet
203 0 m 1,0,-1
 203 209 l 1,1,-1
 635 209 l 1,2,-1
 635 1241 l 1,3,-1
 225 1187 l 1,4,-1
 199 1404 l 1,5,-1
 727 1476 l 1,6,-1
 932 1476 l 1,7,-1
 932 209 l 1,8,-1
 1311 209 l 1,9,-1
 1311 0 l 1,10,-1
 203 0 l 1,0,-1
EndSplineSet
EndChar

StartChar: two
Encoding: 50 50 18
Width: 1420
GlyphClass: 2
Flags: W
LayerCount: 2
Fore
SplineSet
955.017565366 1068.70765764 m 0,0,1
 955.017565366 1279 955.017565366 1279 727 1279 c 0,2,3
 584 1279 584 1279 525.5 1215.5 c 128,-1,4
 467 1152 467 1152 467 992 c 1,5,-1
 162 992 l 1,6,7
 162 1259 162 1259 290 1381 c 128,-1,8
 418 1503 418 1503 714 1503 c 0,9,10
 1109.75324675 1503 1109.75324675 1503 1213 1238 c 0,11,12
 1243 1161 1243 1161 1243 1067 c 0,13,14
 1243 913 1243 913 1171 798 c 128,-1,15
 1099 683 1099 683 936 544 c 2,16,-1
 566 227 l 1,17,-1
 1218 227 l 1,18,-1
 1218 0 l 1,19,-1
 245 0 l 1,20,-1
 209 226 l 1,21,-1
 756 719 l 2,22,23
 872 823 872 823 913.5 896 c 128,-1,24
 955.017565366 969.030898113 955.017565366 969.030898113 955.017565366 1068.70765764 c 0,0,1
EndSplineSet
EndChar

StartChar: three
Encoding: 51 51 19
Width: 1420
GlyphClass: 2
Flags: W
LayerCount: 2
Fore
SplineSet
715 198 m 0,0,1
 978 198 978 198 978 425.5 c 0,2,3
 978 533 978 533 950.5 583 c 128,-1,4
 923 633 923 633 854 655.5 c 128,-1,5
 785 678 785 678 654 678 c 1,6,-1
 654 877 l 1,7,8
 895.25 877 895.25 877 941.5 951 c 0,9,10
 970 996.6 970 996.6 970 1090.3 c 128,-1,11
 970 1184 970 1184 913 1231.5 c 128,-1,12
 856 1279 856 1279 712 1279 c 128,-1,13
 568 1279 568 1279 511.5 1225.5 c 128,-1,14
 455 1172 455 1172 456 1033 c 1,15,-1
 188 1033 l 1,16,17
 190.002798661 1293.36382593 190.002798661 1293.36382593 328.127567555 1398.18191297 c 128,-1,18
 466.252336449 1503 466.252336449 1503 710.626168224 1503 c 128,-1,19
 955 1503 955 1503 1101 1396.5 c 128,-1,20
 1247 1290 1247 1290 1247 1101 c 0,21,22
 1247 948.75 1247 948.75 1188.90969163 876.137114537 c 128,-1,23
 1130.81938326 803.524229075 1130.81938326 803.524229075 1023 780 c 1,24,25
 1260 716 1260 716 1260 426 c 0,26,27
 1260 225.031746032 1260 225.031746032 1131.9516129 99.0158730159 c 128,-1,28
 1003.90322581 -27 1003.90322581 -27 724.951612903 -27 c 128,-1,29
 446 -27 446 -27 317 91.5 c 128,-1,30
 188 210 188 210 182 436 c 1,31,-1
 450 436 l 1,32,33
 452 300 452 300 513.5 249 c 128,-1,34
 575 198 575 198 715 198 c 0,0,1
EndSplineSet
EndChar

StartChar: four
Encoding: 52 52 20
Width: 1420
GlyphClass: 2
Flags: W
LayerCount: 2
Fore
SplineSet
839 0 m 1,0,-1
 839 282 l 1,1,-1
 170 282 l 1,2,-1
 170 531 l 1,3,-1
 619 1476 l 1,4,-1
 924 1476 l 1,5,-1
 494 528 l 1,6,-1
 839 528 l 1,7,-1
 839 862 l 1,8,-1
 1076 862 l 1,9,-1
 1076 528 l 1,10,-1
 1296 528 l 1,11,-1
 1296 282 l 1,12,-1
 1076 282 l 1,13,-1
 1076 0 l 1,14,-1
 839 0 l 1,0,-1
EndSplineSet
EndChar

StartChar: five
Encoding: 53 53 21
Width: 1420
GlyphClass: 2
Flags: W
LayerCount: 2
Fore
SplineSet
511 860 m 1,0,1
 597.170212766 950 597.170212766 950 809.585106383 950 c 128,-1,2
 1022 950 1022 950 1152.5 812 c 128,-1,3
 1283 674 1283 674 1283 459 c 128,-1,4
 1283 244 1283 244 1132 108.5 c 128,-1,5
 981 -27 981 -27 726 -27 c 0,6,7
 569 -27 569 -27 419 19 c 128,-1,8
 269 65 269 65 195 119 c 1,9,-1
 274 318 l 1,10,11
 478 196 478 196 710 196 c 0,12,13
 992 196 992 196 993 465 c 1,14,-1
 993 466 l 2,15,16
 993 573 993 573 924.5 636.5 c 128,-1,17
 856 700 856 700 751 700 c 0,18,19
 570 700 570 700 461 597 c 1,20,-1
 247 704 l 1,21,-1
 328 1476 l 1,22,-1
 1170 1476 l 1,23,-1
 1170 1230 l 1,24,-1
 552 1230 l 1,25,-1
 511 860 l 1,0,1
EndSplineSet
EndChar

StartChar: six
Encoding: 54 54 22
Width: 1420
GlyphClass: 2
Flags: W
LayerCount: 2
Fore
SplineSet
747 720 m 0,0,1
 498 720 498 720 498 456.5 c 128,-1,2
 498 193 498 193 751.5 193 c 128,-1,3
 1005 193 1005 193 1005 454 c 0,4,5
 1005 583 1005 583 945 651.5 c 128,-1,6
 885 720 885 720 747 720 c 0,0,1
637 904 m 1,7,8
 724.75 930 724.75 930 793 930 c 0,9,10
 1037 930 1037 930 1157.5 817 c 128,-1,11
 1278 704 1278 704 1278 448 c 128,-1,12
 1278 192 1278 192 1146 83 c 128,-1,13
 1014 -26 1014 -26 738.5 -26 c 128,-1,14
 463 -26 463 -26 338.5 89 c 128,-1,15
 214 204 214 204 214 455.5 c 128,-1,16
 214 707 214 707 349 965 c 1,17,-1
 639 1477 l 1,18,-1
 959 1477 l 1,19,-1
 637 904 l 1,7,8
EndSplineSet
EndChar

StartChar: seven
Encoding: 55 55 23
Width: 1420
GlyphClass: 2
Flags: W
LayerCount: 2
Fore
SplineSet
360 0 m 1,0,-1
 904 1244 l 1,1,-1
 230 1244 l 1,2,-1
 230 1476 l 1,3,-1
 1228 1476 l 1,4,-1
 1228 1270 l 1,5,-1
 674 0 l 1,6,-1
 360 0 l 1,0,-1
EndSplineSet
EndChar

StartChar: eight
Encoding: 56 56 24
Width: 1420
GlyphClass: 2
Flags: W
LayerCount: 2
Fore
SplineSet
944 1126 m 0,0,1
 944 1296 944 1296 707.5 1296 c 128,-1,2
 471 1296 471 1296 471 1126 c 0,3,4
 471 1047 471 1047 524 993 c 128,-1,5
 577 939 577 939 708 876 c 1,6,7
 834 939 834 939 889 995 c 128,-1,8
 944 1051 944 1051 944 1126 c 0,0,1
709 187 m 0,9,10
 853 187 853 187 916 241 c 128,-1,11
 979 295 979 295 979 381.5 c 128,-1,12
 979 468 979 468 913 537.5 c 128,-1,13
 847 607 847 607 708 672 c 1,14,15
 569 607 569 607 503 537.5 c 128,-1,16
 437 468 437 468 437 385 c 0,17,18
 437 187 437 187 709 187 c 0,9,10
924 783 m 1,19,20
 1256 662.625730994 1256 662.625730994 1256 368 c 0,21,22
 1256 177 1256 177 1114 75.5 c 128,-1,23
 972 -26 972 -26 711.5 -26 c 128,-1,24
 451 -26 451 -26 307.5 77.5 c 128,-1,25
 164 181 164 181 164 366 c 0,26,27
 164 646 164 646 477 783 c 1,28,29
 191 886 191 886 191 1141 c 0,30,31
 191 1298.63934426 191 1298.63934426 315.66 1400.81967213 c 128,-1,32
 440.32 1503 440.32 1503 709 1503 c 0,33,34
 1093.97674419 1503 1093.97674419 1503 1191 1279.5 c 0,35,36
 1219 1215 1219 1215 1219 1117 c 128,-1,37
 1219 1019 1219 1019 1145.5 924.5 c 128,-1,38
 1072 830 1072 830 924 783 c 1,19,20
EndSplineSet
EndChar

StartChar: nine
Encoding: 57 57 25
Width: 1420
GlyphClass: 2
Flags: W
LayerCount: 2
Fore
SplineSet
520.5 844 m 128,-1,1
 576 789 576 789 713.5 789 c 128,-1,2
 851 789 851 789 901.5 845.5 c 128,-1,3
 952 902 952 902 952 1045.5 c 128,-1,4
 952 1189 952 1189 902.5 1239 c 128,-1,5
 853 1289 853 1289 714.5 1289 c 128,-1,6
 576 1289 576 1289 520.5 1236.5 c 128,-1,7
 465 1184 465 1184 465 1041.5 c 128,-1,0
 465 899 465 899 520.5 844 c 128,-1,1
821 589 m 1,8,9
 758.5 569 758.5 569 652.75 569 c 0,10,11
 428.290909091 569 428.290909091 569 304.145454545 674.860465116 c 128,-1,12
 180 780.720930233 180 780.720930233 180 1037.36046512 c 128,-1,13
 180 1294 180 1294 311 1398.5 c 128,-1,14
 442 1503 442 1503 719.5 1503 c 128,-1,15
 997 1503 997 1503 1120.5 1392.5 c 128,-1,16
 1244 1282 1244 1282 1244 1034 c 128,-1,17
 1244 786 1244 786 1109 528 c 1,18,-1
 819 0 l 1,19,-1
 499 0 l 1,20,-1
 821 589 l 1,8,9
EndSplineSet
EndChar

StartChar: colon
Encoding: 58 58 26
Width: 769
GlyphClass: 2
Flags: W
LayerCount: 2
Fore
SplineSet
241 197 m 1,0,-1
 241 481 l 1,1,-1
 539 481 l 1,2,-1
 539 197 l 1,3,-1
 241 197 l 1,0,-1
241 854 m 1,4,-1
 241 1138 l 1,5,-1
 539 1138 l 1,6,-1
 539 854 l 1,7,-1
 241 854 l 1,4,-1
EndSplineSet
EndChar

StartChar: semicolon
Encoding: 59 59 27
Width: 769
GlyphClass: 2
Flags: W
LayerCount: 2
Fore
SplineSet
363 -191 m 1,0,-1
 256 -145 l 1,1,2
 307 -87 307 -87 354.5 9.5 c 128,-1,3
 402 106 402 106 402 198 c 1,4,-1
 237 198 l 1,5,-1
 237 474 l 1,6,-1
 559 474 l 1,7,-1
 559 251 l 2,8,9
 559 118 559 118 493 -7.5 c 128,-1,10
 427 -133 427 -133 363 -191 c 1,0,-1
241 854 m 1,11,-1
 241 1138 l 1,12,-1
 539 1138 l 1,13,-1
 539 854 l 1,14,-1
 241 854 l 1,11,-1
EndSplineSet
EndChar

StartChar: less
Encoding: 60 60 28
Width: 1024
GlyphClass: 2
Flags: W
LayerCount: 2
Fore
SplineSet
856 31 m 1,0,-1
 112 445 l 1,1,-1
 112 664 l 1,2,-1
 856 1081 l 1,3,-1
 856 850 l 1,4,-1
 293 556 l 1,5,-1
 856 262 l 1,6,-1
 856 31 l 1,0,-1
EndSplineSet
EndChar

StartChar: equal
Encoding: 61 61 29
Width: 880
GlyphClass: 2
Flags: W
LayerCount: 2
Fore
SplineSet
112 740 m 1,0,-1
 112 913 l 1,1,-1
 768 913 l 1,2,-1
 768 740 l 1,3,-1
 112 740 l 1,0,-1
112 371 m 1,4,-1
 112 544 l 1,5,-1
 768 544 l 1,6,-1
 768 371 l 1,7,-1
 112 371 l 1,4,-1
EndSplineSet
EndChar

StartChar: greater
Encoding: 62 62 30
Width: 1024
GlyphClass: 2
Flags: W
LayerCount: 2
Fore
SplineSet
152 31 m 1,0,-1
 152 260 l 1,1,-1
 715 556 l 1,2,-1
 152 848 l 1,3,-1
 152 1081 l 1,4,-1
 896 665 l 1,5,-1
 896 446 l 1,6,-1
 152 31 l 1,0,-1
EndSplineSet
EndChar

StartChar: question
Encoding: 63 63 31
Width: 1244
GlyphClass: 2
Flags: W
LayerCount: 2
Fore
SplineSet
429 0 m 1,0,-1
 429 245 l 1,1,-1
 678 245 l 1,2,-1
 678 0 l 1,3,-1
 429 0 l 1,0,-1
445 431 m 1,4,-1
 693 740 l 2,5,6
 826 907.148648649 826 907.148648649 826 1019.75432432 c 128,-1,7
 826 1132.36 826 1132.36 810 1172.68 c 128,-1,8
 794 1213 794 1213 772.5 1233 c 0,9,10
 723.05 1279 723.05 1279 620.637903226 1279 c 128,-1,11
 518.225806452 1279 518.225806452 1279 484.112903226 1256.5 c 128,-1,12
 450 1234 450 1234 436 1216.5 c 0,13,14
 404 1176.5 404 1176.5 404 1047 c 2,15,-1
 404 962 l 1,16,-1
 130 962 l 1,17,-1
 130 1036 l 2,18,19
 130 1242.36363636 130 1242.36363636 184.262893983 1331.15746288 c 128,-1,20
 238.525787966 1419.9512894 238.525787966 1419.9512894 341.862893983 1460.4756447 c 128,-1,21
 445.2 1501 445.2 1501 577.1 1501 c 128,-1,22
 709 1501 709 1501 781.5 1488.5 c 0,23,24
 920.734028683 1464.49413299 920.734028683 1464.49413299 994.123623984 1400.76106338 c 128,-1,25
 1067.51321928 1337.02799378 1067.51321928 1337.02799378 1092.75660964 1254.08542546 c 128,-1,26
 1118 1171.14285714 1118 1171.14285714 1118 1044.07142857 c 128,-1,27
 1118 917 1118 917 1057 807.5 c 128,-1,28
 996 698 996 698 856 582 c 2,29,-1
 674 431 l 1,30,-1
 445 431 l 1,4,-1
EndSplineSet
EndChar

StartChar: at
Encoding: 64 64 32
Width: 2048
GlyphClass: 2
Flags: W
LayerCount: 2
Fore
SplineSet
1209 666 m 0,0,1
 1076 630 1076 630 1029.22704082 578.795918367 c 128,-1,2
 982.454081633 527.591836735 982.454081633 527.591836735 982.454081633 438.856826802 c 128,-1,3
 982.454081633 350.121816868 982.454081633 350.121816868 1039.72704082 308.560908434 c 128,-1,4
 1097 267 1097 267 1188.5 267 c 128,-1,5
 1280 267 1280 267 1382.5 303 c 128,-1,6
 1485 339 1485 339 1492 377 c 1,7,-1
 1492 744 l 1,8,9
 1489 742 1489 742 1369 709 c 128,-1,10
 1249 676 1249 676 1209 666 c 0,0,1
1084 -477 m 0,11,12
 240 -477 240 -477 240 348 c 2,13,-1
 240 770 l 2,14,15
 240 1147 240 1147 423.5 1335 c 128,-1,16
 607 1523 607 1523 1019.88461538 1523 c 128,-1,17
 1432.76923077 1523 1432.76923077 1523 1595.88461538 1371.53571429 c 128,-1,18
 1759 1220.07142857 1759 1220.07142857 1759 863 c 1,19,-1
 1761 394 l 2,20,21
 1761 315 1761 315 1780 287 c 128,-1,22
 1799 259 1799 259 1868 259 c 1,23,-1
 1848 59 l 1,24,-1
 1742 59 l 2,25,26
 1617.88888889 59 1617.88888889 59 1566.5 121.5 c 0,27,28
 1541.12959381 152.35589942 1541.12959381 152.35589942 1516 208 c 1,29,30
 1468 141 1468 141 1361 97 c 128,-1,31
 1254 53 1254 53 1136 53 c 0,32,33
 962 53 962 53 845.5 153 c 128,-1,34
 729 253 729 253 729 428 c 0,35,36
 729 530.9 729 530.9 761.5 587.45 c 128,-1,37
 794 644 794 644 838.5 678.5 c 0,38,39
 937.485275819 755.241393613 937.485275819 755.241393613 1141 809 c 1,40,-1
 1491 895 l 1,41,42
 1491 1103.04878049 1491 1103.04878049 1441.62389184 1180.12368102 c 128,-1,43
 1392.24778369 1257.19858156 1392.24778369 1257.19858156 1302.95201684 1288.59929078 c 128,-1,44
 1213.65625 1320 1213.65625 1320 1093.828125 1320 c 128,-1,45
 974 1320 974 1320 910.5 1314.5 c 0,46,47
 759.924700321 1301.45804491 759.924700321 1301.45804491 670.434078957 1244.60517957 c 128,-1,48
 580.943457593 1187.75231424 580.943457593 1187.75231424 537.971728797 1068.60342985 c 128,-1,49
 495 949.454545455 495 949.454545455 495 741 c 2,50,-1
 495 363 l 2,51,52
 495 -41.9811320755 495 -41.9811320755 744.5 -178.5 c 0,53,54
 886.137931034 -256 886.137931034 -256 1085.70689655 -256 c 128,-1,55
 1285.27586207 -256 1285.27586207 -256 1429.13793103 -228 c 128,-1,56
 1573 -200 1573 -200 1635 -187 c 128,-1,57
 1697 -174 1697 -174 1707 -172 c 1,58,-1
 1765 -375 l 1,59,60
 1376 -477 1376 -477 1084 -477 c 0,11,12
EndSplineSet
EndChar

StartChar: A
Encoding: 65 65 33
Width: 1512
GlyphClass: 2
Flags: W
LayerCount: 2
Fore
SplineSet
525 479 m 1,0,-1
 987 479 l 1,1,-1
 760 1255 l 1,2,-1
 525 479 l 1,0,-1
70 0 m 1,3,-1
 556 1476 l 1,4,-1
 950 1476 l 1,5,-1
 1442 0 l 1,6,-1
 1127 0 l 1,7,-1
 1044 281 l 1,8,-1
 466 281 l 1,9,-1
 380 0 l 1,10,-1
 70 0 l 1,3,-1
EndSplineSet
EndChar

StartChar: B
Encoding: 66 66 34
Width: 1456
GlyphClass: 2
Flags: W
LayerCount: 2
Fore
SplineSet
487 882 m 1,0,-1
 794 882 l 2,1,2
 936.214285714 882 936.214285714 882 963 957 c 0,3,4
 978 999 978 999 978 1082.5 c 128,-1,5
 978 1166 978 1166 959.5 1204 c 128,-1,6
 941 1242 941 1242 892 1257.5 c 128,-1,7
 843 1273 843 1273 739 1273 c 2,8,-1
 487 1273 l 1,9,-1
 487 882 l 1,0,-1
487 208 m 1,10,-1
 775 208 l 2,11,12
 865 208 865 208 915.5 217 c 128,-1,13
 966 226 966 226 997.5 255 c 128,-1,14
 1029 284 1029 284 1038.5 329 c 128,-1,15
 1048 374 1048 374 1048 439.5 c 128,-1,16
 1048 505 1048 505 1044 538 c 0,17,18
 1033.77603143 622.347740668 1033.77603143 622.347740668 981.041861871 662.673870334 c 128,-1,19
 928.307692308 703 928.307692308 703 805 703 c 2,20,-1
 487 703 l 1,21,-1
 487 208 l 1,10,-1
190 0 m 1,22,-1
 190 1476 l 1,23,-1
 758 1476 l 2,24,25
 1063.35 1476 1063.35 1476 1174.5 1381 c 0,26,27
 1233 1331 1233 1331 1256.75510204 1262.20918367 c 128,-1,28
 1280.51020408 1193.41836735 1280.51020408 1193.41836735 1280.51020408 1080.1418884 c 128,-1,29
 1280.51020408 966.865409455 1280.51020408 966.865409455 1240.75510204 899.432704727 c 128,-1,30
 1201 832 1201 832 1092 804 c 1,31,32
 1240.31081081 784.225225225 1240.31081081 784.225225225 1292.15540541 692.057057057 c 128,-1,33
 1344 599.888888889 1344 599.888888889 1344 448 c 0,34,35
 1344.19607843 438.901960784 1344.19607843 438.901960784 1344.19607843 429.994617455 c 0,36,37
 1344.19607843 211.764705882 1344.19607843 211.764705882 1224.09803922 105.882352941 c 128,-1,38
 1104 0 1104 0 830 0 c 2,39,-1
 190 0 l 1,22,-1
EndSplineSet
EndChar

StartChar: C
Encoding: 67 67 35
Width: 1490
GlyphClass: 2
Flags: W
LayerCount: 2
Fore
SplineSet
514 0 m 128,-1,1
 402 26 402 26 334.5 69 c 128,-1,2
 267 112 267 112 227 179.5 c 128,-1,3
 187 247 187 247 173.5 318 c 128,-1,4
 160 389 160 389 160 484 c 2,5,-1
 160 977 l 2,6,7
 160 1240.74444444 160 1240.74444444 267.097269625 1346.65174441 c 128,-1,8
 374.194539249 1452.55904437 374.194539249 1452.55904437 551 1483.5 c 0,9,10
 651 1501 651 1501 777 1501 c 0,11,12
 1233.58064516 1501 1233.58064516 1501 1322.3508103 1250.82953462 c 0,13,14
 1362 1139.09090909 1362 1139.09090909 1362 983 c 2,15,-1
 1362 965 l 1,16,-1
 1071 931 l 1,17,-1
 1071 1006 l 2,18,19
 1071 1160 1071 1160 1010.5 1214 c 128,-1,20
 950 1268 950 1268 779 1268 c 128,-1,21
 608 1268 608 1268 532.5 1213.5 c 128,-1,22
 457 1159 457 1159 457 1012 c 2,23,-1
 457 454 l 2,24,25
 457 305.505882353 457 305.505882353 534.527777778 256.252941176 c 128,-1,26
 612.055555556 207 612.055555556 207 781 207 c 0,27,28
 870 207 870 207 922 216.5 c 128,-1,29
 974 226 974 226 1009.5 255 c 128,-1,30
 1045 284 1045 284 1058 332 c 128,-1,31
 1071 380 1071 380 1071 460 c 2,32,-1
 1071 507 l 1,33,-1
 1362 507 l 1,34,-1
 1362 480 l 2,35,36
 1362 260.886792453 1362 260.886792453 1297.49067937 163.514233012 c 128,-1,37
 1232.98135874 66.1416735708 1232.98135874 66.1416735708 1111.7950272 20.0708367854 c 128,-1,38
 990.608695652 -26 990.608695652 -26 808.304347826 -26 c 128,-1,0
 626 -26 626 -26 514 0 c 128,-1,1
EndSplineSet
EndChar

StartChar: D
Encoding: 68 68 36
Width: 1534
GlyphClass: 2
Flags: W
LayerCount: 2
Fore
SplineSet
190 0 m 1,0,-1
 190 1476 l 1,1,-1
 830 1476 l 2,2,3
 1184.21052632 1476 1184.21052632 1476 1305.5 1266.5 c 0,4,5
 1374 1148.18181818 1374 1148.18181818 1374 961 c 2,6,-1
 1374 508 l 2,7,8
 1374 134.296296296 1374 134.296296296 1090 37 c 0,9,10
 982 0 982 0 831 0 c 2,11,-1
 190 0 l 1,0,-1
487 231 m 1,12,-1
 805 231 l 2,13,14
 957 231 957 231 1017 287 c 128,-1,15
 1077 343 1077 343 1077 470 c 2,16,-1
 1077 1000 l 2,17,18
 1077 1125 1077 1125 1015.5 1185 c 128,-1,19
 954 1245 954 1245 805 1245 c 2,20,-1
 487 1245 l 1,21,-1
 487 231 l 1,12,-1
EndSplineSet
EndChar

StartChar: E
Encoding: 69 69 37
Width: 1294
GlyphClass: 2
Flags: W
LayerCount: 2
Fore
SplineSet
190 0 m 1,0,-1
 190 1476 l 1,1,-1
 1157 1476 l 1,2,-1
 1157 1252 l 1,3,-1
 486 1252 l 1,4,-1
 486 860 l 1,5,-1
 1081 860 l 1,6,-1
 1081 646 l 1,7,-1
 486 646 l 1,8,-1
 486 224 l 1,9,-1
 1168 224 l 1,10,-1
 1168 0 l 1,11,-1
 190 0 l 1,0,-1
EndSplineSet
EndChar

StartChar: F
Encoding: 70 70 38
Width: 1173
GlyphClass: 2
Flags: W
LayerCount: 2
Fore
SplineSet
190 0 m 1,0,-1
 190 1476 l 1,1,-1
 1083 1476 l 1,2,-1
 1083 1249 l 1,3,-1
 487 1249 l 1,4,-1
 487 847 l 1,5,-1
 1042 847 l 1,6,-1
 1042 634 l 1,7,-1
 487 634 l 1,8,-1
 487 0 l 1,9,-1
 190 0 l 1,0,-1
EndSplineSet
EndChar

StartChar: G
Encoding: 71 71 39
Width: 1607
GlyphClass: 2
Flags: W
LayerCount: 2
Fore
SplineSet
975.5 -9.5 m 128,-1,1
 903 -26 903 -26 781 -26 c 128,-1,2
 659 -26 659 -26 543.5 -0.5 c 0,3,4
 326.959555454 47.3076306141 326.959555454 47.3076306141 243.479777727 172.058309689 c 128,-1,5
 160 296.808988764 160 296.808988764 160 484 c 2,6,-1
 160 977 l 2,7,8
 160 1281.75 160 1281.75 354 1403 c 0,9,10
 510.8 1501 510.8 1501 813 1501 c 0,11,12
 1296.66666667 1501 1296.66666667 1501 1387.5 1228.5 c 0,13,14
 1418 1137 1418 1137 1418 1007 c 2,15,-1
 1418 984 l 1,16,-1
 1126 962 l 1,17,-1
 1126 1021 l 2,18,19
 1126 1165 1126 1165 1056 1216.5 c 128,-1,20
 986 1268 986 1268 810.5 1268 c 128,-1,21
 635 1268 635 1268 546.5 1212 c 128,-1,22
 458 1156 458 1156 458 1012 c 2,23,-1
 458 454 l 2,24,25
 458 306.680412371 458 306.680412371 549.216981132 256.840206186 c 128,-1,26
 640.433962264 207 640.433962264 207 813.411425577 207 c 128,-1,27
 986.388888889 207 986.388888889 207 1068.69444444 256.938202247 c 128,-1,28
 1151 306.876404494 1151 306.876404494 1151 454 c 2,29,-1
 1151 562 l 1,30,-1
 853 562 l 1,31,-1
 853 757 l 1,32,-1
 1419 757 l 1,33,-1
 1419 0 l 1,34,-1
 1262 0 l 1,35,-1
 1215 170 l 1,36,37
 1201.91646192 126.388206388 1201.91646192 126.388206388 1165.45823096 88.6941031941 c 128,-1,38
 1129 51 1129 51 1088.5 29 c 128,-1,0
 1048 7 1048 7 975.5 -9.5 c 128,-1,1
EndSplineSet
EndChar

StartChar: H
Encoding: 72 72 40
Width: 1624
GlyphClass: 2
Flags: W
LayerCount: 2
Fore
SplineSet
190 0 m 1,0,-1
 190 1476 l 1,1,-1
 488 1476 l 1,2,-1
 488 848 l 1,3,-1
 1136 848 l 1,4,-1
 1136 1476 l 1,5,-1
 1434 1476 l 1,6,-1
 1434 0 l 1,7,-1
 1136 0 l 1,8,-1
 1136 615 l 1,9,-1
 488 615 l 1,10,-1
 488 0 l 1,11,-1
 190 0 l 1,0,-1
EndSplineSet
EndChar

StartChar: I
Encoding: 73 73 41
Width: 1148
GlyphClass: 2
Flags: W
LayerCount: 2
Fore
SplineSet
158 0 m 1,0,-1
 158 222 l 1,1,-1
 427 222 l 1,2,-1
 427 1255 l 1,3,-1
 158 1255 l 1,4,-1
 158 1476 l 1,5,-1
 990 1476 l 1,6,-1
 990 1255 l 1,7,-1
 723 1255 l 1,8,-1
 723 222 l 1,9,-1
 990 222 l 1,10,-1
 990 0 l 1,11,-1
 158 0 l 1,0,-1
EndSplineSet
EndChar

StartChar: J
Encoding: 74 74 42
Width: 1222
GlyphClass: 2
Flags: W
LayerCount: 2
Fore
SplineSet
895 92.5 m 128,-1,1
 754 -25 754 -25 510 -25 c 128,-1,2
 266 -25 266 -25 70 67 c 1,3,-1
 139 287 l 1,4,5
 212 253 212 253 309.5 231 c 128,-1,6
 407 209 407 209 485 209 c 0,7,8
 617 209 617 209 678 273 c 128,-1,9
 739 337 739 337 739 441 c 2,10,-1
 739 1250 l 1,11,-1
 231 1250 l 1,12,-1
 231 1476 l 1,13,-1
 1036 1476 l 1,14,-1
 1036 422 l 2,15,0
 1036 210 1036 210 895 92.5 c 128,-1,1
EndSplineSet
EndChar

StartChar: K
Encoding: 75 75 43
Width: 1448
GlyphClass: 2
Flags: W
LayerCount: 2
Fore
SplineSet
190 0 m 1,0,-1
 190 1476 l 1,1,-1
 487 1476 l 1,2,-1
 487 760 l 1,3,-1
 1061 1476 l 1,4,-1
 1389 1476 l 1,5,-1
 872 804 l 1,6,-1
 1426 0 l 1,7,-1
 1091 0 l 1,8,-1
 626 679 l 1,9,-1
 487 541 l 1,10,-1
 487 0 l 1,11,-1
 190 0 l 1,0,-1
EndSplineSet
EndChar

StartChar: L
Encoding: 76 76 44
Width: 1172
GlyphClass: 2
Flags: W
LayerCount: 2
Fore
SplineSet
190 0 m 1,0,-1
 190 1476 l 1,1,-1
 487 1476 l 1,2,-1
 487 232 l 1,3,-1
 1104 232 l 1,4,-1
 1104 0 l 1,5,-1
 190 0 l 1,0,-1
EndSplineSet
EndChar

StartChar: M
Encoding: 77 77 45
Width: 1874
GlyphClass: 2
Flags: W
LayerCount: 2
Fore
SplineSet
190 0 m 1,0,-1
 190 1476 l 1,1,-1
 517 1476 l 1,2,-1
 937 761 l 1,3,-1
 1351 1476 l 1,4,-1
 1684 1476 l 1,5,-1
 1684 0 l 1,6,-1
 1406 0 l 1,7,-1
 1406 1091 l 1,8,-1
 1037 429 l 1,9,-1
 838 429 l 1,10,-1
 468 1087 l 1,11,-1
 468 0 l 1,12,-1
 190 0 l 1,0,-1
EndSplineSet
EndChar

StartChar: N
Encoding: 78 78 46
Width: 1634
GlyphClass: 2
Flags: W
LayerCount: 2
Fore
SplineSet
190 0 m 1,0,-1
 190 1476 l 1,1,-1
 413 1476 l 1,2,-1
 1180 464 l 1,3,-1
 1180 1476 l 1,4,-1
 1444 1476 l 1,5,-1
 1444 0 l 1,6,-1
 1221 0 l 1,7,-1
 457 996 l 1,8,-1
 457 0 l 1,9,-1
 190 0 l 1,0,-1
EndSplineSet
EndChar

StartChar: O
Encoding: 79 79 47
Width: 1606
GlyphClass: 2
Flags: W
LayerCount: 2
Fore
SplineSet
810.5 -26 m 0,0,1
 376.804347826 -26 376.804347826 -26 237.5 190 c 0,2,3
 160 310.168539326 160 310.168539326 160 501 c 2,4,-1
 160 963 l 2,5,6
 160 1273.85416667 160 1273.85416667 353 1398.5 c 0,7,8
 511.709677419 1501 511.709677419 1501 814 1501 c 0,9,10
 1234.52054795 1501 1234.52054795 1501 1370 1271 c 0,11,12
 1446 1141.97674419 1446 1141.97674419 1446 948 c 2,13,-1
 1446 517 l 2,14,15
 1446 214.604316547 1446 214.604316547 1256.5 81 c 0,16,17
 1104.73469388 -26 1104.73469388 -26 810.5 -26 c 0,0,1
547 265 m 128,-1,19
 636 207 636 207 812.5 207 c 128,-1,20
 989 207 989 207 1068.5 264.5 c 128,-1,21
 1148 322 1148 322 1148 468 c 2,22,-1
 1148 1003 l 2,23,24
 1148 1147 1148 1147 1067 1207.5 c 128,-1,25
 986 1268 986 1268 812.5 1268 c 128,-1,26
 639 1268 639 1268 548.5 1208 c 128,-1,27
 458 1148 458 1148 458 1003 c 2,28,-1
 458 468 l 2,29,18
 458 323 458 323 547 265 c 128,-1,19
EndSplineSet
EndChar

StartChar: P
Encoding: 80 80 48
Width: 1336
GlyphClass: 2
Flags: W
LayerCount: 2
Fore
SplineSet
487 726 m 1,0,-1
 787 726 l 2,1,2
 895 726 895 726 933.5 787.5 c 128,-1,3
 972 849 972 849 972 990 c 0,4,5
 972 1192.37142857 972 1192.37142857 883 1244.5 c 0,6,7
 848 1265 848 1265 797 1265 c 2,8,-1
 487 1265 l 1,9,-1
 487 726 l 1,0,-1
190 0 m 1,10,-1
 190 1476 l 1,11,-1
 769 1476 l 2,12,13
 1016 1476 1016 1476 1133 1364 c 128,-1,14
 1250 1252 1250 1252 1250 998.785714286 c 128,-1,15
 1250 745.571428571 1250 745.571428571 1137.392 627.285714286 c 128,-1,16
 1024.784 509 1024.784 509 740 509 c 2,17,-1
 487 509 l 1,18,-1
 487 0 l 1,19,-1
 190 0 l 1,10,-1
EndSplineSet
EndChar

StartChar: Q
Encoding: 81 81 49
Width: 1606
GlyphClass: 2
Flags: W
LayerCount: 2
Fore
SplineSet
547 264 m 128,-1,1
 636 206 636 206 812.5 206 c 128,-1,2
 989 206 989 206 1068.5 263.5 c 128,-1,3
 1148 321 1148 321 1148 467 c 2,4,-1
 1148 1002 l 2,5,6
 1148 1146 1148 1146 1067 1206.5 c 128,-1,7
 986 1267 986 1267 812.5 1267 c 128,-1,8
 639 1267 639 1267 548.5 1207 c 128,-1,9
 458 1147 458 1147 458 1002 c 2,10,-1
 458 467 l 2,11,0
 458 322 458 322 547 264 c 128,-1,1
1010 -534 m 1,12,-1
 688 -22 l 1,13,14
 241.358365019 14.019486692 241.358365019 14.019486692 174 346 c 0,15,16
 160 415 160 415 160 500 c 2,17,-1
 160 962 l 2,18,19
 160 1272.85416667 160 1272.85416667 353 1397.5 c 0,20,21
 511.709677419 1500 511.709677419 1500 814 1500 c 0,22,23
 1234.52054795 1500 1234.52054795 1500 1370 1270 c 0,24,25
 1446 1140.97674419 1446 1140.97674419 1446 947 c 2,26,-1
 1446 516 l 2,27,28
 1446 245.541284404 1446 245.541284404 1296.5 112.5 c 0,29,30
 1177.35297168 6.47007571829 1177.35297168 6.47007571829 954 -19 c 1,31,-1
 1199 -426 l 1,32,-1
 1010 -534 l 1,12,-1
EndSplineSet
EndChar

StartChar: R
Encoding: 82 82 50
Width: 1484
GlyphClass: 2
Flags: W
LayerCount: 2
Fore
SplineSet
487 795 m 1,0,-1
 852 795 l 2,1,2
 957 795 957 795 996.5 854.5 c 128,-1,3
 1036 914 1036 914 1036 1035.36486486 c 0,4,5
 1036 1265 1036 1265 864 1265 c 2,6,-1
 487 1265 l 1,7,-1
 487 795 l 1,0,-1
190 0 m 1,8,-1
 190 1476 l 1,9,-1
 827 1476 l 2,10,11
 1112.55371901 1476 1112.55371901 1476 1216.2768595 1359.79166667 c 128,-1,12
 1320 1243.58333333 1320 1243.58333333 1320 1045.49379433 c 128,-1,13
 1320 847.404255319 1320 847.404255319 1262.53168654 756.922229874 c 128,-1,14
 1205.06337308 666.440204429 1205.06337308 666.440204429 1103 626 c 1,15,-1
 1388 0 l 1,16,-1
 1080 0 l 1,17,-1
 821 583 l 1,18,-1
 487 583 l 1,19,-1
 487 0 l 1,20,-1
 190 0 l 1,8,-1
EndSplineSet
EndChar

StartChar: S
Encoding: 83 83 51
Width: 1281
GlyphClass: 2
Flags: W
LayerCount: 2
Fore
SplineSet
674 -26 m 0,0,1
 537 -26 537 -26 384 10 c 128,-1,2
 231 46 231 46 120 108 c 1,3,-1
 222 325 l 1,4,5
 444 207 444 207 681 207 c 0,6,7
 800 207 800 207 849.003442936 256.003442936 c 128,-1,8
 898.006885871 305.006885871 898.006885871 305.006885871 898.006885871 402.653145809 c 0,9,10
 898.006885871 421.927698353 898.006885871 421.927698353 894.39495237 459.85300012 c 0,11,12
 885.829750645 549.787618229 885.829750645 549.787618229 694 607 c 2,13,-1
 442 681 l 2,14,15
 326 715 326 715 256 778.5 c 128,-1,16
 186 842 186 842 161 917.5 c 128,-1,17
 136 993 136 993 136 1094 c 0,18,19
 136 1297.00719424 136 1297.00719424 280.668367347 1399.00359712 c 128,-1,20
 425.336734694 1501 425.336734694 1501 649 1501 c 0,21,22
 945 1501 945 1501 1143 1386 c 1,23,-1
 1059 1177 l 1,24,25
 866 1268 866 1268 675 1268 c 0,26,27
 435 1268 435 1268 428 1121 c 0,28,29
 427.632183908 1113.09195402 427.632183908 1113.09195402 427.632183908 1105.53904082 c 0,30,31
 427.632183908 1030.95402299 427.632183908 1030.95402299 465.316091954 988.977011494 c 128,-1,32
 503 947 503 947 619 912 c 2,33,-1
 870 837 l 2,34,35
 1022 791 1022 791 1095.5 692 c 128,-1,36
 1169 593 1169 593 1169 410.522123894 c 128,-1,37
 1169 228.044247788 1169 228.044247788 1052.30487805 101.022123894 c 128,-1,38
 935.609756098 -26 935.609756098 -26 674 -26 c 0,0,1
EndSplineSet
EndChar

StartChar: T
Encoding: 84 84 52
Width: 1194
GlyphClass: 2
Flags: W
LayerCount: 2
Fore
SplineSet
449 0 m 1,0,-1
 449 1250 l 1,1,-1
 38 1250 l 1,2,-1
 38 1476 l 1,3,-1
 1156 1476 l 1,4,-1
 1156 1250 l 1,5,-1
 745 1250 l 1,6,-1
 745 0 l 1,7,-1
 449 0 l 1,0,-1
EndSplineSet
EndChar

StartChar: U
Encoding: 85 85 53
Width: 1574
GlyphClass: 2
Flags: W
LayerCount: 2
Fore
SplineSet
794.5 -26 m 0,0,1
 378.255813953 -26 378.255813953 -26 249 172.5 c 0,2,3
 176 284.607142857 176 284.607142857 176 468 c 2,4,-1
 176 1477 l 1,5,-1
 473 1477 l 1,6,-1
 473 455 l 2,7,8
 473 316 473 316 552.5 261.5 c 128,-1,9
 632 207 632 207 795 207 c 128,-1,10
 958 207 958 207 1029.5 261 c 128,-1,11
 1101 315 1101 315 1101 455 c 2,12,-1
 1101 1477 l 1,13,-1
 1398 1477 l 1,14,-1
 1398 480 l 2,15,16
 1398 186.389312977 1398 186.389312977 1223.5 70.5 c 0,17,18
 1078.1954023 -26 1078.1954023 -26 794.5 -26 c 0,0,1
EndSplineSet
EndChar

StartChar: V
Encoding: 86 86 54
Width: 1484
GlyphClass: 2
Flags: W
LayerCount: 2
Fore
SplineSet
564 0 m 1,0,-1
 40 1476 l 1,1,-1
 358 1476 l 1,2,-1
 748 283 l 1,3,-1
 1126 1476 l 1,4,-1
 1444 1476 l 1,5,-1
 924 0 l 1,6,-1
 564 0 l 1,0,-1
EndSplineSet
EndChar

StartChar: W
Encoding: 87 87 55
Width: 1954
GlyphClass: 2
Flags: W
LayerCount: 2
Fore
SplineSet
423 0 m 1,0,-1
 40 1476 l 1,1,-1
 328 1476 l 1,2,-1
 583 455 l 1,3,-1
 842 1476 l 1,4,-1
 1093 1476 l 1,5,-1
 1389 466 l 1,6,-1
 1629 1476 l 1,7,-1
 1914 1476 l 1,8,-1
 1532 0 l 1,9,-1
 1283 0 l 1,10,-1
 973 1053 l 1,11,-1
 689 0 l 1,12,-1
 423 0 l 1,0,-1
EndSplineSet
EndChar

StartChar: X
Encoding: 88 88 56
Width: 1352
GlyphClass: 2
Flags: W
LayerCount: 2
Fore
SplineSet
38 0 m 1,0,-1
 513 748 l 1,1,-1
 50 1476 l 1,2,-1
 359 1476 l 1,3,-1
 669 997 l 1,4,-1
 969 1476 l 1,5,-1
 1297 1476 l 1,6,-1
 830 749 l 1,7,-1
 1314 0 l 1,8,-1
 987 0 l 1,9,-1
 669 501 l 1,10,-1
 348 0 l 1,11,-1
 38 0 l 1,0,-1
EndSplineSet
EndChar

StartChar: Y
Encoding: 89 89 57
Width: 1304
GlyphClass: 2
Flags: W
LayerCount: 2
Fore
SplineSet
509 0 m 1,0,-1
 509 567 l 1,1,-1
 0 1476 l 1,2,-1
 313 1476 l 1,3,-1
 659 859 l 1,4,-1
 1004 1476 l 1,5,-1
 1304 1476 l 1,6,-1
 805 567 l 1,7,-1
 805 0 l 1,8,-1
 509 0 l 1,0,-1
EndSplineSet
EndChar

StartChar: Z
Encoding: 90 90 58
Width: 1184
GlyphClass: 2
Flags: W
LayerCount: 2
Fore
SplineSet
126 0 m 1,0,-1
 126 177 l 1,1,-1
 746 1258 l 1,2,-1
 154 1258 l 1,3,-1
 154 1476 l 1,4,-1
 1090 1476 l 1,5,-1
 1090 1297 l 1,6,-1
 472 210 l 1,7,-1
 1102 210 l 1,8,-1
 1102 0 l 1,9,-1
 126 0 l 1,0,-1
EndSplineSet
EndChar

StartChar: bracketleft
Encoding: 91 91 59
Width: 842
GlyphClass: 2
Flags: W
LayerCount: 2
Fore
SplineSet
212 -89 m 1,0,-1
 212 1592 l 1,1,-1
 694 1592 l 1,2,-1
 694 1431 l 1,3,-1
 485 1431 l 1,4,-1
 485 72 l 1,5,-1
 694 72 l 1,6,-1
 694 -89 l 1,7,-1
 212 -89 l 1,0,-1
EndSplineSet
EndChar

StartChar: backslash
Encoding: 92 92 60
Width: 1024
GlyphClass: 2
Flags: W
LayerCount: 2
Fore
SplineSet
675 0 m 1,0,-1
 106 1516 l 1,1,-1
 349 1516 l 1,2,-1
 918 0 l 1,3,-1
 675 0 l 1,0,-1
EndSplineSet
EndChar

StartChar: bracketright
Encoding: 93 93 61
Width: 842
GlyphClass: 2
Flags: W
LayerCount: 2
Fore
SplineSet
146 -89 m 1,0,-1
 146 72 l 1,1,-1
 356 72 l 1,2,-1
 356 1431 l 1,3,-1
 146 1431 l 1,4,-1
 146 1592 l 1,5,-1
 628 1592 l 1,6,-1
 628 -89 l 1,7,-1
 146 -89 l 1,0,-1
EndSplineSet
EndChar

StartChar: asciicircum
Encoding: 94 94 62
Width: 1257
GlyphClass: 2
Flags: W
LayerCount: 2
Fore
SplineSet
80 511 m 1,0,-1
 486 1283 l 1,1,-1
 745 1283 l 1,2,-1
 1153 511 l 1,3,-1
 926 511 l 1,4,-1
 622 1112 l 1,5,-1
 317 511 l 1,6,-1
 80 511 l 1,0,-1
EndSplineSet
EndChar

StartChar: underscore
Encoding: 95 95 63
Width: 904
GlyphClass: 2
Flags: W
LayerCount: 2
Fore
SplineSet
8 -32 m 1,0,-1
 8 143 l 1,1,-1
 891 143 l 1,2,-1
 891 -32 l 1,3,-1
 8 -32 l 1,0,-1
EndSplineSet
EndChar

StartChar: grave
Encoding: 96 96 64
Width: 556
GlyphClass: 2
Flags: W
LayerCount: 2
Fore
SplineSet
316 1157 m 1,0,-1
 79 1522 l 1,1,-1
 346 1522 l 1,2,-1
 467 1157 l 1,3,-1
 316 1157 l 1,0,-1
EndSplineSet
EndChar

StartChar: a
Encoding: 97 97 65
Width: 1174
GlyphClass: 2
Flags: W
LayerCount: 2
Fore
SplineSet
382.882352941 293.956747405 m 0,0,1
 382.882352941 165 382.882352941 165 523 165 c 0,2,3
 578 165 578 165 639 194 c 128,-1,4
 700 223 700 223 735 276 c 1,5,-1
 735 544 l 1,6,7
 687 505 687 505 566 460.5 c 128,-1,8
 445 416 445 416 413.941176471 378.632352941 c 128,-1,9
 382.882352941 341.264705882 382.882352941 341.264705882 382.882352941 293.956747405 c 0,0,1
622.5 17.5 m 128,-1,11
 535 -23 535 -23 410 -23 c 128,-1,12
 285 -23 285 -23 198.405325444 57.9583347922 c 128,-1,13
 111.810650888 138.916669584 111.810650888 138.916669584 111.810650888 264.804488638 c 128,-1,14
 111.810650888 390.692307692 111.810650888 390.692307692 190.405325444 466.846153846 c 128,-1,15
 269 543 269 543 491 613 c 0,16,17
 626 656 626 656 680.5 690 c 128,-1,18
 735 724 735 724 735 783.5 c 0,19,20
 735 907 735 907 566 907 c 0,21,22
 471 907 471 907 435 870.5 c 128,-1,23
 399 834 399 834 399 765 c 2,24,-1
 399 723 l 1,25,-1
 144 723 l 1,26,-1
 144 755 l 2,27,28
 144 916 144 916 251 1006.5 c 128,-1,29
 358 1097 358 1097 580 1097 c 128,-1,30
 802 1097 802 1097 902.5 1003 c 128,-1,31
 1003 909 1003 909 1003 733 c 2,32,-1
 1003 308 l 2,33,34
 1003 236 1003 236 1021 213 c 128,-1,35
 1039 190 1039 190 1090 190 c 1,36,-1
 1079 -8 l 1,37,-1
 1022 -8 l 2,38,39
 911 -8 911 -8 849 22.5 c 128,-1,40
 787 53 787 53 757 119 c 1,41,10
 710 58 710 58 622.5 17.5 c 128,-1,11
EndSplineSet
EndChar

StartChar: b
Encoding: 98 98 66
Width: 1206
GlyphClass: 2
Flags: W
LayerCount: 2
Fore
SplineSet
810 758 m 2,0,1
 810 907 810 907 626.5 907 c 0,2,3
 537 907 537 907 432 857 c 1,4,-1
 432 216 l 1,5,6
 495 168 495 168 598.5 168 c 0,7,8
 810 168 810 168 810 323 c 2,9,-1
 810 758 l 2,0,1
965.5 74 m 128,-1,11
 849 -23 849 -23 677.5 -23 c 128,-1,12
 506 -23 506 -23 374 65 c 1,13,-1
 347 0 l 1,14,-1
 160 0 l 1,15,-1
 160 1516 l 1,16,-1
 432 1516 l 1,17,-1
 432 1040 l 1,18,19
 541 1097 541 1097 650.5 1097 c 0,20,21
 921.840909091 1097 921.840909091 1097 1020.27437216 957.287987906 c 0,22,23
 1082 869.677419355 1082 869.677419355 1082 753 c 2,24,-1
 1082 329 l 2,25,10
 1082 171 1082 171 965.5 74 c 128,-1,11
EndSplineSet
EndChar

StartChar: c
Encoding: 99 99 67
Width: 1107
GlyphClass: 2
Flags: W
LayerCount: 2
Fore
SplineSet
584.5 -23 m 0,0,1
 272.591397849 -23 272.591397849 -23 180.582497037 117.275865173 c 0,2,3
 124 203.540983607 124 203.540983607 124 327 c 2,4,-1
 124 757 l 2,5,6
 124 918 124 918 241 1007.5 c 128,-1,7
 358 1097 358 1097 574.222222222 1097 c 128,-1,8
 790.444444444 1097 790.444444444 1097 899.722222222 1011.47826087 c 128,-1,9
 1009 925.956521739 1009 925.956521739 1009 699 c 1,10,-1
 753 679 l 1,11,12
 753 823 753 823 718 865.5 c 0,13,14
 697 891 697 891 666 899 c 128,-1,15
 635 907 635 907 561.5 907 c 0,16,17
 396 907 396 907 396 756 c 2,18,-1
 396 322 l 2,19,20
 396 238 396 238 439.5 203 c 128,-1,21
 483 168 483 168 568.5 168 c 128,-1,22
 654 168 654 168 689 183.5 c 128,-1,23
 724 199 724 199 739 242.5 c 128,-1,24
 754 286 754 286 754 380 c 1,25,-1
 1008 380 l 1,26,27
 1006 262 1006 262 986 188.5 c 128,-1,28
 966 115 966 115 916 65.5 c 0,29,30
 826.606060606 -23 826.606060606 -23 584.5 -23 c 0,0,1
EndSplineSet
EndChar

StartChar: d
Encoding: 100 100 68
Width: 1198
GlyphClass: 2
Flags: W
LayerCount: 2
Fore
SplineSet
443 204 m 128,-1,1
 490 168 490 168 594 168 c 128,-1,2
 698 168 698 168 770 211 c 1,3,-1
 770 870 l 1,4,5
 692 907 692 907 594 907 c 128,-1,6
 496 907 496 907 446 872.5 c 128,-1,7
 396 838 396 838 396 759 c 2,8,-1
 396 320 l 2,9,0
 396 240 396 240 443 204 c 128,-1,1
551 -23 m 0,10,11
 337 -23 337 -23 230.5 67.5 c 128,-1,12
 124 158 124 158 124 324 c 2,13,-1
 124 753 l 2,14,15
 124 910 124 910 234.5 1003.5 c 128,-1,16
 345 1097 345 1097 570 1097 c 0,17,18
 666 1097 666 1097 770 1059 c 1,19,-1
 770 1516 l 1,20,-1
 1042 1516 l 1,21,-1
 1042 0 l 1,22,-1
 858 0 l 1,23,-1
 829 63 l 1,24,25
 706 -23 706 -23 551 -23 c 0,10,11
EndSplineSet
EndChar

StartChar: e
Encoding: 101 101 69
Width: 1149
GlyphClass: 2
Flags: W
LayerCount: 2
Fore
SplineSet
396 651 m 1,0,-1
 782 651 l 1,1,-1
 782 777 l 2,2,3
 782 873.283018868 782 873.283018868 703.5 895.5 c 0,4,5
 662.866666667 907 662.866666667 907 579.433333333 907 c 128,-1,6
 496 907 496 907 446 879 c 128,-1,7
 396 851 396 851 396 772 c 2,8,-1
 396 651 l 1,0,-1
402 -5 m 128,-1,10
 322 13 322 13 257.5 52.5 c 0,11,12
 124 134.255813953 124 134.255813953 124 336 c 2,13,-1
 124 755 l 2,14,15
 124 917 124 917 247 1007 c 128,-1,16
 370 1097 370 1097 582 1097 c 0,17,18
 1039 1097 1039 1097 1039 745 c 2,19,-1
 1039 485 l 1,20,-1
 396 485 l 1,21,-1
 396 310 l 2,22,23
 396 221 396 221 440 193.5 c 128,-1,24
 484 166 484 166 589.038461538 166 c 128,-1,25
 694.076923077 166 694.076923077 166 712.538461538 176 c 0,26,27
 757.861400894 200.549925484 757.861400894 200.549925484 771.07320659 236.120171587 c 128,-1,28
 784.285012285 271.69041769 784.285012285 271.69041769 786 330 c 1,29,-1
 1038 330 l 1,30,31
 1032.34532516 81.1943071753 1032.34532516 81.1943071753 863 15.5 c 0,32,33
 763.755555556 -23 763.755555556 -23 622.877777778 -23 c 128,-1,9
 482 -23 482 -23 402 -5 c 128,-1,10
EndSplineSet
EndChar

StartChar: f
Encoding: 102 102 70
Width: 770
GlyphClass: 2
Flags: W
LayerCount: 2
Fore
SplineSet
229 0 m 1,0,-1
 229 901 l 1,1,-1
 86 901 l 1,2,-1
 86 1074 l 1,3,-1
 229 1074 l 1,4,-1
 229 1125 l 2,5,6
 229 1320 229 1320 316 1418 c 128,-1,7
 403 1516 403 1516 591 1516 c 2,8,-1
 717 1516 l 1,9,-1
 724 1327 l 1,10,-1
 640 1327 l 2,11,12
 559 1327 559 1327 530 1288.5 c 128,-1,13
 501 1250 501 1250 501 1186 c 2,14,-1
 501 1074 l 1,15,-1
 715 1074 l 1,16,-1
 715 901 l 1,17,-1
 501 901 l 1,18,-1
 501 0 l 1,19,-1
 229 0 l 1,0,-1
EndSplineSet
EndChar

StartChar: g
Encoding: 103 103 71
Width: 1211
GlyphClass: 2
Flags: W
LayerCount: 2
Fore
SplineSet
588 213 m 0,0,1
 721 213 721 213 787 261 c 1,2,-1
 787 832 l 2,3,4
 787 856 787 856 730 881.5 c 128,-1,5
 673 907 673 907 582.5 907 c 0,6,7
 396 907 396 907 396 757 c 2,8,-1
 396 356 l 2,9,10
 396 213 396 213 588 213 c 0,0,1
574 -441 m 0,11,12
 337.461538462 -441 337.461538462 -441 219 -385 c 1,13,-1
 275 -200 l 1,14,15
 426 -242 426 -242 553.5 -242 c 128,-1,16
 681 -242 681 -242 734 -191.5 c 128,-1,17
 787 -141 787 -141 787 -30 c 2,18,-1
 787 88 l 1,19,20
 693 32 693 32 520.5 32 c 128,-1,21
 348 32 348 32 236 120.5 c 128,-1,22
 124 209 124 209 124 366 c 2,23,-1
 124 751 l 2,24,25
 124 896.161290323 124 896.161290323 218.333333333 996.580645161 c 128,-1,26
 312.666666667 1097 312.666666667 1097 533 1097 c 0,27,28
 618 1097 618 1097 699.5 1068.5 c 128,-1,29
 781 1040 781 1040 834 997 c 1,30,-1
 857 1075 l 1,31,-1
 1059 1075 l 1,32,-1
 1059 -12 l 2,33,34
 1059 -441 1059 -441 574 -441 c 0,11,12
EndSplineSet
EndChar

StartChar: h
Encoding: 104 104 72
Width: 1254
GlyphClass: 2
Flags: W
LayerCount: 2
Fore
SplineSet
162 0 m 1,0,-1
 162 1515 l 1,1,-1
 434 1515 l 1,2,-1
 434 970 l 1,3,4
 468 1026 468 1026 563 1061.5 c 128,-1,5
 658 1097 658 1097 790.5 1097 c 128,-1,6
 923 1097 923 1097 1012.5 1014.5 c 128,-1,7
 1102 932 1102 932 1102 795 c 2,8,-1
 1102 0 l 1,9,-1
 830 0 l 1,10,-1
 830 756 l 2,11,12
 830 894 830 894 647 894 c 0,13,14
 565 894 565 894 499.5 852.5 c 128,-1,15
 434 811 434 811 434 738 c 2,16,-1
 434 0 l 1,17,-1
 162 0 l 1,0,-1
EndSplineSet
EndChar

StartChar: i
Encoding: 105 105 73
Width: 598
GlyphClass: 2
Flags: W
LayerCount: 2
Fore
SplineSet
166 1227 m 1,0,-1
 166 1468 l 1,1,-1
 438 1468 l 1,2,-1
 438 1227 l 1,3,-1
 166 1227 l 1,0,-1
166 0 m 1,4,-1
 166 1074 l 1,5,-1
 438 1074 l 1,6,-1
 438 0 l 1,7,-1
 166 0 l 1,4,-1
EndSplineSet
EndChar

StartChar: j
Encoding: 106 106 74
Width: 638
GlyphClass: 2
Flags: W
LayerCount: 2
Fore
SplineSet
204 1227 m 1,0,-1
 204 1468 l 1,1,-1
 476 1468 l 1,2,-1
 476 1227 l 1,3,-1
 204 1227 l 1,0,-1
3 -362 m 1,4,-1
 -10 -168 l 1,5,-1
 34 -168 l 2,6,7
 206 -168 206 -168 206 10 c 2,8,-1
 206 1074 l 1,9,-1
 478 1074 l 1,10,-1
 478 -3 l 2,11,12
 478 -171 478 -171 387 -266.5 c 128,-1,13
 296 -362 296 -362 104 -362 c 2,14,-1
 3 -362 l 1,4,-1
EndSplineSet
EndChar

StartChar: k
Encoding: 107 107 75
Width: 1199
GlyphClass: 2
Flags: W
LayerCount: 2
Fore
SplineSet
162 0 m 1,0,-1
 162 1516 l 1,1,-1
 434 1516 l 1,2,-1
 434 602 l 1,3,-1
 859 1074 l 1,4,-1
 1169 1074 l 1,5,-1
 765 611 l 1,6,-1
 1187 0 l 1,7,-1
 890 0 l 1,8,-1
 554 497 l 1,9,-1
 434 374 l 1,10,-1
 434 0 l 1,11,-1
 162 0 l 1,0,-1
EndSplineSet
EndChar

StartChar: l
Encoding: 108 108 76
Width: 708
GlyphClass: 2
Flags: W
LayerCount: 2
Fore
SplineSet
527 -12 m 2,0,1
 342 -12 342 -12 253 72 c 128,-1,2
 164 156 164 156 164 353 c 2,3,-1
 164 1515 l 1,4,-1
 436 1515 l 1,5,-1
 436 357 l 2,6,7
 436 267 436 267 478 228.5 c 128,-1,8
 520 190 520 190 628 190 c 2,9,-1
 662 190 l 1,10,-1
 641 -12 l 1,11,-1
 527 -12 l 2,0,1
EndSplineSet
EndChar

StartChar: m
Encoding: 109 109 77
Width: 1894
GlyphClass: 2
Flags: W
LayerCount: 2
Fore
SplineSet
160 0 m 1,0,-1
 160 1074 l 1,1,-1
 432 1074 l 1,2,-1
 432 978 l 1,3,4
 487.950376606 1036.49357554 487.950376606 1036.49357554 577.475188303 1066.74678777 c 128,-1,5
 667 1097 667 1097 749 1097 c 0,6,7
 964 1097 964 1097 1044 964 c 1,8,9
 1177 1097 1177 1097 1401 1097 c 0,10,11
 1555 1097 1555 1097 1648.5 1013.5 c 128,-1,12
 1742 930 1742 930 1742 794 c 2,13,-1
 1742 0 l 1,14,-1
 1470 0 l 1,15,-1
 1470 762 l 2,16,17
 1470 840 1470 840 1429.5 868.5 c 128,-1,18
 1389 897 1389 897 1312.5 897 c 128,-1,19
 1236 897 1236 897 1165.5 857 c 128,-1,20
 1095 817 1095 817 1089 750 c 1,21,-1
 1089 0 l 1,22,-1
 817 0 l 1,23,-1
 817 762 l 2,24,25
 817 840 817 840 774 868.5 c 128,-1,26
 731 897 731 897 652.5 897 c 128,-1,27
 574 897 574 897 503 854.5 c 128,-1,28
 432 812 432 812 432 739 c 2,29,-1
 432 0 l 1,30,-1
 160 0 l 1,0,-1
EndSplineSet
EndChar

StartChar: n
Encoding: 110 110 78
Width: 1254
GlyphClass: 2
Flags: W
LayerCount: 2
Fore
SplineSet
830 755 m 2,0,1
 830 894 830 894 641 894 c 0,2,3
 560 894 560 894 496 851.5 c 128,-1,4
 432 809 432 809 432 735 c 2,5,-1
 432 0 l 1,6,-1
 160 0 l 1,7,-1
 160 1074 l 1,8,-1
 432 1074 l 1,9,-1
 432 979 l 1,10,11
 569.343065693 1098.59124088 569.343065693 1098.59124088 752.240069363 1098.59124088 c 128,-1,12
 935.137073033 1098.59124088 935.137073033 1098.59124088 1018.56853652 1004.79562044 c 128,-1,13
 1102 911 1102 911 1102 770 c 2,14,-1
 1102 0 l 1,15,-1
 830 0 l 1,16,-1
 830 755 l 2,0,1
EndSplineSet
EndChar

StartChar: o
Encoding: 111 111 79
Width: 1180
GlyphClass: 2
Flags: W
LayerCount: 2
Fore
SplineSet
590 -23 m 0,0,1
 124 -23 124 -23 124 325 c 2,2,-1
 124 748 l 2,3,4
 124 913 124 913 246.5 1005 c 128,-1,5
 369 1097 369 1097 589.5 1097 c 128,-1,6
 810 1097 810 1097 933 1004.5 c 128,-1,7
 1056 912 1056 912 1056 748 c 2,8,-1
 1056 325 l 2,9,10
 1056 65.6557377049 1056 65.6557377049 809.5 1 c 0,11,12
 718 -23 718 -23 590 -23 c 0,0,1
590 166 m 0,13,14
 784 166 784 166 784 313 c 2,15,-1
 784 760 l 2,16,17
 784 839 784 839 735 873 c 128,-1,18
 686 907 686 907 590 907 c 0,19,20
 396 907 396 907 396 760 c 2,21,-1
 396 313 l 2,22,23
 396 234 396 234 444.5 200 c 128,-1,24
 493 166 493 166 590 166 c 0,13,14
EndSplineSet
EndChar

StartChar: p
Encoding: 112 112 80
Width: 1202
GlyphClass: 2
Flags: W
LayerCount: 2
Fore
SplineSet
614 166 m 0,0,1
 806 166 806 166 806 320 c 2,2,-1
 806 755 l 2,3,4
 806 907 806 907 623 907 c 0,5,6
 562 907 562 907 510 887 c 128,-1,7
 458 867 458 867 432 841 c 1,8,-1
 432 213 l 1,9,10
 520 166 520 166 614 166 c 0,0,1
160 -410 m 1,11,-1
 160 1074 l 1,12,-1
 350 1074 l 1,13,-1
 377 1004 l 1,14,15
 504 1097 504 1097 682.5 1097 c 128,-1,16
 861 1097 861 1097 969.5 1002.5 c 128,-1,17
 1078 908 1078 908 1078 751 c 2,18,-1
 1078 326 l 2,19,20
 1078 182.4 1078 182.4 967.964285714 79.7 c 128,-1,21
 857.928571429 -23 857.928571429 -23 637 -23 c 0,22,23
 522 -23 522 -23 432 17 c 1,24,-1
 432 -410 l 1,25,-1
 160 -410 l 1,11,-1
EndSplineSet
EndChar

StartChar: q
Encoding: 113 113 81
Width: 1194
GlyphClass: 2
Flags: W
LayerCount: 2
Fore
SplineSet
396 308 m 2,0,1
 396 166 396 166 565.5 166 c 0,2,3
 688.375 166 688.375 166 748.5 203 c 0,4,5
 768 215 768 215 770 220 c 1,6,-1
 770 839 l 1,7,8
 726 907 726 907 588 907 c 0,9,10
 396 907 396 907 396 756 c 2,11,-1
 396 308 l 2,0,1
770 -410 m 1,12,-1
 770 33 l 1,13,14
 672 -23 672 -23 550 -23 c 0,15,16
 316.886597938 -23 316.886597938 -23 220.443298969 75.4736842105 c 128,-1,17
 124 173.947368421 124 173.947368421 124 317 c 2,18,-1
 124 750 l 2,19,20
 124 909 124 909 236.5 1003 c 128,-1,21
 349 1097 349 1097 543 1097 c 0,22,23
 624 1097 624 1097 698 1071 c 128,-1,24
 772 1045 772 1045 820 1005 c 1,25,-1
 839 1074 l 1,26,-1
 1042 1074 l 1,27,-1
 1042 -410 l 1,28,-1
 770 -410 l 1,12,-1
EndSplineSet
EndChar

StartChar: r
Encoding: 114 114 82
Width: 831
GlyphClass: 2
Flags: W
LayerCount: 2
Fore
SplineSet
160 0 m 1,0,-1
 160 1074 l 1,1,-1
 432 1074 l 1,2,-1
 432 946 l 1,3,4
 456 992 456 992 532 1028.5 c 0,5,6
 662.657534247 1091.25 662.657534247 1091.25 785.15625 1091.25 c 0,7,8
 799 1091.25 799 1091.25 811 1090 c 1,9,-1
 805 859 l 1,10,11
 625.279262673 849.541013825 625.279262673 849.541013825 507.5 792 c 0,12,13
 442 760 442 760 432 720 c 1,14,-1
 432 0 l 1,15,-1
 160 0 l 1,0,-1
EndSplineSet
EndChar

StartChar: s
Encoding: 115 115 83
Width: 994
GlyphClass: 2
Flags: W
LayerCount: 2
Fore
SplineSet
527 -23 m 0,0,1
 273 -23 273 -23 108 61 c 1,2,-1
 163 246 l 1,3,4
 351 166 351 166 517 166 c 0,5,6
 644 166 644 166 661 279 c 0,7,8
 663.115702479 292.619834711 663.115702479 292.619834711 663.115702479 305.015709309 c 0,9,10
 663.115702479 386.363636364 663.115702479 386.363636364 572 415 c 2,11,-1
 336 489 l 2,12,13
 215 527 215 527 164.462616822 603.051401869 c 128,-1,14
 113.925233645 679.102803738 113.925233645 679.102803738 113.925233645 787.527644336 c 0,15,16
 113.925233645 791.738317757 113.925233645 791.738317757 114 796 c 0,17,18
 116.020134228 1097 116.020134228 1097 526.5 1097 c 0,19,20
 729 1097 729 1097 888 1006 c 1,21,-1
 824 837 l 1,22,23
 773 864 773 864 685.5 885.5 c 128,-1,24
 598 907 598 907 521 907 c 128,-1,25
 444 907 444 907 409.140449438 879.648660328 c 128,-1,26
 374.280898876 852.297320657 374.280898876 852.297320657 374.280898876 785.525064823 c 128,-1,27
 374.280898876 718.752808989 374.280898876 718.752808989 448 696 c 2,28,-1
 670 626 l 2,29,30
 803 584 803 584 857.5 508 c 128,-1,31
 912 432 912 432 912 296 c 128,-1,32
 912 160 912 160 812 68.5 c 128,-1,33
 712 -23 712 -23 527 -23 c 0,0,1
EndSplineSet
EndChar

StartChar: t
Encoding: 116 116 84
Width: 813
GlyphClass: 2
Flags: W
LayerCount: 2
Fore
SplineSet
664 -12 m 2,0,1
 419.4375 -12 419.4375 -12 313.21875 61.8913043478 c 128,-1,2
 207 135.782608696 207 135.782608696 207 341 c 2,3,-1
 207 901 l 1,4,-1
 64 901 l 1,5,-1
 64 1074 l 1,6,-1
 215 1074 l 1,7,-1
 240 1419 l 1,8,-1
 479 1419 l 1,9,-1
 479 1074 l 1,10,-1
 734 1074 l 1,11,-1
 734 901 l 1,12,-1
 479 901 l 1,13,-1
 479 360 l 2,14,15
 479 260 479 260 526.5 225 c 128,-1,16
 574 190 574 190 709 190 c 2,17,-1
 741 190 l 1,18,-1
 731 -12 l 1,19,-1
 664 -12 l 2,0,1
EndSplineSet
EndChar

StartChar: u
Encoding: 117 117 85
Width: 1247
GlyphClass: 2
Flags: W
LayerCount: 2
Fore
SplineSet
827 118 m 1,0,1
 795 52 795 52 702.923913043 14.6086956522 c 128,-1,2
 610.847826087 -22.7826086957 610.847826087 -22.7826086957 498.730623819 -22.7826086957 c 0,3,4
 338.099923722 -22.7826086957 338.099923722 -22.7826086957 245.049961861 66.1086956522 c 128,-1,5
 152 155 152 155 152 291 c 2,6,-1
 152 1074 l 1,7,-1
 424 1074 l 1,8,-1
 424 335 l 2,9,10
 424 258 424 258 478.5 220 c 128,-1,11
 533 182 533 182 612 182 c 128,-1,12
 691 182 691 182 755 224.5 c 128,-1,13
 819 267 819 267 819 350 c 2,14,-1
 819 1074 l 1,15,-1
 1091 1074 l 1,16,-1
 1091 0 l 1,17,-1
 835 0 l 1,18,-1
 827 118 l 1,0,1
EndSplineSet
EndChar

StartChar: v
Encoding: 118 118 86
Width: 1103
GlyphClass: 2
Flags: W
LayerCount: 2
Fore
SplineSet
416 0 m 1,0,-1
 34 1074 l 1,1,-1
 305 1074 l 1,2,-1
 561 266 l 1,3,-1
 812 1074 l 1,4,-1
 1069 1074 l 1,5,-1
 705 0 l 1,6,-1
 416 0 l 1,0,-1
EndSplineSet
EndChar

StartChar: w
Encoding: 119 119 87
Width: 1648
GlyphClass: 2
Flags: W
LayerCount: 2
Fore
SplineSet
343 0 m 1,0,-1
 46 1074 l 1,1,-1
 300 1074 l 1,2,-1
 492 304 l 1,3,-1
 717 1074 l 1,4,-1
 938 1074 l 1,5,-1
 1170 295 l 1,6,-1
 1349 1074 l 1,7,-1
 1602 1074 l 1,8,-1
 1316 0 l 1,9,-1
 1050 0 l 1,10,-1
 830 741 l 1,11,-1
 601 0 l 1,12,-1
 343 0 l 1,0,-1
EndSplineSet
EndChar

StartChar: x
Encoding: 120 120 88
Width: 1082
GlyphClass: 2
Flags: W
LayerCount: 2
Fore
SplineSet
36 0 m 1,0,-1
 406 540 l 1,1,-1
 37 1074 l 1,2,-1
 321 1074 l 1,3,-1
 544 738 l 1,4,-1
 767 1074 l 1,5,-1
 1044 1074 l 1,6,-1
 684 536 l 1,7,-1
 1046 0 l 1,8,-1
 775 0 l 1,9,-1
 549 338 l 1,10,-1
 325 0 l 1,11,-1
 36 0 l 1,0,-1
EndSplineSet
EndChar

StartChar: y
Encoding: 121 121 89
Width: 1083
GlyphClass: 2
Flags: W
LayerCount: 2
Fore
SplineSet
148 -485 m 1,0,-1
 128 -260 l 1,1,2
 270.800908403 -232.233156699 270.800908403 -232.233156699 336.351673714 -150.762919813 c 128,-1,3
 401.902439024 -69.2926829268 401.902439024 -69.2926829268 437 36 c 1,4,-1
 33 1074 l 1,5,-1
 295 1074 l 1,6,-1
 574 353 l 1,7,-1
 797 1074 l 1,8,-1
 1067 1074 l 1,9,-1
 741 140 l 2,10,11
 657.477126398 -100.85665876 657.477126398 -100.85665876 588.238563199 -206.42832938 c 128,-1,12
 519 -312 519 -312 460 -360 c 0,13,14
 334.410910911 -462.174174174 334.410910911 -462.174174174 148 -485 c 1,0,-1
EndSplineSet
EndChar

StartChar: z
Encoding: 122 122 90
Width: 906
GlyphClass: 2
Flags: W
LayerCount: 2
Fore
SplineSet
104 0 m 1,0,-1
 104 167 l 1,1,-1
 526 888 l 1,2,-1
 114 888 l 1,3,-1
 114 1074 l 1,4,-1
 818 1074 l 1,5,-1
 818 910 l 1,6,-1
 399 190 l 1,7,-1
 813 190 l 1,8,-1
 813 0 l 1,9,-1
 104 0 l 1,0,-1
EndSplineSet
EndChar

StartChar: braceleft
Encoding: 123 123 91
Width: 992
GlyphClass: 2
Flags: W
LayerCount: 2
Fore
SplineSet
846 -128 m 1,0,1
 704 -128 704 -128 614.5 -105.5 c 128,-1,2
 525 -83 525 -83 472 -27 c 128,-1,3
 419 29 419 29 399 110.5 c 128,-1,4
 379 192 379 192 379 322 c 2,5,-1
 379 409 l 2,6,7
 379 529.12244898 379 529.12244898 338.65 562.06122449 c 128,-1,8
 298.3 595 298.3 595 188 595 c 1,9,-1
 188 833 l 1,10,11
 300 833 300 833 339.5 874 c 128,-1,12
 379 915 379 915 379 1036 c 2,13,-1
 379 1139 l 2,14,15
 379 1285.53846154 379 1285.53846154 397 1345.76923077 c 128,-1,16
 415 1406 415 1406 432 1436 c 128,-1,17
 449 1466 449 1466 493.057142857 1498.30857143 c 0,18,19
 571.727272727 1556 571.727272727 1556 846 1556 c 1,20,21
 846.5 1469 846.5 1469 846.5 1425.5 c 128,-1,22
 846.5 1382 846.5 1382 846 1382 c 0,23,24
 779 1382 779 1382 742.5 1375.5 c 128,-1,25
 706 1369 706 1369 686.5 1347 c 128,-1,26
 667 1325 667 1325 662.5 1296.5 c 128,-1,27
 658 1268 658 1268 658 1210 c 2,28,-1
 658 1080 l 2,29,30
 658 773 658 773 498 722 c 1,31,32
 585 691 585 691 622 606.5 c 128,-1,33
 659 522 659 522 659 369 c 2,34,-1
 659 252 l 2,35,36
 659 188 659 188 664 155 c 128,-1,37
 669 122 669 122 687.5 94 c 128,-1,38
 706 66 706 66 743.5 56 c 128,-1,39
 781 46 781 46 846 46 c 1,40,-1
 846 -128 l 1,0,1
EndSplineSet
EndChar

StartChar: bar
Encoding: 124 124 92
Width: 768
GlyphClass: 2
Flags: W
LayerCount: 2
Fore
SplineSet
262 -126 m 1,0,-1
 262 1608 l 1,1,-1
 506 1608 l 1,2,-1
 506 -126 l 1,3,-1
 262 -126 l 1,0,-1
EndSplineSet
EndChar

StartChar: braceright
Encoding: 125 125 93
Width: 991
GlyphClass: 2
Flags: W
LayerCount: 2
Fore
SplineSet
363 360 m 2,0,1
 363 667.268292683 363 667.268292683 523 718 c 1,2,3
 436 749 436 749 399 833 c 128,-1,4
 362 917 362 917 362 1071 c 2,5,-1
 362 1187 l 2,6,7
 362 1335.51219512 362 1335.51219512 316.673076923 1364.25609756 c 128,-1,8
 271.346153846 1393 271.346153846 1393 175 1393 c 1,9,-1
 175 1567 l 1,10,11
 317 1567 317 1567 406.5 1544.5 c 128,-1,12
 496 1522 496 1522 549 1466.5 c 128,-1,13
 602 1411 602 1411 622 1329.5 c 128,-1,14
 642 1248 642 1248 642 1118 c 2,15,-1
 642 1030 l 2,16,17
 642 911.520833333 642 911.520833333 683 876.5 c 0,18,19
 707 856 707 856 740 850 c 128,-1,20
 773 844 773 844 832 844 c 1,21,-1
 832 606 l 1,22,23
 721 606 721 606 681.5 565 c 128,-1,24
 642 524 642 524 642 404 c 2,25,-1
 642 300 l 2,26,27
 642 153.461538462 642 153.461538462 624 93.2307692308 c 128,-1,28
 606 33 606 33 589 3 c 128,-1,29
 572 -27 572 -27 527.942857143 -59.3085714286 c 0,30,31
 449.272727273 -117 449.272727273 -117 175 -117 c 1,32,33
 174.5 -30 174.5 -30 174.5 13.5 c 128,-1,34
 174.5 57 174.5 57 175 57 c 0,35,36
 242 57 242 57 278.5 63.5 c 128,-1,37
 315 70 315 70 334.5 92 c 128,-1,38
 354 114 354 114 358.5 142.5 c 128,-1,39
 363 171 363 171 363 229 c 2,40,-1
 363 360 l 2,0,1
EndSplineSet
EndChar

StartChar: asciitilde
Encoding: 126 126 94
Width: 1024
GlyphClass: 2
Flags: W
LayerCount: 2
Fore
SplineSet
332 1466 m 0,0,1
 384 1466 384 1466 443 1440 c 128,-1,2
 502 1414 502 1414 544.5 1382 c 0,3,4
 656.0625 1298 656.0625 1298 710.03125 1298 c 128,-1,5
 764 1298 764 1298 794.5 1343.5 c 128,-1,6
 825 1389 825 1389 825 1450 c 1,7,-1
 934 1450 l 1,8,9
 934 1311 934 1311 864 1221 c 128,-1,10
 794 1131 794 1131 693.253968254 1131 c 128,-1,11
 592.507936508 1131 592.507936508 1131 478.5 1215.5 c 128,-1,12
 364.492063492 1300 364.492063492 1300 311.746031746 1300 c 128,-1,13
 259 1300 259 1300 228.5 1254 c 128,-1,14
 198 1208 198 1208 198 1147 c 1,15,-1
 90 1147 l 1,16,17
 90 1287 90 1287 159.5 1376.5 c 128,-1,18
 229 1466 229 1466 332 1466 c 0,0,1
EndSplineSet
EndChar

StartChar: cent
Encoding: 162 162 97
Width: 1107
GlyphClass: 2
Flags: W
LayerCount: 2
Fore
SplineSet
538 -22 m 1,0,1
 186.607498087 -11.2430866761 186.607498087 -11.2430866761 134.5 222 c 0,2,3
 124 269 124 269 124 327 c 2,4,-1
 124 757 l 2,5,6
 124 912 124 912 232.5 1000.5 c 128,-1,7
 341 1089 341 1089 538 1096 c 1,8,-1
 538 1291 l 1,9,-1
 631 1291 l 1,10,-1
 631 1095 l 1,11,12
 825 1085 825 1085 917 995.5 c 128,-1,13
 1009 906 1009 906 1009 699 c 1,14,-1
 753 679 l 1,15,16
 752 805 752 805 727.5 851.5 c 128,-1,17
 703 898 703 898 631 905 c 1,18,-1
 631 170 l 1,19,20
 704 177 704 177 729 219 c 128,-1,21
 754 261 754 261 754 380 c 1,22,-1
 1008 380 l 1,23,24
 1006 269 1006 269 988 198 c 128,-1,25
 970 127 970 127 927 77 c 128,-1,26
 884 27 884 27 813 4.5 c 128,-1,27
 742 -18 742 -18 631 -22 c 1,28,-1
 631 -214 l 1,29,-1
 538 -214 l 1,30,-1
 538 -22 l 1,0,1
538 905 m 1,31,32
 396 891 396 891 396 756 c 2,33,-1
 396 322 l 2,34,35
 396 248 396 248 430.5 212.5 c 128,-1,36
 465 177 465 177 538 170 c 1,37,-1
 538 905 l 1,31,32
EndSplineSet
EndChar

StartChar: sterling
Encoding: 163 163 98
Width: 1285
GlyphClass: 2
Flags: W
LayerCount: 2
Fore
SplineSet
206 0 m 1,0,-1
 256 621 l 1,1,-1
 134 621 l 1,2,-1
 134 812 l 1,3,-1
 271 812 l 1,4,-1
 291 1061 l 1,5,6
 304 1283 304 1283 417.5 1399 c 128,-1,7
 531 1515 531 1515 771 1515 c 0,8,9
 872 1515 872 1515 969.5 1486 c 128,-1,10
 1067 1457 1067 1457 1130 1415 c 1,11,-1
 1059 1214 l 1,12,13
 908 1281 908 1281 797 1281 c 128,-1,14
 686 1281 686 1281 640 1219.5 c 128,-1,15
 594 1158 594 1158 586 1044 c 1,16,-1
 567 812 l 1,17,-1
 1043 812 l 1,18,-1
 1043 621 l 1,19,-1
 550 621 l 1,20,-1
 516 226 l 1,21,-1
 1124 226 l 1,22,-1
 1124 0 l 1,23,-1
 206 0 l 1,0,-1
EndSplineSet
EndChar

StartChar: currency
Encoding: 164 164 99
Width: 1126
GlyphClass: 2
Flags: W
LayerCount: 2
Fore
SplineSet
417.5 584.5 m 128,-1,1
 467 528 467 528 559 528 c 128,-1,2
 651 528 651 528 699.5 584.5 c 128,-1,3
 748 641 748 641 748 723 c 128,-1,4
 748 805 748 805 699.5 861.5 c 128,-1,5
 651 918 651 918 559 918 c 128,-1,6
 467 918 467 918 417.5 861.5 c 128,-1,7
 368 805 368 805 368 723 c 128,-1,0
 368 641 368 641 417.5 584.5 c 128,-1,1
811 485 m 1,8,9
 715 381 715 381 559 381 c 128,-1,10
 403 381 403 381 309 480 c 1,11,-1
 174 383 l 1,12,-1
 126 467 l 1,13,-1
 254 559 l 1,14,15
 216 633 216 633 216 722.5 c 128,-1,16
 216 812 216 812 256 892 c 1,17,-1
 124 987 l 1,18,-1
 177 1067 l 1,19,-1
 311 968 l 1,20,21
 405 1064 405 1064 560.5 1064 c 128,-1,22
 716 1064 716 1064 809 964 c 1,23,-1
 952 1067 l 1,24,-1
 999 986 l 1,25,-1
 862 886 l 1,26,27
 899 812 899 812 899 722.5 c 128,-1,28
 899 633 899 633 864 563 c 1,29,-1
 1002 465 l 1,30,-1
 950 384 l 1,31,-1
 811 485 l 1,8,9
EndSplineSet
EndChar

StartChar: yen
Encoding: 165 165 100
Width: 1304
GlyphClass: 2
Flags: W
LayerCount: 2
Fore
SplineSet
805 368 m 1,0,-1
 1058 368 l 1,1,-1
 1058 208 l 1,2,-1
 805 208 l 1,3,-1
 805 0 l 1,4,-1
 509 0 l 1,5,-1
 509 208 l 1,6,-1
 258 208 l 1,7,-1
 258 368 l 1,8,-1
 509 368 l 1,9,-1
 509 496 l 1,10,-1
 258 496 l 1,11,-1
 258 656 l 1,12,-1
 459 656 l 1,13,-1
 0 1476 l 1,14,-1
 313 1476 l 1,15,-1
 659 859 l 1,16,-1
 1004 1476 l 1,17,-1
 1304 1476 l 1,18,-1
 854 656 l 1,19,-1
 1058 656 l 1,20,-1
 1058 496 l 1,21,-1
 805 496 l 1,22,-1
 805 368 l 1,0,-1
EndSplineSet
EndChar

StartChar: brokenbar
Encoding: 166 166 101
Width: 769
GlyphClass: 2
Flags: W
LayerCount: 2
Fore
SplineSet
280 800 m 1,0,-1
 280 1476 l 1,1,-1
 489 1476 l 1,2,-1
 489 800 l 1,3,-1
 280 800 l 1,0,-1
280 -120 m 1,4,-1
 280 590 l 1,5,-1
 489 590 l 1,6,-1
 489 -120 l 1,7,-1
 280 -120 l 1,4,-1
EndSplineSet
EndChar

StartChar: section
Encoding: 167 167 102
Width: 1085
GlyphClass: 2
Flags: W
LayerCount: 2
Fore
SplineSet
738 579 m 1,0,1
 760 611 760 611 760 653.684210526 c 128,-1,2
 760 696.368421053 760 696.368421053 742.815581854 732.546143465 c 128,-1,3
 725.631163708 768.723865878 725.631163708 768.723865878 661 797 c 1,4,-1
 360 941 l 1,5,6
 347 932 347 932 332.243192071 903.504095035 c 128,-1,7
 317.486384143 875.008190069 317.486384143 875.008190069 317.486384143 841.208022346 c 0,8,9
 317.486384143 770.412206937 317.486384143 770.412206937 403 733 c 1,10,-1
 738 579 l 1,0,1
964.217687075 713.894997455 m 0,11,12
 964.217687075 604.27563618 964.217687075 604.27563618 857 505 c 1,13,14
 941 430.76744186 941 430.76744186 941 295.88372093 c 128,-1,15
 941 161 941 161 841 69.5 c 128,-1,16
 741 -22 741 -22 556 -22 c 0,17,18
 288.258064516 -22 288.258064516 -22 124 112 c 1,19,-1
 218 281 l 1,20,21
 380.849405789 174.695526777 380.849405789 174.695526777 515.685686383 174.695526777 c 0,22,23
 556.634669996 174.695526777 556.634669996 174.695526777 595 184.5 c 0,24,25
 689 208.522222222 689 208.522222222 689 286 c 0,26,27
 689 327 689 327 666.5 355 c 128,-1,28
 644 383 644 383 587 411 c 2,29,-1
 326 537 l 2,30,31
 233 582 233 582 182.650793651 648.275996113 c 128,-1,32
 132.301587302 714.551992225 132.301587302 714.551992225 132.301587302 785.130385488 c 0,33,34
 132.301587302 915.710464433 132.301587302 915.710464433 242 999 c 1,35,36
 149.564246715 1074.45775778 149.564246715 1074.45775778 149.564246715 1211.20290987 c 128,-1,37
 149.564246715 1347.94806195 149.564246715 1347.94806195 251.282123358 1422.47403097 c 128,-1,38
 353 1497 353 1497 504 1497 c 0,39,40
 766.5 1497 766.5 1497 924 1377 c 1,41,-1
 840 1218 l 1,42,43
 683.466329328 1308.49602836 683.466329328 1308.49602836 557.704564034 1308.49602836 c 0,44,45
 404 1308.49602836 404 1308.49602836 404 1206 c 0,46,47
 404 1168 404 1168 423.5 1146.5 c 128,-1,48
 443 1125 443 1125 487 1104 c 2,49,-1
 748 981 l 2,50,51
 873 922 873 922 926 837 c 0,52,53
 964.217687075 775.707482993 964.217687075 775.707482993 964.217687075 713.894997455 c 0,11,12
EndSplineSet
EndChar

StartChar: dieresis
Encoding: 168 168 103
Width: 967
GlyphClass: 2
Flags: W
LayerCount: 2
Fore
SplineSet
624 1244 m 1,0,-1
 624 1477 l 1,1,-1
 889 1477 l 1,2,-1
 889 1244 l 1,3,-1
 624 1244 l 1,0,-1
115 1244 m 1,4,-1
 115 1477 l 1,5,-1
 379 1477 l 1,6,-1
 379 1244 l 1,7,-1
 115 1244 l 1,4,-1
EndSplineSet
EndChar

StartChar: copyright
Encoding: 169 169 104
Width: 1776
GlyphClass: 2
Flags: W
LayerCount: 2
Fore
SplineSet
1178.5 42.5 m 128,-1,1
 1042 -14 1042 -14 863 -14 c 128,-1,2
 684 -14 684 -14 515.5 82 c 128,-1,3
 347 178 347 178 249.5 347 c 128,-1,4
 152 516 152 516 152 721.5 c 128,-1,5
 152 927 152 927 249.5 1095.5 c 128,-1,6
 347 1264 347 1264 515.5 1360 c 128,-1,7
 684 1456 684 1456 888.5 1456 c 128,-1,8
 1093 1456 1093 1456 1262 1360 c 128,-1,9
 1431 1264 1431 1264 1527.5 1095.5 c 128,-1,10
 1624 927 1624 927 1624 747 c 128,-1,11
 1624 567 1624 567 1567 430.5 c 128,-1,12
 1510 294 1510 294 1412.5 196.5 c 128,-1,0
 1315 99 1315 99 1178.5 42.5 c 128,-1,1
566.5 165.5 m 128,-1,14
 711 82 711 82 890.5 82 c 128,-1,15
 1070 82 1070 82 1214 165.5 c 128,-1,16
 1358 249 1358 249 1438 395 c 128,-1,17
 1518 541 1518 541 1518 721.5 c 128,-1,18
 1518 902 1518 902 1438 1048 c 128,-1,19
 1358 1194 1358 1194 1214 1277.5 c 128,-1,20
 1070 1361 1070 1361 890.5 1361 c 128,-1,21
 711 1361 711 1361 566.5 1277.5 c 128,-1,22
 422 1194 422 1194 341.5 1048 c 128,-1,23
 261 902 261 902 261 722 c 128,-1,24
 261 542 261 542 341.5 395.5 c 128,-1,13
 422 249 422 249 566.5 165.5 c 128,-1,14
618.470588235 368 m 128,-1,26
 547 449 547 449 547 590 c 2,27,-1
 547 868 l 2,28,29
 547 1104.04225352 547 1104.04225352 722 1159.5 c 0,30,31
 793 1182 793 1182 895.5 1182 c 0,32,33
 1098.13978495 1182 1098.13978495 1182 1161.06989247 1094.64925373 c 128,-1,34
 1224 1007.29850746 1224 1007.29850746 1224 861 c 2,35,-1
 1224 836 l 1,36,-1
 1108 826 l 1,37,-1
 1108 890 l 2,38,39
 1108 1003 1108 1003 1060.5 1047 c 128,-1,40
 1013 1091 1013 1091 896.5 1091 c 128,-1,41
 780 1091 780 1091 723.5 1045.5 c 128,-1,42
 667 1000 667 1000 667 890 c 2,43,-1
 667 571 l 2,44,45
 667 462 667 462 723 419 c 128,-1,46
 779 376 779 376 897.5 376 c 128,-1,47
 1016 376 1016 376 1062 417.5 c 128,-1,48
 1108 459 1108 459 1108 571 c 2,49,-1
 1108 632 l 1,50,-1
 1224 632 l 1,51,-1
 1224 598 l 2,52,53
 1224 481.333333333 1224 481.333333333 1196 426.666666667 c 128,-1,54
 1168 372 1168 372 1133 345.5 c 0,55,56
 1055.73584906 287 1055.73584906 287 872.838512764 287 c 128,-1,25
 689.941176471 287 689.941176471 287 618.470588235 368 c 128,-1,26
EndSplineSet
EndChar

StartChar: ordfeminine
Encoding: 170 170 105
Width: 1024
GlyphClass: 2
Flags: W
LayerCount: 2
Fore
SplineSet
343.877394636 801.528750312 m 0,0,1
 343.877394636 684 343.877394636 684 458 684 c 2,2,-1
 459 684 l 2,3,4
 506 684 506 684 556 705 c 128,-1,5
 606 726 606 726 633 770 c 1,6,-1
 633 1002 l 1,7,8
 593 963 593 963 468.438697318 925.582375479 c 128,-1,9
 343.877394636 888.164750958 343.877394636 888.164750958 343.877394636 801.528750312 c 0,0,1
386 517 m 1,10,-1
 384 518 l 1,11,12
 273 518 273 518 203.30952381 587.178046218 c 128,-1,13
 133.619047619 656.356092437 133.619047619 656.356092437 133.619047619 786.501133787 c 0,14,15
 133.619047619 826.476190476 133.619047619 826.476190476 141.30952381 857.238095238 c 128,-1,16
 149 888 149 888 178 921 c 0,17,18
 234.514407684 985.309498399 234.514407684 985.309498399 469.5 1055.5 c 0,19,20
 575.622346369 1087.19888268 575.622346369 1087.19888268 589.811173184 1100.59944134 c 128,-1,21
 604 1114 604 1114 619 1132.91304348 c 128,-1,22
 634 1151.82608696 634 1151.82608696 634 1206.41304348 c 128,-1,23
 634 1261 634 1261 603.5 1288.5 c 128,-1,24
 573 1316 573 1316 498.5 1316 c 128,-1,25
 424 1316 424 1316 395 1284.5 c 128,-1,26
 366 1253 366 1253 366 1194 c 2,27,-1
 366 1158 l 1,28,-1
 161 1158 l 1,29,-1
 161 1185 l 2,30,31
 161 1323 161 1323 247 1400.5 c 128,-1,32
 333 1478 333 1478 512.5 1478 c 0,33,34
 854 1478 854 1478 854 1166 c 2,35,-1
 854 812 l 2,36,37
 854 748 854 748 871 724.5 c 128,-1,38
 888 701 888 701 940 701 c 1,39,-1
 922 531 l 1,40,-1
 837 531 l 2,41,42
 754 531 754 531 717 561 c 128,-1,43
 680 591 680 591 653 656 c 1,44,45
 612 599 612 599 542.5 558 c 128,-1,46
 473 517 473 517 386 517 c 1,10,-1
EndSplineSet
EndChar

StartChar: guillemotleft
Encoding: 171 171 106
Width: 1024
GlyphClass: 2
Flags: W
LayerCount: 2
Fore
SplineSet
761 80 m 1,0,-1
 481 530 l 1,1,-1
 754 980 l 1,2,-1
 899 910 l 1,3,-1
 694 530 l 1,4,-1
 899 150 l 1,5,-1
 761 80 l 1,0,-1
347 80 m 1,6,-1
 67 530 l 1,7,-1
 340 980 l 1,8,-1
 487 910 l 1,9,-1
 280 530 l 1,10,-1
 487 150 l 1,11,-1
 347 80 l 1,6,-1
EndSplineSet
EndChar

StartChar: logicalnot
Encoding: 172 172 107
Width: 1024
GlyphClass: 2
Flags: W
LayerCount: 2
Fore
SplineSet
705 226 m 1,0,-1
 705 587 l 1,1,-1
 129 587 l 1,2,-1
 129 757 l 1,3,-1
 853 757 l 1,4,-1
 853 226 l 1,5,-1
 705 226 l 1,0,-1
EndSplineSet
EndChar

StartChar: uni00AD
Encoding: 173 173 108
Width: 775
GlyphClass: 2
Flags: W
LayerCount: 2
Fore
SplineSet
131 400 m 1,0,-1
 131 591 l 1,1,-1
 656 591 l 1,2,-1
 656 400 l 1,3,-1
 131 400 l 1,0,-1
EndSplineSet
EndChar

StartChar: registered
Encoding: 174 174 109
Width: 1776
GlyphClass: 2
Flags: W
LayerCount: 2
Fore
SplineSet
1178.5 42.5 m 128,-1,1
 1042 -14 1042 -14 863 -14 c 128,-1,2
 684 -14 684 -14 515.5 82 c 128,-1,3
 347 178 347 178 249.5 347 c 128,-1,4
 152 516 152 516 152 721.5 c 128,-1,5
 152 927 152 927 249.5 1095.5 c 128,-1,6
 347 1264 347 1264 515.5 1360 c 128,-1,7
 684 1456 684 1456 888.5 1456 c 128,-1,8
 1093 1456 1093 1456 1262 1360 c 128,-1,9
 1431 1264 1431 1264 1527.5 1095.5 c 128,-1,10
 1624 927 1624 927 1624 747 c 128,-1,11
 1624 567 1624 567 1567 430.5 c 128,-1,12
 1510 294 1510 294 1412.5 196.5 c 128,-1,0
 1315 99 1315 99 1178.5 42.5 c 128,-1,1
566.5 165.5 m 128,-1,14
 711 82 711 82 890.5 82 c 128,-1,15
 1070 82 1070 82 1214 165.5 c 128,-1,16
 1358 249 1358 249 1438 395 c 128,-1,17
 1518 541 1518 541 1518 721.5 c 128,-1,18
 1518 902 1518 902 1438 1048 c 128,-1,19
 1358 1194 1358 1194 1214 1277.5 c 128,-1,20
 1070 1361 1070 1361 890.5 1361 c 128,-1,21
 711 1361 711 1361 566.5 1277.5 c 128,-1,22
 422 1194 422 1194 341.5 1048 c 128,-1,23
 261 902 261 902 261 722 c 128,-1,24
 261 542 261 542 341.5 395.5 c 128,-1,13
 422 249 422 249 566.5 165.5 c 128,-1,14
723 742 m 1,25,-1
 990 742 l 2,26,27
 1124 742 1124 742 1126 877 c 1,28,-1
 1126 901 l 2,29,30
 1126 1062 1126 1062 999 1062 c 2,31,-1
 723 1062 l 1,32,-1
 723 742 l 1,25,-1
592 319 m 1,33,-1
 592 1153 l 1,34,-1
 995 1153 l 2,35,36
 1252 1153 1252 1153 1258 908 c 1,37,-1
 1258 894 l 2,38,39
 1258 707 1258 707 1106 666 c 1,40,-1
 1290 319 l 1,41,-1
 1162 319 l 1,42,-1
 982 652 l 1,43,-1
 723 652 l 1,44,-1
 723 319 l 1,45,-1
 592 319 l 1,33,-1
EndSplineSet
EndChar

StartChar: macron
Encoding: 175 175 110
Width: 511
GlyphClass: 2
Flags: W
LayerCount: 2
Fore
SplineSet
-7 1251 m 1,0,-1
 -7 1408 l 1,1,-1
 518 1408 l 1,2,-1
 518 1251 l 1,3,-1
 -7 1251 l 1,0,-1
EndSplineSet
EndChar

StartChar: degree
Encoding: 176 176 111
Width: 974
GlyphClass: 2
Flags: W
LayerCount: 2
Fore
SplineSet
128 1181.80681818 m 128,-1,1
 128 1317 128 1317 223.5 1414 c 128,-1,2
 319 1511 319 1511 488 1511 c 128,-1,3
 657 1511 657 1511 751.5 1414 c 128,-1,4
 846 1317 846 1317 846 1180.5 c 128,-1,5
 846 1044 846 1044 751.5 947 c 128,-1,6
 657 850 657 850 485.521505376 850 c 128,-1,7
 314.043010753 850 314.043010753 850 221.021505376 948.306818182 c 128,-1,0
 128 1046.61363636 128 1046.61363636 128 1181.80681818 c 128,-1,1
339.5 1046.5 m 128,-1,9
 391 992 391 992 488 992 c 128,-1,10
 585 992 585 992 636.5 1046.5 c 128,-1,11
 688 1101 688 1101 688 1180.5 c 128,-1,12
 688 1260 688 1260 636.5 1315 c 128,-1,13
 585 1370 585 1370 488 1370 c 128,-1,14
 391 1370 391 1370 339.5 1315 c 128,-1,15
 288 1260 288 1260 288 1180.5 c 128,-1,8
 288 1101 288 1101 339.5 1046.5 c 128,-1,9
EndSplineSet
EndChar

StartChar: plusminus
Encoding: 177 177 112
Width: 1024
GlyphClass: 2
Flags: W
LayerCount: 2
Fore
SplineSet
171 0 m 1,0,-1
 171 165 l 1,1,-1
 853 165 l 1,2,-1
 853 0 l 1,3,-1
 171 0 l 1,0,-1
429 326 m 1,4,-1
 429 591 l 1,5,-1
 171 591 l 1,6,-1
 171 755 l 1,7,-1
 429 755 l 1,8,-1
 429 1018 l 1,9,-1
 595 1018 l 1,10,-1
 595 755 l 1,11,-1
 853 755 l 1,12,-1
 853 591 l 1,13,-1
 595 591 l 1,14,-1
 595 326 l 1,15,-1
 429 326 l 1,4,-1
EndSplineSet
EndChar

StartChar: uni00B3
Encoding: 179 179 113
Width: 834
GlyphClass: 2
Flags: W
LayerCount: 2
Fore
SplineSet
417 624 m 0,0,1
 513 624 513 624 513 759 c 0,2,3
 513 822 513 822 477 849.5 c 128,-1,4
 441 877 441 877 342 877 c 1,5,-1
 342 999 l 1,6,7
 472.87755102 999 472.87755102 999 496 1050.5 c 0,8,9
 507 1075 507 1075 507 1121 c 0,10,11
 507 1241 507 1241 415 1241 c 0,12,13
 312 1241 312 1241 312 1097 c 1,14,-1
 144 1097 l 1,15,16
 145 1230 145 1230 216.5 1296.5 c 128,-1,17
 288 1363 288 1363 410.5 1363 c 128,-1,18
 533 1363 533 1363 604.5 1299.5 c 128,-1,19
 676 1236 676 1236 676 1121 c 0,20,21
 676 980 676 980 541 938 c 1,22,23
 682 895 682 895 682 749 c 0,24,25
 682 630 682 630 610 565 c 128,-1,26
 538 500 538 500 410.5 500 c 128,-1,27
 283 500 283 500 212.5 567 c 128,-1,28
 142 634 142 634 140 770 c 1,29,-1
 309 770 l 1,30,31
 312 624 312 624 417 624 c 0,0,1
EndSplineSet
EndChar

StartChar: acute
Encoding: 180 180 114
Width: 554
GlyphClass: 2
Flags: W
LayerCount: 2
Fore
SplineSet
106 1157 m 1,0,-1
 220 1522 l 1,1,-1
 488 1522 l 1,2,-1
 255 1157 l 1,3,-1
 106 1157 l 1,0,-1
EndSplineSet
EndChar

StartChar: uni00B5
Encoding: 181 181 115
Width: 1246
GlyphClass: 2
Flags: W
LayerCount: 2
Fore
SplineSet
719 22 m 128,-1,1
 652 -19 652 -19 568 -19 c 128,-1,2
 484 -19 484 -19 400 2 c 1,3,-1
 400 -236 l 1,4,-1
 148 -236 l 1,5,-1
 148 1074 l 1,6,-1
 420 1074 l 1,7,-1
 420 308 l 2,8,9
 420 232 420 232 473.5 199 c 128,-1,10
 527 166 527 166 605.5 166 c 128,-1,11
 684 166 684 166 749.5 206.5 c 128,-1,12
 815 247 815 247 815 317 c 2,13,-1
 815 1074 l 1,14,-1
 1088 1074 l 1,15,-1
 1088 0 l 1,16,-1
 821 0 l 1,17,-1
 815 135 l 1,18,0
 786 63 786 63 719 22 c 128,-1,1
EndSplineSet
EndChar

StartChar: paragraph
Encoding: 182 182 116
Width: 1222
GlyphClass: 2
Flags: W
LayerCount: 2
Fore
SplineSet
447 0 m 1,0,-1
 447 858 l 1,1,2
 294 859 294 859 194.5 940.5 c 128,-1,3
 95 1022 95 1022 95 1173 c 0,4,5
 95 1396.7751938 95 1396.7751938 322.5 1458.5 c 0,6,7
 387 1476 387 1476 462 1476 c 2,8,-1
 1022 1476 l 1,9,-1
 1022 0 l 1,10,-1
 850 0 l 1,11,-1
 850 1334 l 1,12,-1
 619 1334 l 1,13,-1
 619 0 l 1,14,-1
 447 0 l 1,0,-1
EndSplineSet
EndChar

StartChar: periodcentered
Encoding: 183 183 117
Width: 512
GlyphClass: 2
Flags: W
LayerCount: 2
Fore
SplineSet
132 780 m 1,0,-1
 132 1025 l 1,1,-1
 380 1025 l 1,2,-1
 380 780 l 1,3,-1
 132 780 l 1,0,-1
EndSplineSet
EndChar

StartChar: cedilla
Encoding: 184 184 118
Width: 512
GlyphClass: 2
Flags: W
LayerCount: 2
Fore
SplineSet
215 -494 m 0,0,1
 165 -494 165 -494 120 -485 c 1,2,-1
 120 -368 l 1,3,4
 154 -375 154 -375 198 -375 c 128,-1,5
 242 -375 242 -375 272 -351.5 c 128,-1,6
 302 -328 302 -328 302 -286 c 128,-1,7
 302 -244 302 -244 264 -209 c 128,-1,8
 226 -174 226 -174 157 -172 c 1,9,-1
 157 0 l 1,10,-1
 233 0 l 1,11,-1
 239 -101 l 1,12,13
 344 -120 344 -120 402 -179.5 c 128,-1,14
 460 -239 460 -239 460 -313 c 128,-1,15
 460 -387 460 -387 396 -440.5 c 128,-1,16
 332 -494 332 -494 215 -494 c 0,0,1
EndSplineSet
EndChar

StartChar: ordmasculine
Encoding: 186 186 119
Width: 1024
GlyphClass: 2
Flags: W
LayerCount: 2
Fore
SplineSet
513 512 m 1,0,1
 136 512 136 512 136 811 c 2,2,-1
 136 1175 l 2,3,4
 136 1316 136 1316 234.5 1395.5 c 128,-1,5
 333 1475 333 1475 511.5 1475 c 128,-1,6
 690 1475 690 1475 789 1395.5 c 128,-1,7
 888 1316 888 1316 888 1175 c 2,8,-1
 888 811 l 2,9,10
 888 666 888 666 801.5 589.5 c 128,-1,11
 715 513 715 513 513 512 c 1,0,1
509 675 m 2,12,-1
 511 675 l 2,13,14
 667 675 667 675 667 802 c 2,15,-1
 667 1187 l 2,16,17
 667 1255 667 1255 627.5 1284.5 c 128,-1,18
 588 1314 588 1314 510 1314 c 0,19,20
 352 1314 352 1314 352 1187 c 2,21,-1
 352 802 l 2,22,23
 352 734 352 734 391 704.5 c 128,-1,24
 430 675 430 675 509 675 c 2,12,-1
EndSplineSet
EndChar

StartChar: guillemotright
Encoding: 187 187 120
Width: 1024
GlyphClass: 2
Flags: W
LayerCount: 2
Fore
SplineSet
713 80 m 1,0,-1
 566 150 l 1,1,-1
 773 530 l 1,2,-1
 566 910 l 1,3,-1
 706 980 l 1,4,-1
 986 530 l 1,5,-1
 713 80 l 1,0,-1
299 80 m 1,6,-1
 154 150 l 1,7,-1
 359 530 l 1,8,-1
 154 910 l 1,9,-1
 292 980 l 1,10,-1
 572 530 l 1,11,-1
 299 80 l 1,6,-1
EndSplineSet
EndChar

StartChar: onequarter
Encoding: 188 188 121
Width: 2433
GlyphClass: 2
Flags: W
LayerCount: 2
Fore
SplineSet
849 0 m 1,0,-1
 1490 1505 l 1,1,-1
 1664 1505 l 1,2,-1
 1023 0 l 1,3,-1
 849 0 l 1,0,-1
1978 0 m 1,4,-1
 1978 210 l 1,5,-1
 1477 210 l 1,6,-1
 1477 369 l 1,7,-1
 1757 1074 l 1,8,-1
 1948 1074 l 1,9,-1
 1679 373 l 1,10,-1
 1978 373 l 1,11,-1
 1978 615 l 1,12,-1
 2137 615 l 1,13,-1
 2137 373 l 1,14,-1
 2305 373 l 1,15,-1
 2305 210 l 1,16,-1
 2137 210 l 1,17,-1
 2137 0 l 1,18,-1
 1978 0 l 1,4,-1
131 422 m 1,19,-1
 130 569 l 1,20,-1
 398 569 l 1,21,-1
 398 1318 l 1,22,-1
 146 1279 l 1,23,-1
 128 1424 l 1,24,-1
 464 1477 l 1,25,-1
 610 1477 l 1,26,-1
 610 569 l 1,27,-1
 856 569 l 1,28,-1
 856 422 l 1,29,-1
 131 422 l 1,19,-1
EndSplineSet
EndChar

StartChar: onehalf
Encoding: 189 189 122
Width: 2579
GlyphClass: 2
Flags: W
LayerCount: 2
Fore
SplineSet
1723 -2 m 1,0,-1
 1678 159 l 1,1,-1
 2033 518 l 2,2,3
 2103 588 2103 588 2135.25378788 644.948094223 c 0,4,5
 2167.50757576 701.896188447 2167.50757576 701.896188447 2167.50757576 771.217033617 c 0,6,7
 2167.50757576 840.537878788 2167.50757576 840.537878788 2135.25378788 875.768939394 c 0,8,9
 2103 911 2103 911 2016 911 c 128,-1,10
 1929 911 1929 911 1899.5 868.5 c 128,-1,11
 1870 826 1870 826 1870 706 c 1,12,-1
 1652 706 l 1,13,14
 1652 900 1652 900 1734 985.5 c 128,-1,15
 1816 1071 1816 1071 2025 1071 c 0,16,17
 2381 1071 2381 1071 2381 767 c 0,18,19
 2381 661 2381 661 2326.5 575 c 128,-1,20
 2272 489 2272 489 2166 386 c 2,21,-1
 1933 160 l 1,22,-1
 2370 160 l 1,23,-1
 2370 -2 l 1,24,-1
 1723 -2 l 1,0,-1
879 0 m 1,25,-1
 1520 1505 l 1,26,-1
 1694 1505 l 1,27,-1
 1053 0 l 1,28,-1
 879 0 l 1,25,-1
131 422 m 1,29,-1
 130 569 l 1,30,-1
 398 569 l 1,31,-1
 398 1318 l 1,32,-1
 146 1279 l 1,33,-1
 128 1424 l 1,34,-1
 464 1477 l 1,35,-1
 610 1477 l 1,36,-1
 610 569 l 1,37,-1
 856 569 l 1,38,-1
 856 422 l 1,39,-1
 131 422 l 1,29,-1
EndSplineSet
EndChar

StartChar: threequarters
Encoding: 190 190 123
Width: 2882
GlyphClass: 2
Flags: W
LayerCount: 2
Fore
SplineSet
803 990 m 1,0,1
 967 946.266666667 967 946.266666667 967 760 c 0,2,3
 967 614.298701299 967 614.298701299 890.303370787 525.649350649 c 128,-1,4
 813.606741573 437 813.606741573 437 613.803370787 437 c 128,-1,5
 414 437 414 437 331.5 515 c 128,-1,6
 249 593 249 593 245 773 c 1,7,-1
 430 773 l 1,8,9
 431.979240999 654.245540058 431.979240999 654.245540058 476.422052932 622.622770029 c 128,-1,10
 520.864864865 591 520.864864865 591 618.432432432 591 c 128,-1,11
 716 591 716 591 747.5 630 c 128,-1,12
 779 669 779 669 779 743 c 128,-1,13
 779 817 779 817 763 850 c 0,14,15
 730.515151515 917 730.515151515 917 562 917 c 1,16,-1
 562 1059 l 1,17,18
 731.372093023 1059 731.372093023 1059 757.5 1112.5 c 0,19,20
 773 1144.23809524 773 1144.23809524 773 1211.11904762 c 128,-1,21
 773 1278 773 1278 737 1311 c 128,-1,22
 701 1344 701 1344 602 1344 c 128,-1,23
 503 1344 503 1344 468.486111111 1308.00694444 c 128,-1,24
 433.972222222 1272.01388889 433.972222222 1272.01388889 433.972222222 1162.3283179 c 0,25,26
 433.972222222 1159.19444444 433.972222222 1159.19444444 434 1156 c 1,27,-1
 249 1156 l 1,28,29
 249 1351.5 249 1351.5 345.333333333 1423.75 c 128,-1,30
 441.666666667 1496 441.666666667 1496 613.333333333 1496 c 128,-1,31
 785 1496 785 1496 871.5 1423.5 c 128,-1,32
 958 1351 958 1351 958 1212.53846154 c 128,-1,33
 958 1074.07692308 958 1074.07692308 883.5 1022.5 c 0,34,35
 851 1000 851 1000 803 990 c 1,0,1
2018 0 m 1,36,-1
 2018 210 l 1,37,-1
 1517 210 l 1,38,-1
 1517 369 l 1,39,-1
 1797 1074 l 1,40,-1
 1988 1074 l 1,41,-1
 1719 373 l 1,42,-1
 2018 373 l 1,43,-1
 2018 615 l 1,44,-1
 2177 615 l 1,45,-1
 2177 373 l 1,46,-1
 2345 373 l 1,47,-1
 2345 210 l 1,48,-1
 2177 210 l 1,49,-1
 2177 0 l 1,50,-1
 2018 0 l 1,36,-1
889 0 m 1,51,-1
 1530 1505 l 1,52,-1
 1704 1505 l 1,53,-1
 1063 0 l 1,54,-1
 889 0 l 1,51,-1
EndSplineSet
EndChar

StartChar: AE
Encoding: 198 198 131
Width: 1834
GlyphClass: 2
Flags: W
LayerCount: 2
Fore
SplineSet
527 477 m 1,0,-1
 893 477 l 1,1,-1
 893 1249 l 1,2,-1
 757 1249 l 1,3,-1
 527 477 l 1,0,-1
393 0 m 1,4,-1
 83 0 l 1,5,-1
 539 1477 l 1,6,-1
 1700 1477 l 1,7,-1
 1700 1249 l 1,8,-1
 1173 1249 l 1,9,-1
 1173 858 l 1,10,-1
 1630 858 l 1,11,-1
 1630 645 l 1,12,-1
 1173 645 l 1,13,-1
 1173 227 l 1,14,-1
 1710 227 l 1,15,-1
 1710 0 l 1,16,-1
 893 0 l 1,17,-1
 893 281 l 1,18,-1
 472 281 l 1,19,-1
 393 0 l 1,4,-1
EndSplineSet
EndChar

StartChar: Eth
Encoding: 208 208 141
Width: 1568
GlyphClass: 2
Flags: W
LayerCount: 2
Fore
SplineSet
509 231 m 1,0,-1
 827 231 l 2,1,2
 979 231 979 231 1039 287 c 128,-1,3
 1099 343 1099 343 1099 470 c 2,4,-1
 1099 1000 l 2,5,6
 1099 1125 1099 1125 1037.5 1185 c 128,-1,7
 976 1245 976 1245 827 1245 c 2,8,-1
 509 1245 l 1,9,-1
 509 848 l 1,10,-1
 815 848 l 1,11,-1
 815 698 l 1,12,-1
 509 698 l 1,13,-1
 509 231 l 1,0,-1
212 848 m 1,14,-1
 212 1477 l 1,15,-1
 852 1477 l 2,16,17
 1206.82835821 1477 1206.82835821 1477 1327.5 1267 c 0,18,19
 1396 1147.79220779 1396 1147.79220779 1396 961 c 2,20,-1
 1396 508 l 2,21,22
 1396 134.296296296 1396 134.296296296 1112 37 c 0,23,24
 1004 0 1004 0 853 0 c 2,25,-1
 212 0 l 1,26,-1
 212 698 l 1,27,-1
 90 698 l 1,28,-1
 90 848 l 1,29,-1
 212 848 l 1,14,-1
EndSplineSet
EndChar

StartChar: multiply
Encoding: 215 215 148
Width: 1025
GlyphClass: 2
Flags: W
LayerCount: 2
Fore
SplineSet
265 216 m 1,0,-1
 154 344 l 1,1,-1
 392 576 l 1,2,-1
 154 806 l 1,3,-1
 265 937 l 1,4,-1
 513 694 l 1,5,-1
 761 937 l 1,6,-1
 871 806 l 1,7,-1
 634 576 l 1,8,-1
 871 344 l 1,9,-1
 761 216 l 1,10,-1
 513 458 l 1,11,-1
 265 216 l 1,0,-1
EndSplineSet
EndChar

StartChar: Oslash
Encoding: 216 216 149
Width: 1630
GlyphClass: 2
Flags: W
LayerCount: 2
Fore
SplineSet
970 1253 m 1,0,1
 906 1268 906 1268 820 1268 c 0,2,3
 645 1268 645 1268 554.5 1208 c 128,-1,4
 464 1148 464 1148 464 1003 c 2,5,-1
 464 468 l 2,6,7
 464 305 464 305 585 246 c 1,8,-1
 970 1253 l 1,0,1
1142 1454 m 1,9,10
 1452 1344.84507042 1452 1344.84507042 1452 948 c 2,11,-1
 1452 517 l 2,12,13
 1452 214.604316547 1452 214.604316547 1262.5 81 c 0,14,15
 1110.73469388 -26 1110.73469388 -26 820 -26 c 0,16,17
 683 -26 683 -26 584 -7 c 1,18,-1
 504 -217 l 1,19,-1
 417 -194 l 1,20,-1
 497 14 l 1,21,22
 306.247851695 72.2296031669 306.247851695 72.2296031669 236.123925847 199.816190472 c 128,-1,23
 166 327.402777778 166 327.402777778 166 501 c 2,24,-1
 166 963 l 2,25,26
 166 1273.85416667 166 1273.85416667 359 1398.5 c 0,27,28
 517.709677419 1501 517.709677419 1501 820 1501 c 0,29,30
 953 1501 953 1501 1056 1478 c 1,31,-1
 1140 1698 l 1,32,-1
 1227 1675 l 1,33,-1
 1142 1454 l 1,9,10
820 207 m 0,34,35
 995 207 995 207 1074.5 264.5 c 128,-1,36
 1154 322 1154 322 1154 468 c 2,37,-1
 1154 1003 l 2,38,39
 1154 1161 1154 1161 1054 1221 c 1,40,-1
 671 219 l 1,41,42
 730 207 730 207 820 207 c 0,34,35
EndSplineSet
EndChar

StartChar: Thorn
Encoding: 222 222 155
Width: 1362
GlyphClass: 2
Flags: W
LayerCount: 2
Fore
SplineSet
513 567 m 1,0,-1
 825 567 l 2,1,2
 935 567 935 567 969.5 613.5 c 128,-1,3
 1004 660 1004 660 1004 790.5 c 128,-1,4
 1004 921 1004 921 969 977 c 128,-1,5
 934 1033 934 1033 834 1033 c 2,6,-1
 513 1033 l 1,7,-1
 513 567 l 1,0,-1
216 0 m 1,8,-1
 216 1476 l 1,9,-1
 513 1476 l 1,10,-1
 513 1240 l 1,11,-1
 806 1240 l 2,12,13
 1052.63265306 1240 1052.63265306 1240 1162.31632653 1148.90677966 c 128,-1,14
 1272 1057.81355932 1272 1057.81355932 1272 811 c 0,15,16
 1272 635 1272 635 1228.5 539 c 128,-1,17
 1185 443 1185 443 1079 399.5 c 128,-1,18
 973 356 973 356 778 356 c 2,19,-1
 513 356 l 1,20,-1
 513 0 l 1,21,-1
 216 0 l 1,8,-1
EndSplineSet
EndChar

StartChar: germandbls
Encoding: 223 223 156
Width: 1286
GlyphClass: 2
Flags: W
LayerCount: 2
Fore
SplineSet
873 819 m 1,0,1
 1194 724.056338028 1194 724.056338028 1194 387.819526627 c 0,2,3
 1194 202 1194 202 1057 91 c 128,-1,4
 920 -20 920 -20 622 -20 c 1,5,-1
 622 169 l 1,6,7
 794 169 794 169 867.5 235 c 128,-1,8
 941 301 941 301 941 422 c 2,9,-1
 941 439 l 1,10,11
 936 573 936 573 862.5 630 c 128,-1,12
 789 687 789 687 636 703 c 1,13,-1
 636 893 l 1,14,15
 807.169014085 893 807.169014085 893 844.5 1032.5 c 0,16,17
 854 1068 854 1068 854 1099 c 0,18,19
 854 1222.21904762 854 1222.21904762 797.5 1270.10952381 c 128,-1,20
 741 1318 741 1318 630.5 1318 c 128,-1,21
 520 1318 520 1318 476 1269.5 c 128,-1,22
 432 1221 432 1221 432 1129 c 2,23,-1
 432 0 l 1,24,-1
 158 0 l 1,25,-1
 158 1118 l 2,26,27
 158 1300 158 1300 273.5 1403.5 c 128,-1,28
 389 1507 389 1507 613 1507 c 0,29,30
 1097 1507 1097 1507 1097 1113 c 0,31,32
 1097 1019 1097 1019 1038 938 c 128,-1,33
 979 857 979 857 873 819 c 1,0,1
EndSplineSet
EndChar

StartChar: ae
Encoding: 230 230 163
Width: 1734
GlyphClass: 2
Flags: W
LayerCount: 2
Fore
SplineSet
1012 655 m 1,0,-1
 1371 655 l 1,1,-1
 1371 765 l 2,2,3
 1371 848 1371 848 1327 877.5 c 128,-1,4
 1283 907 1283 907 1194 907 c 128,-1,5
 1105 907 1105 907 1058.5 874 c 128,-1,6
 1012 841 1012 841 1012 760 c 2,7,-1
 1012 655 l 1,0,-1
372.975975976 292.918738558 m 0,8,9
 372.975975976 228.940844955 372.975975976 228.940844955 410.487987988 192.970422477 c 128,-1,10
 448 157 448 157 511.5 157 c 128,-1,11
 575 157 575 157 640 182 c 128,-1,12
 705 207 705 207 739 259 c 1,13,-1
 739 520 l 1,14,15
 700 487 700 487 536.487987988 449.725225225 c 128,-1,16
 372.975975976 412.45045045 372.975975976 412.45045045 372.975975976 292.918738558 c 0,8,9
1012 321 m 2,17,18
 1012 166 1012 166 1171 166 c 0,19,20
 1241 166 1241 166 1270 171.5 c 128,-1,21
 1299 177 1299 177 1323.5 196 c 0,22,23
 1368.05641194 230.553952115 1368.05641194 230.553952115 1370 353 c 1,24,-1
 1622 353 l 1,25,26
 1618.12261307 172.701507538 1618.12261307 172.701507538 1552.71335877 89.4533657091 c 128,-1,27
 1487.30410448 6.2052238806 1487.30410448 6.2052238806 1342.5 -14 c 0,28,29
 1278 -23 1278 -23 1186 -23 c 0,30,31
 929 -23 929 -23 847 130 c 1,32,33
 757 51 757 51 660.5 14 c 128,-1,34
 564 -23 564 -23 423 -23 c 128,-1,35
 282 -23 282 -23 196.752371554 57.6257690728 c 128,-1,36
 111.504743107 138.251538146 111.504743107 138.251538146 111.504743107 280.884340201 c 128,-1,37
 111.504743107 423.517142256 111.504743107 423.517142256 197.816751412 486.182024998 c 128,-1,38
 284.128759716 548.846907739 284.128759716 548.846907739 520 603.5 c 0,39,40
 647.519685039 633.047244094 647.519685039 633.047244094 680.237379957 650.011974793 c 0,41,42
 739 680.481481481 739 680.481481481 739 770 c 0,43,44
 739 908 739 908 567 908 c 0,45,46
 472 908 472 908 436 867 c 128,-1,47
 400 826 400 826 400 755 c 2,48,-1
 400 719 l 1,49,-1
 144 719 l 1,50,-1
 144 745 l 2,51,52
 144 907 144 907 251.5 1002 c 128,-1,53
 359 1097 359 1097 573 1097 c 0,54,55
 679 1097 679 1097 761.5 1064 c 128,-1,56
 844 1031 844 1031 878 967 c 1,57,58
 984 1097 984 1097 1202.5 1097 c 0,59,60
 1624 1097 1624 1097 1624 745 c 2,61,-1
 1624 514 l 1,62,-1
 1012 514 l 1,63,-1
 1012 321 l 2,17,18
EndSplineSet
EndChar

StartChar: eth
Encoding: 240 240 173
Width: 1312
GlyphClass: 2
Flags: W
LayerCount: 2
Fore
SplineSet
497.5 213.5 m 128,-1,1
 551 178 551 178 645.5 178 c 128,-1,2
 740 178 740 178 783 188.5 c 0,3,4
 866.23006135 208.823619632 866.23006135 208.823619632 888.115030675 265.219502124 c 128,-1,5
 910 321.615384615 910 321.615384615 910 465.807692308 c 128,-1,6
 910 610 910 610 887 736 c 1,7,8
 856 758 856 758 789.5 775.5 c 128,-1,9
 723 793 723 793 677 793 c 0,10,11
 444 793 444 793 444 612 c 2,12,-1
 444 333 l 2,13,0
 444 249 444 249 497.5 213.5 c 128,-1,1
293 73 m 128,-1,15
 166 169 166 169 166 342 c 2,16,-1
 166 618 l 2,17,18
 166 785 166 785 292.5 880 c 128,-1,19
 419 975 419 975 621 975 c 0,20,21
 672 975 672 975 758 956.5 c 128,-1,22
 844 938 844 938 864 921 c 1,23,24
 848 1073 848 1073 774 1164.5 c 128,-1,25
 700 1256 700 1256 602 1284 c 1,26,-1
 513 1110 l 1,27,-1
 394 1167 l 1,28,-1
 471 1318 l 1,29,30
 387 1333 387 1333 233 1335 c 1,31,-1
 257 1502 l 1,32,33
 302.692307692 1505.1025641 302.692307692 1505.1025641 379.743589744 1505.1025641 c 128,-1,34
 456.794871795 1505.1025641 456.794871795 1505.1025641 553 1485 c 1,35,-1
 638 1655 l 1,36,-1
 758 1598 l 1,37,-1
 684 1448 l 1,38,39
 1057.65262766 1339.21505777 1057.65262766 1339.21505777 1152 854 c 0,40,41
 1180 710 1180 710 1180 536 c 2,42,-1
 1180 460 l 2,43,44
 1180 249.928571429 1180 249.928571429 1067.61764706 113.464285714 c 128,-1,45
 955.235294118 -23 955.235294118 -23 687.617647059 -23 c 128,-1,14
 420 -23 420 -23 293 73 c 128,-1,15
EndSplineSet
EndChar

StartChar: divide
Encoding: 247 247 180
Width: 1004
GlyphClass: 2
Flags: W
LayerCount: 2
Fore
SplineSet
389 792 m 1,0,-1
 389 1021 l 1,1,-1
 617 1021 l 1,2,-1
 617 792 l 1,3,-1
 389 792 l 1,0,-1
112 479 m 1,4,-1
 112 642 l 1,5,-1
 892 642 l 1,6,-1
 892 479 l 1,7,-1
 112 479 l 1,4,-1
389 94 m 1,8,-1
 389 323 l 1,9,-1
 617 323 l 1,10,-1
 617 94 l 1,11,-1
 389 94 l 1,8,-1
EndSplineSet
EndChar

StartChar: oslash
Encoding: 248 248 181
Width: 1228
GlyphClass: 2
Flags: W
LayerCount: 2
Fore
SplineSet
705 892 m 1,0,1
 662 907 662 907 598 907 c 0,2,3
 404 907 404 907 404 760 c 2,4,-1
 404 313 l 2,5,6
 404 232 404 232 455 198 c 1,7,-1
 705 892 l 1,0,1
1064 325 m 2,8,9
 1064 -23 1064 -23 624 -23 c 0,10,11
 522 -23 522 -23 459 -14 c 1,12,-1
 387 -214 l 1,13,-1
 315 -194 l 1,14,-1
 385 1 l 1,15,16
 132 67 132 67 132 325 c 2,17,-1
 132 748 l 2,18,19
 132 913 132 913 254.5 1005 c 128,-1,20
 377 1097 377 1097 598 1097 c 0,21,22
 694 1097 694 1097 772 1079 c 1,23,-1
 844 1281 l 1,24,-1
 916 1260 l 1,25,-1
 843 1057 l 1,26,27
 950 1016 950 1016 1007 937 c 128,-1,28
 1064 858 1064 858 1064 748 c 2,29,-1
 1064 325 l 2,8,9
598 166 m 0,30,31
 791 166 791 166 791 313 c 2,32,-1
 791 760 l 2,33,34
 791 813 791 813 768 847 c 1,35,-1
 525 172 l 1,36,37
 558 166 558 166 598 166 c 0,30,31
EndSplineSet
EndChar

StartChar: thorn
Encoding: 254 254 187
Width: 1212
GlyphClass: 2
Flags: W
LayerCount: 2
Fore
SplineSet
614 165 m 0,0,1
 807 165 807 165 807 320 c 2,2,-1
 807 755 l 2,3,4
 807 906 807 906 623 906 c 0,5,6
 562 906 562 906 510 886.5 c 128,-1,7
 458 867 458 867 431 841 c 1,8,-1
 431 213 l 1,9,10
 521 165 521 165 614 165 c 0,0,1
158 -410 m 1,11,-1
 158 1516 l 1,12,-1
 431 1516 l 1,13,-1
 431 1036 l 1,14,15
 537 1095 537 1095 668 1095 c 0,16,17
 861 1095 861 1095 970.5 1001.5 c 128,-1,18
 1080 908 1080 908 1080 751 c 2,19,-1
 1080 326 l 2,20,21
 1080 178 1080 178 965.5 77 c 128,-1,22
 851 -24 851 -24 636 -24 c 0,23,24
 525 -24 525 -24 431 17 c 1,25,-1
 431 -410 l 1,26,-1
 158 -410 l 1,11,-1
EndSplineSet
EndChar

StartChar: dcroat
Encoding: 273 273 206
Width: 1244
GlyphClass: 2
Flags: W
LayerCount: 2
Fore
SplineSet
560 -23 m 0,0,1
 346 -23 346 -23 239 67.5 c 128,-1,2
 132 158 132 158 132 324 c 2,3,-1
 132 753 l 2,4,5
 132 910 132 910 243 1003.5 c 128,-1,6
 354 1097 354 1097 579 1097 c 0,7,8
 675 1097 675 1097 779 1059 c 1,9,-1
 779 1246 l 1,10,-1
 457 1246 l 1,11,-1
 457 1360 l 1,12,-1
 779 1360 l 1,13,-1
 779 1516 l 1,14,-1
 1052 1516 l 1,15,-1
 1052 1360 l 1,16,-1
 1226 1360 l 1,17,-1
 1226 1246 l 1,18,-1
 1052 1246 l 1,19,-1
 1052 0 l 1,20,-1
 867 0 l 1,21,-1
 838 63 l 1,22,23
 715 -23 715 -23 560 -23 c 0,0,1
452 204 m 128,-1,25
 499 168 499 168 603 168 c 128,-1,26
 707 168 707 168 779 211 c 1,27,-1
 779 870 l 1,28,29
 701 907 701 907 603 907 c 128,-1,30
 505 907 505 907 455 872.5 c 128,-1,31
 405 838 405 838 405 759 c 2,32,-1
 405 320 l 2,33,24
 405 240 405 240 452 204 c 128,-1,25
EndSplineSet
EndChar

StartChar: gcommaaccent
Encoding: 291 291 224
Width: 1252
GlyphClass: 2
Flags: W
LayerCount: 2
Fore
SplineSet
495 1230 m 1
 495 1453 l 2
 495 1586 495 1586 561 1711.5 c 0
 627 1837 627 1837 691 1895 c 1
 798 1849 l 1
 747 1791 747 1791 699.5 1694.5 c 0
 652 1598 652 1598 652 1506 c 1
 817 1506 l 1
 817 1230 l 1
 495 1230 l 1
EndSplineSet
Refer: 71 103 N 1 0 0 1 0 0 2
EndChar

StartChar: Hbar
Encoding: 294 294 227
Width: 1664
GlyphClass: 2
Flags: W
LayerCount: 2
Fore
SplineSet
513 1091 m 1,0,-1
 513 848 l 1,1,-1
 1159 848 l 1,2,-1
 1159 1091 l 1,3,-1
 513 1091 l 1,0,-1
216 1195 m 1,4,-1
 216 1476 l 1,5,-1
 513 1476 l 1,6,-1
 513 1195 l 1,7,-1
 1159 1195 l 1,8,-1
 1159 1476 l 1,9,-1
 1456 1476 l 1,10,-1
 1456 1195 l 1,11,-1
 1560 1195 l 1,12,-1
 1560 1091 l 1,13,-1
 1456 1091 l 1,14,-1
 1456 0 l 1,15,-1
 1159 0 l 1,16,-1
 1159 615 l 1,17,-1
 513 615 l 1,18,-1
 513 0 l 1,19,-1
 216 0 l 1,20,-1
 216 1091 l 1,21,-1
 104 1091 l 1,22,-1
 104 1195 l 1,23,-1
 216 1195 l 1,4,-1
EndSplineSet
EndChar

StartChar: hbar
Encoding: 295 295 228
Width: 1289
GlyphClass: 2
Flags: W
LayerCount: 2
Fore
SplineSet
178 0 m 1,0,-1
 178 1221 l 1,1,-1
 45 1221 l 1,2,-1
 45 1364 l 1,3,-1
 178 1364 l 1,4,-1
 178 1515 l 1,5,-1
 451 1515 l 1,6,-1
 451 1364 l 1,7,-1
 775 1364 l 1,8,-1
 775 1221 l 1,9,-1
 451 1221 l 1,10,-1
 451 960 l 1,11,12
 486 1018 486 1018 579 1057.5 c 128,-1,13
 672 1097 672 1097 781 1097 c 0,14,15
 935 1097 935 1097 1027.5 1014 c 128,-1,16
 1120 931 1120 931 1120 795 c 2,17,-1
 1120 0 l 1,18,-1
 847 0 l 1,19,-1
 847 769 l 2,20,21
 847 907 847 907 664 907 c 0,22,23
 581 907 581 907 516 869 c 128,-1,24
 451 831 451 831 451 759 c 2,25,-1
 451 0 l 1,26,-1
 178 0 l 1,0,-1
EndSplineSet
EndChar

StartChar: dotlessi
Encoding: 305 305 238
Width: 598
GlyphClass: 2
Flags: W
LayerCount: 2
Fore
SplineSet
166 0 m 1,0,-1
 166 1074 l 1,1,-1
 438 1074 l 1,2,-1
 438 0 l 1,3,-1
 166 0 l 1,0,-1
EndSplineSet
EndChar

StartChar: kgreenlandic
Encoding: 312 312 245
Width: 1213
GlyphClass: 2
Flags: W
LayerCount: 2
Fore
SplineSet
171 0 m 1,0,-1
 171 1074 l 1,1,-1
 444 1074 l 1,2,-1
 444 602 l 1,3,4
 471 630 471 630 645.5 838.5 c 128,-1,5
 820 1047 820 1047 845 1074 c 1,6,-1
 1169 1074 l 1,7,-1
 771 605 l 1,8,-1
 1190 0 l 1,9,-1
 864 0 l 1,10,-1
 540 483 l 1,11,-1
 444 385 l 1,12,-1
 444 0 l 1,13,-1
 171 0 l 1,0,-1
EndSplineSet
EndChar

StartChar: Lslash
Encoding: 321 321 254
Width: 1210
GlyphClass: 2
Flags: W
LayerCount: 2
Fore
SplineSet
212 889 m 1,0,-1
 212 1477 l 1,1,-1
 509 1477 l 1,2,-1
 509 994 l 1,3,-1
 793 1094 l 1,4,-1
 793 951 l 1,5,-1
 509 851 l 1,6,-1
 509 232 l 1,7,-1
 1142 232 l 1,8,-1
 1142 0 l 1,9,-1
 212 0 l 1,10,-1
 212 746 l 1,11,-1
 24 680 l 1,12,-1
 24 823 l 1,13,-1
 212 889 l 1,0,-1
EndSplineSet
EndChar

StartChar: lslash
Encoding: 322 322 255
Width: 577
GlyphClass: 2
Flags: W
LayerCount: 2
Fore
SplineSet
493 -12 m 2,0,1
 310 -12 310 -12 226 71.5 c 128,-1,2
 142 155 142 155 142 353 c 2,3,-1
 142 736 l 1,4,-1
 5 680 l 1,5,-1
 5 823 l 1,6,-1
 142 879 l 1,7,-1
 142 1515 l 1,8,-1
 414 1515 l 1,9,-1
 414 991 l 1,10,-1
 579 1059 l 1,11,-1
 579 915 l 1,12,-1
 414 847 l 1,13,-1
 414 357 l 2,14,15
 414 265 414 265 451 227.5 c 128,-1,16
 488 190 488 190 594 190 c 2,17,-1
 628 190 l 1,18,-1
 607 -12 l 1,19,-1
 493 -12 l 2,0,1
EndSplineSet
EndChar

StartChar: napostrophe
Encoding: 329 329 262
Width: 1290
GlyphClass: 2
Flags: W
LayerCount: 2
Fore
SplineSet
345 1231 m 1
 238 1278 l 1
 289 1336 289 1336 336.5 1432 c 0
 384 1528 384 1528 384 1620 c 1
 219 1620 l 1
 219 1896 l 1
 540 1896 l 1
 540 1673 l 2
 540 1540 540 1540 474.5 1415 c 0
 409 1290 409 1290 345 1231 c 1
EndSplineSet
Refer: 78 110 N 1 0 0 1 0 0 2
EndChar

StartChar: Eng
Encoding: 330 330 263
Width: 1640
GlyphClass: 2
Flags: W
LayerCount: 2
Fore
SplineSet
901 -382 m 1,0,-1
 873 -192 l 1,1,2
 1074.5 -174.728571429 1074.5 -174.728571429 1119.03595601 -127.64770365 c 128,-1,3
 1163.57191201 -80.5668358714 1163.57191201 -80.5668358714 1170.28595601 -16.7834179357 c 128,-1,4
 1177 47 1177 47 1177 117 c 2,5,-1
 1177 153 l 1,6,-1
 458 996 l 1,7,-1
 458 0 l 1,8,-1
 190 0 l 1,9,-1
 190 1477 l 1,10,-1
 415 1477 l 1,11,-1
 1183 560 l 1,12,-1
 1183 1477 l 1,13,-1
 1450 1477 l 1,14,-1
 1450 162 l 2,15,16
 1450 12 1450 12 1426.5 -85 c 128,-1,17
 1403 -182 1403 -182 1341.5 -251.5 c 128,-1,18
 1280 -321 1280 -321 1173 -351.5 c 128,-1,19
 1066 -382 1066 -382 901 -382 c 1,0,-1
EndSplineSet
EndChar

StartChar: eng
Encoding: 331 331 264
Width: 1254
GlyphClass: 2
Flags: W
LayerCount: 2
Fore
SplineSet
553 -365 m 1,0,-1
 525 -175 l 1,1,2
 733.692251991 -154.988414193 733.692251991 -154.988414193 769.5 -110.5 c 0,3,4
 816.665697674 -51.9001937984 816.665697674 -51.9001937984 822.832848837 20.0499031008 c 128,-1,5
 829 92 829 92 829 172 c 2,6,-1
 829 768 l 2,7,8
 829 907 829 907 642 907 c 0,9,10
 558 907 558 907 495.5 869 c 128,-1,11
 433 831 433 831 433 758 c 2,12,-1
 433 0 l 1,13,-1
 160 0 l 1,14,-1
 160 1074 l 1,15,-1
 433 1074 l 1,16,-1
 433 948 l 1,17,18
 469 1011 469 1011 558 1054 c 128,-1,19
 647 1097 647 1097 756 1097 c 0,20,21
 911 1097 911 1097 1006.5 1013.5 c 128,-1,22
 1102 930 1102 930 1102 794 c 2,23,-1
 1102 179 l 2,24,25
 1102 29 1102 29 1078.5 -68 c 128,-1,26
 1055 -165 1055 -165 993.5 -234.5 c 128,-1,27
 932 -304 932 -304 825 -334.5 c 128,-1,28
 718 -365 718 -365 553 -365 c 1,0,-1
EndSplineSet
EndChar

StartChar: OE
Encoding: 338 338 271
Width: 1633
GlyphClass: 2
Flags: W
LayerCount: 2
Fore
SplineSet
714 191 m 2,0,-1
 886 191 l 1,1,-1
 886 1279 l 1,2,-1
 713 1279 l 2,3,4
 430 1279 430 1279 430 1022 c 2,5,-1
 430 444 l 2,6,7
 430 191 430 191 714 191 c 2,0,-1
717 0 m 2,8,9
 340.704545455 0 340.704545455 0 226.5 201 c 0,10,11
 160 318.04 160 318.04 160 506 c 2,12,-1
 160 958 l 2,13,14
 160 1255.27868852 160 1255.27868852 325 1377 c 0,15,16
 459.2 1476 459.2 1476 717 1476 c 2,17,-1
 1505 1476 l 1,18,-1
 1505 1287 l 1,19,-1
 1156 1287 l 1,20,-1
 1156 858 l 1,21,-1
 1422 858 l 1,22,-1
 1422 665 l 1,23,-1
 1156 665 l 1,24,-1
 1156 190 l 1,25,-1
 1507 190 l 1,26,-1
 1507 0 l 1,27,-1
 717 0 l 2,8,9
EndSplineSet
EndChar

StartChar: oe
Encoding: 339 339 272
Width: 1780
GlyphClass: 2
Flags: W
LayerCount: 2
Fore
SplineSet
1042 655 m 1,0,-1
 1413 655 l 1,1,-1
 1413 765 l 2,2,3
 1413 848 1413 848 1366 877.5 c 128,-1,4
 1319 907 1319 907 1228.5 907 c 128,-1,5
 1138 907 1138 907 1090 874 c 128,-1,6
 1042 841 1042 841 1042 760 c 2,7,-1
 1042 655 l 1,0,-1
584 166 m 0,8,9
 769 166 769 166 769 314 c 2,10,-1
 769 762 l 2,11,12
 769 840 769 840 724 873.5 c 128,-1,13
 679 907 679 907 586 907 c 128,-1,14
 493 907 493 907 445 873 c 128,-1,15
 397 839 397 839 397 762 c 2,16,-1
 397 314 l 2,17,18
 397 234 397 234 443 200 c 128,-1,19
 489 166 489 166 584 166 c 0,8,9
905 90 m 1,20,21
 789 -23 789 -23 565 -23 c 128,-1,22
 341 -23 341 -23 232.5 67 c 128,-1,23
 124 157 124 157 124 326 c 2,24,-1
 124 749 l 2,25,26
 124 913 124 913 248.5 1005 c 128,-1,27
 373 1097 373 1097 581.5 1097 c 128,-1,28
 790 1097 790 1097 903 977 c 1,29,30
 1014 1097 1014 1097 1220 1097 c 0,31,32
 1670 1097 1670 1097 1670 745 c 2,33,-1
 1670 512 l 1,34,-1
 1042 512 l 1,35,-1
 1042 321 l 2,36,37
 1042 237 1042 237 1089 201.5 c 128,-1,38
 1136 166 1136 166 1207 166 c 128,-1,39
 1278 166 1278 166 1308.5 172.5 c 128,-1,40
 1339 179 1339 179 1365 198 c 0,41,42
 1414.01318267 233.8173258 1414.01318267 233.8173258 1416 357 c 1,43,-1
 1670 357 l 1,44,45
 1664.31395907 92.5990969353 1664.31395907 92.5990969353 1502.5 21 c 0,46,47
 1403.06 -23 1403.06 -23 1217.03 -23 c 128,-1,48
 1031 -23 1031 -23 905 90 c 1,20,21
EndSplineSet
EndChar

StartChar: Tbar
Encoding: 358 358 291
Width: 1210
GlyphClass: 2
Flags: W
LayerCount: 2
Fore
SplineSet
457 817 m 1,0,-1
 457 1250 l 1,1,-1
 56 1250 l 1,2,-1
 56 1477 l 1,3,-1
 1154 1477 l 1,4,-1
 1154 1250 l 1,5,-1
 753 1250 l 1,6,-1
 753 817 l 1,7,-1
 959 817 l 1,8,-1
 959 688 l 1,9,-1
 753 688 l 1,10,-1
 753 0 l 1,11,-1
 457 0 l 1,12,-1
 457 688 l 1,13,-1
 243 688 l 1,14,-1
 243 817 l 1,15,-1
 457 817 l 1,0,-1
EndSplineSet
EndChar

StartChar: tbar
Encoding: 359 359 292
Width: 870
GlyphClass: 2
Flags: W
LayerCount: 2
Fore
SplineSet
676 -12 m 2,0,1
 550 -12 550 -12 468.5 4 c 128,-1,2
 387 20 387 20 331 61 c 128,-1,3
 275 102 275 102 251.5 169.5 c 128,-1,4
 228 237 228 237 228 341 c 2,5,-1
 228 560 l 1,6,-1
 58 560 l 1,7,-1
 58 689 l 1,8,-1
 228 689 l 1,9,-1
 228 901 l 1,10,-1
 86 901 l 1,11,-1
 86 1074 l 1,12,-1
 236 1074 l 1,13,-1
 262 1419 l 1,14,-1
 501 1419 l 1,15,-1
 501 1074 l 1,16,-1
 756 1074 l 1,17,-1
 756 901 l 1,18,-1
 501 901 l 1,19,-1
 501 689 l 1,20,-1
 774 689 l 1,21,-1
 774 560 l 1,22,-1
 501 560 l 1,23,-1
 501 360 l 2,24,25
 501 261 501 261 550 225.5 c 128,-1,26
 599 190 599 190 734 190 c 2,27,-1
 766 190 l 1,28,-1
 746 -12 l 1,29,-1
 676 -12 l 2,0,1
EndSplineSet
EndChar

StartChar: florin
Encoding: 402 402 316
Width: 1024
GlyphClass: 2
Flags: W
LayerCount: 2
Fore
SplineSet
783 1285 m 1,0,-1
 725 1291 l 1,1,2
 632.181818182 1291 632.181818182 1291 618.5 1205 c 0,3,4
 615 1183 615 1183 615 1151 c 2,5,-1
 615 1012 l 1,6,-1
 757 1012 l 1,7,-1
 757 843 l 1,8,-1
 615 843 l 1,9,-1
 615 101 l 2,10,11
 615 -84.7115384615 615 -84.7115384615 553.676470588 -144.855769231 c 128,-1,12
 492.352941176 -205 492.352941176 -205 366 -205 c 0,13,14
 310 -205 310 -205 241 -196 c 1,15,-1
 241 -49 l 1,16,17
 283 -56 283 -56 306 -56 c 0,18,19
 368 -56 368 -56 389 -22.5 c 128,-1,20
 410 11 410 11 410 74 c 2,21,-1
 410 843 l 1,22,-1
 293 843 l 1,23,-1
 293 1012 l 1,24,-1
 410 1012 l 1,25,-1
 410 1125 l 2,26,27
 410 1291 410 1291 450.234741784 1351.35211268 c 128,-1,28
 490.469483568 1411.70422535 490.469483568 1411.70422535 547.734741784 1425.85211268 c 128,-1,29
 605 1440 605 1440 658.5 1440 c 128,-1,30
 712 1440 712 1440 783 1432 c 1,31,-1
 783 1285 l 1,0,-1
EndSplineSet
EndChar

StartChar: uni0237
Encoding: 567 567 367
Width: 650
GlyphClass: 2
Flags: W
LayerCount: 2
Fore
SplineSet
27 -135 m 2,0,1
 198 -135 198 -135 198 43 c 2,2,-1
 198 1074 l 1,3,-1
 471 1074 l 1,4,-1
 471 30 l 2,5,6
 471 -138 471 -138 380 -233.5 c 128,-1,7
 289 -329 289 -329 97 -329 c 2,8,-1
 -12 -329 l 1,9,-1
 -18 -135 l 1,10,-1
 27 -135 l 2,0,1
EndSplineSet
EndChar

StartChar: circumflex
Encoding: 710 710 368
Width: 512
GlyphClass: 2
Flags: W
LayerCount: 2
Fore
SplineSet
-30 1216 m 1,0,-1
 204 1516 l 1,1,-1
 367 1516 l 1,2,-1
 589 1216 l 1,3,-1
 414 1216 l 1,4,-1
 286 1391 l 1,5,-1
 150 1216 l 1,6,-1
 -30 1216 l 1,0,-1
EndSplineSet
EndChar

StartChar: caron
Encoding: 711 711 369
Width: 512
GlyphClass: 2
Flags: W
LayerCount: 2
Fore
SplineSet
192 1216 m 1,0,-1
 -30 1516 l 1,1,-1
 145 1516 l 1,2,-1
 273 1341 l 1,3,-1
 409 1516 l 1,4,-1
 589 1516 l 1,5,-1
 355 1216 l 1,6,-1
 192 1216 l 1,0,-1
EndSplineSet
EndChar

StartChar: uni02C9
Encoding: 713 713 370
Width: 403
GlyphClass: 2
Flags: W
LayerCount: 2
Fore
SplineSet
-4 1251 m 1,0,-1
 -4 1408 l 1,1,-1
 410 1408 l 1,2,-1
 410 1251 l 1,3,-1
 -4 1251 l 1,0,-1
EndSplineSet
EndChar

StartChar: breve
Encoding: 728 728 371
Width: 512
GlyphClass: 2
Flags: W
LayerCount: 2
Fore
SplineSet
266 1291 m 128,-1,1
 160 1291 160 1291 95 1356.5 c 128,-1,2
 30 1422 30 1422 30 1516 c 1,3,-1
 154 1516 l 1,4,5
 154 1464 154 1464 186.5 1434 c 128,-1,6
 219 1404 219 1404 266 1404 c 128,-1,7
 313 1404 313 1404 345.5 1434 c 128,-1,8
 378 1464 378 1464 378 1516 c 1,9,-1
 502 1516 l 1,10,11
 502 1422 502 1422 437 1356.5 c 128,-1,0
 372 1291 372 1291 266 1291 c 128,-1,1
EndSplineSet
EndChar

StartChar: dotaccent
Encoding: 729 729 372
Width: 489
GlyphClass: 2
Flags: W
LayerCount: 2
Fore
SplineSet
126 1251 m 1,0,-1
 126 1505 l 1,1,-1
 384 1505 l 1,2,-1
 384 1251 l 1,3,-1
 126 1251 l 1,0,-1
EndSplineSet
EndChar

StartChar: ring
Encoding: 730 730 373
Width: 592
GlyphClass: 2
Flags: W
LayerCount: 2
Fore
SplineSet
296 1069 m 128,-1,1
 188 1069 188 1069 127 1125 c 128,-1,2
 66 1181 66 1181 66 1282 c 128,-1,3
 66 1383 66 1383 127 1438.5 c 128,-1,4
 188 1494 188 1494 296 1494 c 128,-1,5
 404 1494 404 1494 465 1438.5 c 128,-1,6
 526 1383 526 1383 526 1282 c 128,-1,7
 526 1181 526 1181 465 1125 c 128,-1,0
 404 1069 404 1069 296 1069 c 128,-1,1
296 1159 m 128,-1,9
 414 1159 414 1159 414 1282.5 c 128,-1,10
 414 1406 414 1406 296 1406 c 128,-1,11
 178 1406 178 1406 178 1282.5 c 128,-1,8
 178 1159 178 1159 296 1159 c 128,-1,9
EndSplineSet
EndChar

StartChar: ogonek
Encoding: 731 731 374
Width: 487
GlyphClass: 2
Flags: W
LayerCount: 2
Fore
SplineSet
329 9 m 1,0,1
 246 -148.7 246 -148.7 246 -245 c 0,2,3
 246 -367 246 -367 422 -367 c 1,4,-1
 409 -508 l 1,5,6
 402.72972973 -508.072072072 402.72972973 -508.072072072 396.572437302 -508.072072072 c 0,7,8
 61 -508.072072072 61 -508.072072072 61 -294 c 0,9,10
 61 -220 61 -220 103 -138 c 128,-1,11
 145 -56 145 -56 214 9 c 1,12,-1
 329 9 l 1,0,1
EndSplineSet
EndChar

StartChar: tilde
Encoding: 732 732 375
Width: 759
GlyphClass: 2
Flags: W
LayerCount: 2
Fore
SplineSet
269 1231 m 0,0,1
 69 1231 69 1231 69 1491 c 1,2,-1
 187 1491 l 1,3,4
 187 1405 187 1405 250 1405 c 0,5,6
 272.789473684 1405 272.789473684 1405 312.394736842 1440 c 0,7,8
 388.210526316 1507 388.210526316 1507 490 1507 c 0,9,10
 690 1507 690 1507 690 1247 c 1,11,-1
 572 1247 l 1,12,13
 572 1334 572 1334 516 1334 c 0,14,15
 490.743589744 1334 490.743589744 1334 448.871794872 1298.5 c 0,16,17
 369.256410256 1231 369.256410256 1231 269 1231 c 0,0,1
EndSplineSet
EndChar

StartChar: hungarumlaut
Encoding: 733 733 376
Width: 1024
GlyphClass: 2
Flags: W
LayerCount: 2
Fore
SplineSet
500 1065 m 1,0,-1
 639 1496 l 1,1,-1
 928 1496 l 1,2,-1
 662 1065 l 1,3,-1
 500 1065 l 1,0,-1
96 1065 m 1,4,-1
 207 1496 l 1,5,-1
 493 1496 l 1,6,-1
 251 1065 l 1,7,-1
 96 1065 l 1,4,-1
EndSplineSet
EndChar

StartChar: uni0307
Encoding: 775 775 377
Width: 459
GlyphClass: 2
Flags: W
LayerCount: 2
Fore
SplineSet
117 1251 m 1,0,-1
 117 1498 l 1,1,-1
 365 1498 l 1,2,-1
 365 1251 l 1,3,-1
 117 1251 l 1,0,-1
EndSplineSet
EndChar

StartChar: uni030F
Encoding: 783 783 378
Width: 1024
GlyphClass: 2
Flags: W
LayerCount: 2
Fore
SplineSet
773 1065 m 1,0,-1
 531 1496 l 1,1,-1
 817 1496 l 1,2,-1
 928 1065 l 1,3,-1
 773 1065 l 1,0,-1
362 1065 m 1,4,-1
 96 1496 l 1,5,-1
 385 1496 l 1,6,-1
 524 1065 l 1,7,-1
 362 1065 l 1,4,-1
EndSplineSet
EndChar

StartChar: uni0311
Encoding: 785 785 379
Width: 575
GlyphClass: 2
Flags: W
LayerCount: 2
Fore
SplineSet
64 1222 m 1,0,1
 64 1313 64 1313 123.5 1371 c 128,-1,2
 183 1429 183 1429 278 1429 c 128,-1,3
 373 1429 373 1429 432.5 1371 c 128,-1,4
 492 1313 492 1313 492 1222 c 1,5,-1
 362 1222 l 1,6,7
 362 1263 362 1263 340 1296.5 c 128,-1,8
 318 1330 318 1330 278 1330 c 128,-1,9
 238 1330 238 1330 216.5 1297 c 128,-1,10
 195 1264 195 1264 195 1222 c 1,11,-1
 64 1222 l 1,0,1
EndSplineSet
EndChar

StartChar: uni0326
Encoding: 806 806 380
Width: 683
GlyphClass: 2
Flags: W
LayerCount: 2
Fore
SplineSet
328 -771 m 1,0,-1
 221 -724 l 1,1,2
 272 -666 272 -666 319.5 -570 c 128,-1,3
 367 -474 367 -474 367 -382 c 1,4,-1
 202 -382 l 1,5,-1
 202 -106 l 1,6,-1
 523 -106 l 1,7,-1
 523 -329 l 2,8,9
 523 -462 523 -462 457.5 -587 c 128,-1,10
 392 -712 392 -712 328 -771 c 1,0,-1
EndSplineSet
EndChar

StartChar: mu
Encoding: 956 956 381
Width: 1246
GlyphClass: 2
Flags: W
LayerCount: 2
Fore
SplineSet
719 22 m 128,-1,1
 652 -19 652 -19 568 -19 c 128,-1,2
 484 -19 484 -19 400 2 c 1,3,-1
 400 -236 l 1,4,-1
 148 -236 l 1,5,-1
 148 1074 l 1,6,-1
 420 1074 l 1,7,-1
 420 308 l 2,8,9
 420 232 420 232 473.5 199 c 128,-1,10
 527 166 527 166 605.5 166 c 128,-1,11
 684 166 684 166 749.5 206.5 c 128,-1,12
 815 247 815 247 815 317 c 2,13,-1
 815 1074 l 1,14,-1
 1088 1074 l 1,15,-1
 1088 0 l 1,16,-1
 821 0 l 1,17,-1
 815 135 l 1,18,0
 786 63 786 63 719 22 c 128,-1,1
EndSplineSet
EndChar

StartChar: endash
Encoding: 8211 8211 404
Width: 716
GlyphClass: 2
Flags: W
LayerCount: 2
Fore
SplineSet
128 446 m 1,0,-1
 128 612 l 1,1,-1
 588 612 l 1,2,-1
 588 446 l 1,3,-1
 128 446 l 1,0,-1
EndSplineSet
EndChar

StartChar: emdash
Encoding: 8212 8212 405
Width: 961
GlyphClass: 2
Flags: W
LayerCount: 2
Fore
SplineSet
3 383 m 1,0,-1
 3 556 l 1,1,-1
 957 556 l 1,2,-1
 957 383 l 1,3,-1
 3 383 l 1,0,-1
EndSplineSet
EndChar

StartChar: quoteleft
Encoding: 8216 8216 406
Width: 874
GlyphClass: 2
Flags: W
LayerCount: 2
Fore
SplineSet
296 838 m 1,0,-1
 296 1061 l 2,1,2
 296 1194 296 1194 362 1319.5 c 128,-1,3
 428 1445 428 1445 492 1503 c 1,4,-1
 599 1457 l 1,5,6
 548 1399 548 1399 500.5 1302.5 c 128,-1,7
 453 1206 453 1206 453 1114 c 1,8,-1
 618 1114 l 1,9,-1
 618 838 l 1,10,-1
 296 838 l 1,0,-1
EndSplineSet
EndChar

StartChar: quoteright
Encoding: 8217 8217 407
Width: 834
GlyphClass: 2
Flags: W
LayerCount: 2
Fore
SplineSet
382 839 m 1,0,-1
 275 885 l 1,1,2
 326 943 326 943 373.5 1039.5 c 128,-1,3
 421 1136 421 1136 421 1228 c 1,4,-1
 256 1228 l 1,5,-1
 256 1504 l 1,6,-1
 578 1504 l 1,7,-1
 578 1281 l 2,8,9
 578 1148 578 1148 512 1022.5 c 128,-1,10
 446 897 446 897 382 839 c 1,0,-1
EndSplineSet
EndChar

StartChar: quotesinglbase
Encoding: 8218 8218 408
Width: 874
GlyphClass: 2
Flags: W
LayerCount: 2
Fore
SplineSet
422 -389 m 1,0,-1
 315 -343 l 1,1,2
 366 -285 366 -285 413.5 -188.5 c 128,-1,3
 461 -92 461 -92 461 0 c 1,4,-1
 296 0 l 1,5,-1
 296 276 l 1,6,-1
 618 276 l 1,7,-1
 618 53 l 2,8,9
 618 -80 618 -80 552 -205.5 c 128,-1,10
 486 -331 486 -331 422 -389 c 1,0,-1
EndSplineSet
EndChar

StartChar: quotedblleft
Encoding: 8220 8220 409
Width: 1310
GlyphClass: 2
Flags: W
LayerCount: 2
Fore
SplineSet
732 850 m 1,0,-1
 732 1073 l 2,1,2
 732 1206 732 1206 798 1331.5 c 128,-1,3
 864 1457 864 1457 928 1515 c 1,4,-1
 1035 1469 l 1,5,6
 984 1411 984 1411 936.5 1314.5 c 128,-1,7
 889 1218 889 1218 889 1126 c 1,8,-1
 1054 1126 l 1,9,-1
 1054 850 l 1,10,-1
 732 850 l 1,0,-1
256 850 m 1,11,-1
 256 1073 l 2,12,13
 256 1206 256 1206 322 1331.5 c 128,-1,14
 388 1457 388 1457 452 1515 c 1,15,-1
 559 1469 l 1,16,17
 508 1411 508 1411 460.5 1314.5 c 128,-1,18
 413 1218 413 1218 413 1126 c 1,19,-1
 578 1126 l 1,20,-1
 578 850 l 1,21,-1
 256 850 l 1,11,-1
EndSplineSet
EndChar

StartChar: quotedblright
Encoding: 8221 8221 410
Width: 1350
GlyphClass: 2
Flags: W
LayerCount: 2
Fore
SplineSet
898 851 m 1,0,-1
 791 897 l 1,1,2
 842 955 842 955 889.5 1051.5 c 128,-1,3
 937 1148 937 1148 937 1240 c 1,4,-1
 772 1240 l 1,5,-1
 772 1516 l 1,6,-1
 1094 1516 l 1,7,-1
 1094 1293 l 2,8,9
 1094 1160 1094 1160 1028 1034.5 c 128,-1,10
 962 909 962 909 898 851 c 1,0,-1
422 851 m 1,11,-1
 315 897 l 1,12,13
 366 955 366 955 413.5 1051.5 c 128,-1,14
 461 1148 461 1148 461 1240 c 1,15,-1
 296 1240 l 1,16,-1
 296 1516 l 1,17,-1
 618 1516 l 1,18,-1
 618 1293 l 2,19,20
 618 1160 618 1160 552 1034.5 c 128,-1,21
 486 909 486 909 422 851 c 1,11,-1
EndSplineSet
EndChar

StartChar: quotedblbase
Encoding: 8222 8222 411
Width: 1373
GlyphClass: 2
Flags: W
LayerCount: 2
Fore
SplineSet
921 -389 m 1,0,-1
 814 -343 l 1,1,2
 865 -285 865 -285 912.5 -188.5 c 128,-1,3
 960 -92 960 -92 960 0 c 1,4,-1
 795 0 l 1,5,-1
 795 276 l 1,6,-1
 1117 276 l 1,7,-1
 1117 53 l 2,8,9
 1117 -80 1117 -80 1051 -205.5 c 128,-1,10
 985 -331 985 -331 921 -389 c 1,0,-1
422 -389 m 1,11,-1
 315 -343 l 1,12,13
 366 -285 366 -285 413.5 -188.5 c 128,-1,14
 461 -92 461 -92 461 0 c 1,15,-1
 296 0 l 1,16,-1
 296 276 l 1,17,-1
 618 276 l 1,18,-1
 618 53 l 2,19,20
 618 -80 618 -80 552 -205.5 c 128,-1,21
 486 -331 486 -331 422 -389 c 1,11,-1
EndSplineSet
EndChar

StartChar: dagger
Encoding: 8224 8224 412
Width: 1024
GlyphClass: 2
Flags: W
LayerCount: 2
Fore
SplineSet
409 0 m 1,0,-1
 409 857 l 1,1,-1
 159 857 l 1,2,-1
 159 1013 l 1,3,-1
 409 1013 l 1,4,-1
 409 1324 l 1,5,-1
 614 1324 l 1,6,-1
 614 1013 l 1,7,-1
 865 1013 l 1,8,-1
 865 857 l 1,9,-1
 614 857 l 1,10,-1
 614 0 l 1,11,-1
 409 0 l 1,0,-1
EndSplineSet
EndChar

StartChar: daggerdbl
Encoding: 8225 8225 413
Width: 1025
GlyphClass: 2
Flags: W
LayerCount: 2
Fore
SplineSet
409 0 m 1,0,-1
 409 383 l 1,1,-1
 219 383 l 1,2,-1
 219 569 l 1,3,-1
 409 569 l 1,4,-1
 409 873 l 1,5,-1
 219 873 l 1,6,-1
 219 1059 l 1,7,-1
 409 1059 l 1,8,-1
 409 1324 l 1,9,-1
 614 1324 l 1,10,-1
 614 1059 l 1,11,-1
 806 1059 l 1,12,-1
 806 873 l 1,13,-1
 614 873 l 1,14,-1
 614 569 l 1,15,-1
 806 569 l 1,16,-1
 806 383 l 1,17,-1
 614 383 l 1,18,-1
 614 0 l 1,19,-1
 409 0 l 1,0,-1
EndSplineSet
EndChar

StartChar: bullet
Encoding: 8226 8226 414
Width: 1024
GlyphClass: 2
Flags: W
LayerCount: 2
Fore
SplineSet
511 390 m 128,-1,1
 368 390 368 390 280 479 c 128,-1,2
 192 568 192 568 192 707 c 128,-1,3
 192 846 192 846 280.5 935.5 c 128,-1,4
 369 1025 369 1025 512 1025 c 128,-1,5
 655 1025 655 1025 743.5 935.5 c 128,-1,6
 832 846 832 846 832 707 c 128,-1,7
 832 568 832 568 743 479 c 128,-1,0
 654 390 654 390 511 390 c 128,-1,1
EndSplineSet
EndChar

StartChar: ellipsis
Encoding: 8230 8230 415
Width: 1800
GlyphClass: 2
Flags: W
LayerCount: 2
Fore
SplineSet
1376 0 m 1,0,-1
 1376 284 l 1,1,-1
 1674 284 l 1,2,-1
 1674 0 l 1,3,-1
 1376 0 l 1,0,-1
776 0 m 1,4,-1
 776 284 l 1,5,-1
 1074 284 l 1,6,-1
 1074 0 l 1,7,-1
 776 0 l 1,4,-1
176 0 m 1,8,-1
 176 284 l 1,9,-1
 474 284 l 1,10,-1
 474 0 l 1,11,-1
 176 0 l 1,8,-1
EndSplineSet
EndChar

StartChar: perthousand
Encoding: 8240 8240 416
Width: 2769
GlyphClass: 2
Flags: W
LayerCount: 2
Fore
SplineSet
626 0 m 1,0,-1
 1169 1446 l 1,1,-1
 1342 1446 l 1,2,-1
 804 0 l 1,3,-1
 626 0 l 1,0,-1
2300 -19 m 128,-1,5
 2136 -19 2136 -19 2067.5 79 c 128,-1,6
 1999 177 1999 177 1999 360 c 2,7,-1
 1999 413 l 2,8,9
 1999 598 1999 598 2066.5 691 c 128,-1,10
 2134 784 2134 784 2299.5 784 c 128,-1,11
 2465 784 2465 784 2534 691.5 c 128,-1,12
 2603 599 2603 599 2605 414 c 1,13,-1
 2605 360 l 2,14,15
 2605 177 2605 177 2534.5 79 c 128,-1,4
 2464 -19 2464 -19 2300 -19 c 128,-1,5
2300 111 m 0,16,17
 2403.78461538 111 2403.78461538 111 2428.5 205.5 c 0,18,19
 2442 257.117647059 2442 257.117647059 2442 346 c 2,20,-1
 2442 433 l 2,21,22
 2442 575.333333333 2442 575.333333333 2407.29411765 614.666666667 c 128,-1,23
 2372.58823529 654 2372.58823529 654 2316.79411765 654 c 0,24,25
 2191.7704918 654 2191.7704918 654 2171.45039614 571.36494431 c 0,26,27
 2159 520.733333333 2159 520.733333333 2159 435 c 2,28,-1
 2159 346 l 2,29,30
 2159 199.6 2159 199.6 2193.97368421 155.3 c 128,-1,31
 2228.94736842 111 2228.94736842 111 2300 111 c 0,16,17
1546 -19 m 128,-1,33
 1382 -19 1382 -19 1313.5 79 c 128,-1,34
 1245 177 1245 177 1245 360 c 2,35,-1
 1245 413 l 2,36,37
 1245 598 1245 598 1312.5 691 c 128,-1,38
 1380 784 1380 784 1545.5 784 c 128,-1,39
 1711 784 1711 784 1780 691.5 c 128,-1,40
 1849 599 1849 599 1851 414 c 1,41,-1
 1851 360 l 2,42,43
 1851 177 1851 177 1780.5 79 c 128,-1,32
 1710 -19 1710 -19 1546 -19 c 128,-1,33
1546 111 m 0,44,45
 1649.78461538 111 1649.78461538 111 1674.5 205.5 c 0,46,47
 1688 257.117647059 1688 257.117647059 1688 346 c 2,48,-1
 1688 433 l 2,49,50
 1688 575.333333333 1688 575.333333333 1653.29411765 614.666666667 c 128,-1,51
 1618.58823529 654 1618.58823529 654 1562.79411765 654 c 0,52,53
 1437.7704918 654 1437.7704918 654 1417.45039614 571.36494431 c 0,54,55
 1405 520.733333333 1405 520.733333333 1405 435 c 2,56,-1
 1405 346 l 2,57,58
 1405 199.6 1405 199.6 1439.97368421 155.3 c 128,-1,59
 1474.94736842 111 1474.94736842 111 1546 111 c 0,44,45
429 658 m 128,-1,61
 265 658 265 658 196.5 756 c 128,-1,62
 128 854 128 854 128 1037 c 2,63,-1
 128 1090 l 2,64,65
 128 1275 128 1275 195.5 1368 c 128,-1,66
 263 1461 263 1461 428.5 1461 c 128,-1,67
 594 1461 594 1461 662.5 1368.5 c 128,-1,68
 731 1276 731 1276 733 1091 c 1,69,-1
 733 1037 l 2,70,71
 733 854 733 854 663 756 c 128,-1,60
 593 658 593 658 429 658 c 128,-1,61
429 788 m 0,72,73
 533.738461538 788 533.738461538 788 557 882.5 c 0,74,75
 570 935.3125 570 935.3125 570 1023 c 2,76,-1
 570 1110 l 2,77,78
 570 1253.46666667 570 1253.46666667 535.794117647 1292.23333333 c 128,-1,79
 501.588235294 1331 501.588235294 1331 445.794117647 1331 c 0,80,81
 320.770491803 1331 320.770491803 1331 300.450396142 1248.36494431 c 0,82,83
 288 1197.73333333 288 1197.73333333 288 1112 c 2,84,-1
 288 1023 l 2,85,86
 288 876.6 288 876.6 322.973684211 832.3 c 128,-1,87
 357.947368421 788 357.947368421 788 429 788 c 0,72,73
EndSplineSet
EndChar

StartChar: guilsinglleft
Encoding: 8249 8249 417
Width: 768
GlyphClass: 2
Flags: W
LayerCount: 2
Fore
SplineSet
454 80 m 1,0,-1
 174 530 l 1,1,-1
 447 980 l 1,2,-1
 594 910 l 1,3,-1
 387 530 l 1,4,-1
 594 150 l 1,5,-1
 454 80 l 1,0,-1
EndSplineSet
EndChar

StartChar: guilsinglright
Encoding: 8250 8250 418
Width: 768
GlyphClass: 2
Flags: W
LayerCount: 2
Fore
SplineSet
327 80 m 1,0,-1
 180 150 l 1,1,-1
 387 530 l 1,2,-1
 180 910 l 1,3,-1
 320 980 l 1,4,-1
 600 530 l 1,5,-1
 327 80 l 1,0,-1
EndSplineSet
EndChar

StartChar: fraction
Encoding: 8260 8260 419
Width: 919
GlyphClass: 2
Flags: W
LayerCount: 2
Fore
SplineSet
55 0 m 1,0,-1
 622 1516 l 1,1,-1
 865 1516 l 1,2,-1
 298 0 l 1,3,-1
 55 0 l 1,0,-1
EndSplineSet
EndChar

StartChar: Euro
Encoding: 8364 8364 420
Width: 1490
GlyphClass: 2
Flags: W
LayerCount: 2
Fore
SplineSet
514 0 m 128,-1,1
 402 26 402 26 334.5 69 c 128,-1,2
 267 112 267 112 227 179.5 c 128,-1,3
 187 247 187 247 173.5 318 c 128,-1,4
 160 389 160 389 160 484 c 2,5,-1
 160 505 l 1,6,-1
 46 505 l 1,7,-1
 46 639 l 1,8,-1
 160 639 l 1,9,-1
 160 819 l 1,10,-1
 46 819 l 1,11,-1
 46 953 l 1,12,-1
 160 953 l 1,13,-1
 160 977 l 2,14,15
 160 1240.74444444 160 1240.74444444 267.097269625 1346.65174441 c 128,-1,16
 374.194539249 1452.55904437 374.194539249 1452.55904437 551 1483.5 c 0,17,18
 651 1501 651 1501 777 1501 c 0,19,20
 1233.58064516 1501 1233.58064516 1501 1322.3508103 1250.82953462 c 0,21,22
 1362 1139.09090909 1362 1139.09090909 1362 983 c 2,23,-1
 1362 965 l 1,24,-1
 1071 931 l 1,25,-1
 1071 1006 l 2,26,27
 1071 1160 1071 1160 1010.5 1214 c 128,-1,28
 950 1268 950 1268 779 1268 c 128,-1,29
 608 1268 608 1268 532.5 1213.5 c 128,-1,30
 457 1159 457 1159 457 1012 c 2,31,-1
 457 953 l 1,32,-1
 788 953 l 1,33,-1
 788 819 l 1,34,-1
 457 819 l 1,35,-1
 457 639 l 1,36,-1
 788 639 l 1,37,-1
 788 505 l 1,38,-1
 457 505 l 1,39,-1
 457 454 l 2,40,41
 457 305.505882353 457 305.505882353 534.527777778 256.252941176 c 128,-1,42
 612.055555556 207 612.055555556 207 781 207 c 0,43,44
 870 207 870 207 922 216.5 c 128,-1,45
 974 226 974 226 1009.5 255 c 128,-1,46
 1045 284 1045 284 1058 332 c 128,-1,47
 1071 380 1071 380 1071 460 c 2,48,-1
 1071 507 l 1,49,-1
 1362 507 l 1,50,-1
 1362 480 l 2,51,52
 1362 260.886792453 1362 260.886792453 1297.49067937 163.514233012 c 128,-1,53
 1232.98135874 66.1416735708 1232.98135874 66.1416735708 1111.7950272 20.0708367854 c 128,-1,54
 990.608695652 -26 990.608695652 -26 808.304347826 -26 c 128,-1,0
 626 -26 626 -26 514 0 c 128,-1,1
EndSplineSet
EndChar

StartChar: trademark
Encoding: 8482 8482 421
Width: 1843
GlyphClass: 2
Flags: W
LayerCount: 2
Fore
SplineSet
345 766 m 1,0,-1
 345 1332 l 1,1,-1
 133 1332 l 1,2,-1
 133 1446 l 1,3,-1
 692 1446 l 1,4,-1
 692 1332 l 1,5,-1
 480 1332 l 1,6,-1
 480 766 l 1,7,-1
 345 766 l 1,0,-1
845 766 m 1,8,-1
 845 1446 l 1,9,-1
 1043 1446 l 1,10,-1
 1227 1033 l 1,11,-1
 1413 1446 l 1,12,-1
 1609 1446 l 1,13,-1
 1609 766 l 1,14,-1
 1482 766 l 1,15,-1
 1482 1329 l 1,16,-1
 1310 931 l 1,17,-1
 1149 931 l 1,18,-1
 970 1329 l 1,19,-1
 970 766 l 1,20,-1
 845 766 l 1,8,-1
EndSplineSet
EndChar

StartChar: uni2206
Encoding: 8710 8710 422
Width: 1132
GlyphClass: 2
Flags: W
LayerCount: 2
Fore
SplineSet
277 494 m 1,0,-1
 860 494 l 1,1,-1
 581 1335 l 1,2,-1
 277 494 l 1,0,-1
96 350 m 1,3,-1
 96 474 l 1,4,-1
 494 1505 l 1,5,-1
 664 1505 l 1,6,-1
 1036 474 l 1,7,-1
 1036 350 l 1,8,-1
 96 350 l 1,3,-1
EndSplineSet
EndChar

StartChar: product
Encoding: 8719 8719 423
Width: 1776
GlyphClass: 2
Flags: W
LayerCount: 2
Fore
SplineSet
1178.5 42.5 m 128,-1,1
 1042 -14 1042 -14 863 -14 c 128,-1,2
 684 -14 684 -14 515.5 82 c 128,-1,3
 347 178 347 178 249.5 347 c 128,-1,4
 152 516 152 516 152 721.5 c 128,-1,5
 152 927 152 927 249.5 1095.5 c 128,-1,6
 347 1264 347 1264 515.5 1360 c 128,-1,7
 684 1456 684 1456 888.5 1456 c 128,-1,8
 1093 1456 1093 1456 1262 1360 c 128,-1,9
 1431 1264 1431 1264 1527.5 1095.5 c 128,-1,10
 1624 927 1624 927 1624 747 c 128,-1,11
 1624 567 1624 567 1567 430.5 c 128,-1,12
 1510 294 1510 294 1412.5 196.5 c 128,-1,0
 1315 99 1315 99 1178.5 42.5 c 128,-1,1
566.5 165.5 m 128,-1,14
 711 82 711 82 890.5 82 c 128,-1,15
 1070 82 1070 82 1214 165.5 c 128,-1,16
 1358 249 1358 249 1438 395 c 128,-1,17
 1518 541 1518 541 1518 721.5 c 128,-1,18
 1518 902 1518 902 1438 1048 c 128,-1,19
 1358 1194 1358 1194 1214 1277.5 c 128,-1,20
 1070 1361 1070 1361 890.5 1361 c 128,-1,21
 711 1361 711 1361 566.5 1277.5 c 128,-1,22
 422 1194 422 1194 341.5 1048 c 128,-1,23
 261 902 261 902 261 722 c 128,-1,24
 261 542 261 542 341.5 395.5 c 128,-1,13
 422 249 422 249 566.5 165.5 c 128,-1,14
783 742 m 1,25,-1
 969 742 l 2,26,27
 1103 742 1103 742 1105 877 c 1,28,-1
 1105 901 l 2,29,30
 1105 1062 1105 1062 978 1062 c 2,31,-1
 783 1062 l 1,32,-1
 783 742 l 1,25,-1
652 319 m 1,33,-1
 652 1153 l 1,34,-1
 974 1153 l 2,35,36
 1231 1153 1231 1153 1237 908 c 1,37,-1
 1237 894 l 2,38,39
 1237 781 1237 781 1175.5 716.5 c 128,-1,40
 1114 652 1114 652 961 652 c 2,41,-1
 783 652 l 1,42,-1
 783 319 l 1,43,-1
 652 319 l 1,33,-1
EndSplineSet
EndChar

StartChar: minus
Encoding: 8722 8722 424
Width: 792
GlyphClass: 2
Flags: W
LayerCount: 2
Fore
SplineSet
122 439 m 1,0,-1
 122 619 l 1,1,-1
 664 619 l 1,2,-1
 664 439 l 1,3,-1
 122 439 l 1,0,-1
EndSplineSet
EndChar

StartChar: uni2215
Encoding: 8725 8725 425
Width: 919
GlyphClass: 2
Flags: W
LayerCount: 2
Fore
SplineSet
54 0 m 1,0,-1
 622 1516 l 1,1,-1
 866 1516 l 1,2,-1
 296 0 l 1,3,-1
 54 0 l 1,0,-1
EndSplineSet
EndChar

StartChar: uni2219
Encoding: 8729 8729 426
Width: 459
GlyphClass: 2
Flags: W
LayerCount: 2
Fore
SplineSet
117 1251 m 1,0,-1
 117 1498 l 1,1,-1
 365 1498 l 1,2,-1
 365 1251 l 1,3,-1
 117 1251 l 1,0,-1
EndSplineSet
EndChar

StartChar: infinity
Encoding: 8734 8734 427
Width: 2048
GlyphClass: 2
Flags: W
LayerCount: 2
Fore
SplineSet
378 765 m 128,-1,1
 378 593 378 593 526 593 c 0,2,3
 580.244897959 593 580.244897959 593 719.62244898 671.5 c 128,-1,4
 859 750 859 750 889 765 c 1,5,6
 859 780 859 780 772 829 c 1,7,8
 563.105674589 932.617120464 563.105674589 932.617120464 526 937 c 1,9,0
 378 937 378 937 378 765 c 128,-1,1
1670 765 m 128,-1,11
 1670 937 1670 937 1522 937 c 0,12,13
 1467.75510204 937 1467.75510204 937 1328.37755102 858.5 c 128,-1,14
 1189 780 1189 780 1159 765 c 1,15,16
 1189 750 1189 750 1328.37755102 671.5 c 128,-1,17
 1467.75510204 593 1467.75510204 593 1522 593 c 0,18,10
 1670 593 1670 593 1670 765 c 128,-1,11
1540 1170 m 0,19,20
 1667 1170 1667 1170 1748.5 1063.5 c 128,-1,21
 1830 957 1830 957 1830 765 c 128,-1,22
 1830 573 1830 573 1748.5 466.5 c 128,-1,23
 1667 360 1667 360 1539.56578947 360 c 128,-1,24
 1412.13157895 360 1412.13157895 360 1153.5 528 c 0,25,26
 1095 566 1095 566 1060 593 c 2,27,-1
 1024 620 l 1,28,29
 817.6492891 457.867298578 817.6492891 457.867298578 633 388 c 0,30,31
 559 360 559 360 508 360 c 0,32,33
 381 360 381 360 299.5 466.5 c 128,-1,34
 218 573 218 573 218 765 c 128,-1,35
 218 957 218 957 299.5 1063.5 c 128,-1,36
 381 1170 381 1170 508.434210526 1170 c 128,-1,37
 635.868421053 1170 635.868421053 1170 894.5 1002 c 0,38,39
 953 964 953 964 988 937 c 2,40,-1
 1024 910 l 1,41,42
 1230.3507109 1072.13270142 1230.3507109 1072.13270142 1415 1142 c 0,43,44
 1489 1170 1489 1170 1540 1170 c 0,19,20
EndSplineSet
EndChar

StartChar: integral
Encoding: 8747 8747 428
Width: 693
GlyphClass: 2
Flags: W
LayerCount: 2
Fore
SplineSet
593 1286 m 1,0,1
 563 1292 563 1292 535 1292 c 0,2,3
 468 1292 468 1292 446.5 1255.5 c 128,-1,4
 425 1219 425 1219 425 1152 c 2,5,-1
 425 43 l 2,6,7
 425 -142.711538462 425 -142.711538462 363.676470588 -202.855769231 c 128,-1,8
 302.352941176 -263 302.352941176 -263 176 -263 c 0,9,10
 120 -263 120 -263 51 -254 c 1,11,-1
 51 -107 l 1,12,13
 93 -114 93 -114 116 -114 c 0,14,15
 178 -114 178 -114 199 -80.5 c 128,-1,16
 220 -47 220 -47 220 16 c 2,17,-1
 220 1126 l 2,18,19
 220 1322.35849057 220 1322.35849057 282.166666667 1382.17924528 c 128,-1,20
 344.333333333 1442 344.333333333 1442 471 1442 c 0,21,22
 514 1442 514 1442 593 1433 c 1,23,-1
 593 1286 l 1,0,1
EndSplineSet
EndChar

StartChar: approxequal
Encoding: 8776 8776 429
Width: 1024
GlyphClass: 2
Flags: W
LayerCount: 2
Fore
SplineSet
624.5 939.5 m 0,0,1
 701 905 701 905 732 905 c 0,2,3
 855 905 855 905 855 1027 c 1,4,-1
 964 1027 l 1,5,6
 964 891 964 891 895.5 814.5 c 128,-1,7
 827 738 827 738 727.094202899 738 c 128,-1,8
 627.188405797 738 627.188405797 738 398.5 842.5 c 0,9,10
 323 877 323 877 292 877 c 0,11,12
 168 877 168 877 168 754 c 1,13,-1
 60 754 l 1,14,15
 60 891 60 891 128 967 c 128,-1,16
 196 1043 196 1043 295.5 1043 c 128,-1,17
 395 1043 395 1043 624.5 939.5 c 0,0,1
624.5 1332.5 m 0,18,19
 701 1298 701 1298 732 1298 c 0,20,21
 855 1298 855 1298 855 1420 c 1,22,-1
 964 1420 l 1,23,24
 964 1284 964 1284 895.5 1207.5 c 128,-1,25
 827 1131 827 1131 723.311320755 1131 c 128,-1,26
 619.622641509 1131 619.622641509 1131 478 1200.5 c 128,-1,27
 336.377358491 1270 336.377358491 1270 292 1270 c 0,28,29
 168 1270 168 1270 168 1147 c 1,30,-1
 60 1147 l 1,31,32
 60 1284 60 1284 128 1360 c 128,-1,33
 196 1436 196 1436 295.5 1436 c 128,-1,34
 395 1436 395 1436 624.5 1332.5 c 0,18,19
EndSplineSet
EndChar

StartChar: notequal
Encoding: 8800 8800 430
Width: 919
GlyphClass: 2
Flags: W
LayerCount: 2
Fore
SplineSet
112 740 m 1,0,-1
 112 913 l 1,1,-1
 474 913 l 1,2,-1
 565 1176 l 1,3,-1
 708 1176 l 1,4,-1
 617 913 l 1,5,-1
 768 913 l 1,6,-1
 768 740 l 1,7,-1
 556 740 l 1,8,-1
 488 544 l 1,9,-1
 768 544 l 1,10,-1
 768 371 l 1,11,-1
 428 371 l 1,12,-1
 299 0 l 1,13,-1
 156 0 l 1,14,-1
 285 371 l 1,15,-1
 112 371 l 1,16,-1
 112 544 l 1,17,-1
 345 544 l 1,18,-1
 413 740 l 1,19,-1
 112 740 l 1,0,-1
EndSplineSet
EndChar

StartChar: lessequal
Encoding: 8804 8804 431
Width: 1252
GlyphClass: 2
Flags: W
LayerCount: 2
Fore
SplineSet
229 0 m 1,0,-1
 229 175 l 1,1,-1
 1021 175 l 1,2,-1
 1021 0 l 1,3,-1
 229 0 l 1,0,-1
1023 239 m 1,4,-1
 239 653 l 1,5,-1
 239 872 l 1,6,-1
 1023 1289 l 1,7,-1
 1023 1058 l 1,8,-1
 420 764 l 1,9,-1
 1023 470 l 1,10,-1
 1023 239 l 1,4,-1
EndSplineSet
EndChar

StartChar: greaterequal
Encoding: 8805 8805 432
Width: 1250
GlyphClass: 2
Flags: W
LayerCount: 2
Fore
SplineSet
184 0 m 1,0,-1
 184 175 l 1,1,-1
 1066 175 l 1,2,-1
 1066 0 l 1,3,-1
 184 0 l 1,0,-1
245 236 m 1,4,-1
 245 465 l 1,5,-1
 808 761 l 1,6,-1
 245 1053 l 1,7,-1
 245 1286 l 1,8,-1
 988 870 l 1,9,-1
 988 651 l 1,10,-1
 245 236 l 1,4,-1
EndSplineSet
EndChar

StartChar: lozenge
Encoding: 9674 9674 433
Width: 1104
GlyphClass: 2
Flags: W
LayerCount: 2
Fore
SplineSet
567 188 m 1,0,-1
 793 754 l 1,1,-1
 567 1307 l 1,2,-1
 316 754 l 1,3,-1
 567 188 l 1,0,-1
466 0 m 1,4,-1
 102 754 l 1,5,-1
 466 1505 l 1,6,-1
 664 1505 l 1,7,-1
 1002 754 l 1,8,-1
 664 0 l 1,9,-1
 466 0 l 1,4,-1
EndSplineSet
EndChar

StartChar: uniFB00
Encoding: 64256 64256 434
Width: 1570
GlyphClass: 3
Flags: W
LayerCount: 2
Fore
SplineSet
1022 0 m 1,0,-1
 1022 901 l 1,1,-1
 501 901 l 1,2,-1
 501 0 l 1,3,-1
 228 0 l 1,4,-1
 228 901 l 1,5,-1
 86 901 l 1,6,-1
 86 1074 l 1,7,-1
 228 1074 l 1,8,-1
 228 1125 l 2,9,10
 228 1320 228 1320 315.5 1418 c 128,-1,11
 403 1516 403 1516 591 1516 c 2,12,-1
 717 1516 l 1,13,-1
 730 1327 l 1,14,-1
 640 1327 l 2,15,16
 558 1327 558 1327 529.5 1294.5 c 128,-1,17
 501 1262 501 1262 501 1200 c 2,18,-1
 501 1074 l 1,19,-1
 1022 1074 l 1,20,-1
 1022 1125 l 2,21,22
 1022 1320 1022 1320 1109.5 1418 c 128,-1,23
 1197 1516 1197 1516 1385 1516 c 2,24,-1
 1511 1516 l 1,25,-1
 1524 1327 l 1,26,-1
 1434 1327 l 2,27,28
 1352 1327 1352 1327 1323.5 1294.5 c 128,-1,29
 1295 1262 1295 1262 1295 1200 c 2,30,-1
 1295 1074 l 1,31,-1
 1509 1074 l 1,32,-1
 1509 901 l 1,33,-1
 1295 901 l 1,34,-1
 1295 0 l 1,35,-1
 1022 0 l 1,0,-1
EndSplineSet
LCarets2: 1 0 
Ligature2: "'liga' Standard Ligatures lookup 0 subtable" f f
EndChar

StartChar: uniFB01
Encoding: 64257 64257 435
Width: 1366
GlyphClass: 3
Flags: W
LayerCount: 2
Fore
SplineSet
934 1227 m 1,0,-1
 934 1468 l 1,1,-1
 1206 1468 l 1,2,-1
 1206 1227 l 1,3,-1
 934 1227 l 1,0,-1
228 0 m 1,4,-1
 228 901 l 1,5,-1
 86 901 l 1,6,-1
 86 1074 l 1,7,-1
 228 1074 l 1,8,-1
 228 1125 l 2,9,10
 228 1320 228 1320 315.5 1418 c 128,-1,11
 403 1516 403 1516 591 1516 c 2,12,-1
 717 1516 l 1,13,-1
 730 1327 l 1,14,-1
 640 1327 l 2,15,16
 558 1327 558 1327 529.5 1294.5 c 128,-1,17
 501 1262 501 1262 501 1200 c 2,18,-1
 501 1074 l 1,19,-1
 1206 1074 l 1,20,-1
 1206 0 l 1,21,-1
 934 0 l 1,22,-1
 934 901 l 1,23,-1
 501 901 l 1,24,-1
 501 0 l 1,25,-1
 228 0 l 1,4,-1
EndSplineSet
LCarets2: 1 0 
Ligature2: "'liga' Standard Ligatures lookup 0 subtable" f i
EndChar

StartChar: uniFB02
Encoding: 64258 64258 436
Width: 1468
GlyphClass: 3
Flags: W
LayerCount: 2
Fore
SplineSet
1287 -12 m 2,0,1
 1104 -12 1104 -12 1020 71.5 c 128,-1,2
 936 155 936 155 936 353 c 2,3,-1
 936 1327 l 1,4,-1
 640 1327 l 2,5,6
 558 1327 558 1327 529.5 1294.5 c 128,-1,7
 501 1262 501 1262 501 1200 c 2,8,-1
 501 1074 l 1,9,-1
 715 1074 l 1,10,-1
 715 901 l 1,11,-1
 501 901 l 1,12,-1
 501 0 l 1,13,-1
 228 0 l 1,14,-1
 228 901 l 1,15,-1
 86 901 l 1,16,-1
 86 1074 l 1,17,-1
 228 1074 l 1,18,-1
 228 1125 l 2,19,20
 228 1320 228 1320 315.5 1418 c 128,-1,21
 403 1516 403 1516 591 1516 c 2,22,-1
 1208 1515 l 1,23,-1
 1208 357 l 2,24,25
 1208 265 1208 265 1245 227.5 c 128,-1,26
 1282 190 1282 190 1388 190 c 2,27,-1
 1422 190 l 1,28,-1
 1401 -12 l 1,29,-1
 1287 -12 l 2,0,1
EndSplineSet
LCarets2: 1 0 
Ligature2: "'liga' Standard Ligatures lookup 0 subtable" f l
EndChar

StartChar: uniFB03
Encoding: 64259 64259 437
Width: 2192
GlyphClass: 3
Flags: W
LayerCount: 2
Fore
SplineSet
1754 1227 m 1,0,-1
 1754 1468 l 1,1,-1
 2026 1468 l 1,2,-1
 2026 1227 l 1,3,-1
 1754 1227 l 1,0,-1
1048 0 m 1,4,-1
 1048 901 l 1,5,-1
 527 901 l 1,6,-1
 527 0 l 1,7,-1
 254 0 l 1,8,-1
 254 901 l 1,9,-1
 112 901 l 1,10,-1
 112 1074 l 1,11,-1
 254 1074 l 1,12,-1
 254 1125 l 2,13,14
 254 1320 254 1320 341.5 1418 c 128,-1,15
 429 1516 429 1516 617 1516 c 2,16,-1
 743 1516 l 1,17,-1
 756 1327 l 1,18,-1
 666 1327 l 2,19,20
 584 1327 584 1327 555.5 1294.5 c 128,-1,21
 527 1262 527 1262 527 1200 c 2,22,-1
 527 1074 l 1,23,-1
 1048 1074 l 1,24,-1
 1048 1125 l 2,25,26
 1048 1320 1048 1320 1135.5 1418 c 128,-1,27
 1223 1516 1223 1516 1411 1516 c 2,28,-1
 1537 1516 l 1,29,-1
 1550 1327 l 1,30,-1
 1460 1327 l 2,31,32
 1378 1327 1378 1327 1349.5 1294.5 c 128,-1,33
 1321 1262 1321 1262 1321 1200 c 2,34,-1
 1321 1074 l 1,35,-1
 2026 1074 l 1,36,-1
 2026 0 l 1,37,-1
 1754 0 l 1,38,-1
 1754 901 l 1,39,-1
 1321 901 l 1,40,-1
 1321 0 l 1,41,-1
 1048 0 l 1,4,-1
EndSplineSet
LCarets2: 2 0 0 
Ligature2: "'liga' Standard Ligatures lookup 0 subtable" f f i
EndChar

StartChar: uniFB04
Encoding: 64260 64260 438
Width: 2234
GlyphClass: 3
Flags: W
LayerCount: 2
Fore
SplineSet
2053 -12 m 2,0,1
 1870 -12 1870 -12 1786 71.5 c 128,-1,2
 1702 155 1702 155 1702 353 c 2,3,-1
 1702 1327 l 1,4,-1
 1406 1327 l 2,5,6
 1324 1327 1324 1327 1295.5 1294.5 c 128,-1,7
 1267 1262 1267 1262 1267 1200 c 2,8,-1
 1267 1074 l 1,9,-1
 1481 1074 l 1,10,-1
 1481 901 l 1,11,-1
 1267 901 l 1,12,-1
 1267 0 l 1,13,-1
 994 0 l 1,14,-1
 994 901 l 1,15,-1
 501 901 l 1,16,-1
 501 0 l 1,17,-1
 228 0 l 1,18,-1
 228 901 l 1,19,-1
 86 901 l 1,20,-1
 86 1074 l 1,21,-1
 228 1074 l 1,22,-1
 228 1125 l 2,23,24
 228 1320 228 1320 315.5 1418 c 128,-1,25
 403 1516 403 1516 591 1516 c 2,26,-1
 717 1516 l 1,27,-1
 730 1327 l 1,28,-1
 640 1327 l 2,29,30
 558 1327 558 1327 529.5 1294.5 c 128,-1,31
 501 1262 501 1262 501 1200 c 2,32,-1
 501 1074 l 1,33,-1
 994 1074 l 1,34,-1
 994 1125 l 2,35,36
 994 1320 994 1320 1081.5 1418 c 128,-1,37
 1169 1516 1169 1516 1357 1516 c 2,38,-1
 1974 1515 l 1,39,-1
 1974 357 l 2,40,41
 1974 265 1974 265 2011 227.5 c 128,-1,42
 2048 190 2048 190 2154 190 c 2,43,-1
 2188 190 l 1,44,-1
 2167 -12 l 1,45,-1
 2053 -12 l 2,0,1
EndSplineSet
LCarets2: 2 0 0 
Ligature2: "'liga' Standard Ligatures lookup 0 subtable" f f l
EndChar
